<mxfile host="65bd71144e">
    <diagram id="RA2xmgia1k1ak0av1RqI" name="Page-1">
        <mxGraphModel dx="2061" dy="1790" grid="1" gridSize="10" guides="1" tooltips="1" connect="1" arrows="1" fold="1" page="1" pageScale="1" pageWidth="850" pageHeight="1100" math="0" shadow="0">
            <root>
                <mxCell id="0"/>
                <mxCell id="1" parent="0"/>
                <mxCell id="142" value="" style="rounded=0;whiteSpace=wrap;html=1;fillColor=default;shadow=0;strokeColor=none;" parent="1" vertex="1">
                    <mxGeometry x="-280" y="-160" width="1320" height="960" as="geometry"/>
                </mxCell>
                <mxCell id="65" value="Backend" style="fillColor=none;strokeColor=#5A6C86;dashed=1;verticalAlign=top;fontStyle=0;fontColor=#5A6C86;fontSize=12;" parent="1" vertex="1">
                    <mxGeometry x="40" y="120" width="800" height="640" as="geometry"/>
                </mxCell>
                <mxCell id="3" value="Region (us-east-1)" style="points=[[0,0],[0.25,0],[0.5,0],[0.75,0],[1,0],[1,0.25],[1,0.5],[1,0.75],[1,1],[0.75,1],[0.5,1],[0.25,1],[0,1],[0,0.75],[0,0.5],[0,0.25]];outlineConnect=0;gradientColor=none;html=1;whiteSpace=wrap;fontSize=12;fontStyle=0;container=1;pointerEvents=0;collapsible=0;recursiveResize=0;shape=mxgraph.aws4.group;grIcon=mxgraph.aws4.group_region;strokeColor=#147EBA;fillColor=none;verticalAlign=top;align=left;spacingLeft=30;fontColor=#147EBA;dashed=1;" parent="1" vertex="1">
                    <mxGeometry x="80" y="160" width="720" height="560" as="geometry"/>
                </mxCell>
                <mxCell id="57" value="&lt;span style=&quot;font-family: Helvetica; font-size: 12px; font-style: normal; font-variant-ligatures: normal; font-variant-caps: normal; font-weight: 400; letter-spacing: normal; orphans: 2; text-align: center; text-indent: 0px; text-transform: none; widows: 2; word-spacing: 0px; -webkit-text-stroke-width: 0px; background-color: rgb(255, 255, 255); text-decoration-thickness: initial; text-decoration-style: initial; text-decoration-color: initial; float: none; display: inline !important;&quot;&gt;Authorization&lt;/span&gt;" style="edgeStyle=orthogonalEdgeStyle;html=1;fontSize=12;startSize=6;sourcePerimeterSpacing=6;targetPerimeterSpacing=24;fillColor=#f8cecc;strokeColor=#b85450;fontColor=#B85450;sketch=1;curveFitting=1;jiggle=2;" parent="3" source="4" target="53" edge="1">
                    <mxGeometry x="0.4667" relative="1" as="geometry">
                        <mxPoint as="offset"/>
                    </mxGeometry>
                </mxCell>
                <mxCell id="53" value="Cognito" style="points=[[0,0,0],[0.25,0,0],[0.5,0,0],[0.75,0,0],[1,0,0],[0,1,0],[0.25,1,0],[0.5,1,0],[0.75,1,0],[1,1,0],[0,0.25,0],[0,0.5,0],[0,0.75,0],[1,0.25,0],[1,0.5,0],[1,0.75,0]];outlineConnect=0;fontColor=#232F3E;gradientColor=#F54749;gradientDirection=north;fillColor=#C7131F;strokeColor=#ffffff;dashed=0;verticalLabelPosition=bottom;verticalAlign=top;align=center;html=1;fontSize=12;fontStyle=0;aspect=fixed;shape=mxgraph.aws4.resourceIcon;resIcon=mxgraph.aws4.cognito;" parent="3" vertex="1">
                    <mxGeometry x="40" y="40" width="40" height="40" as="geometry"/>
                </mxCell>
                <mxCell id="101" value="AppSync&lt;br style=&quot;font-size: 12px;&quot;&gt;Resolvers" style="text;strokeColor=none;align=center;fillColor=none;html=1;verticalAlign=middle;whiteSpace=wrap;rounded=0;fontSize=12;fontColor=#000000;sketch=1;curveFitting=1;jiggle=2;" parent="3" vertex="1">
                    <mxGeometry x="150" y="365" width="60" height="30" as="geometry"/>
                </mxCell>
                <mxCell id="111" value="Perform Vector Embedding" style="edgeStyle=orthogonalEdgeStyle;html=1;targetPerimeterSpacing=24;sourcePerimeterSpacing=6;fontSize=12;sketch=1;curveFitting=1;jiggle=2;" parent="3" source="110" target="21" edge="1">
                    <mxGeometry relative="1" as="geometry"/>
                </mxCell>
                <mxCell id="110" value="S3 &lt;br&gt;(Knowledge Base)" style="points=[[0,0,0],[0.25,0,0],[0.5,0,0],[0.75,0,0],[1,0,0],[0,1,0],[0.25,1,0],[0.5,1,0],[0.75,1,0],[1,1,0],[0,0.25,0],[0,0.5,0],[0,0.75,0],[1,0.25,0],[1,0.5,0],[1,0.75,0]];outlineConnect=0;fontColor=#232F3E;gradientColor=#60A337;gradientDirection=north;fillColor=#277116;strokeColor=#ffffff;dashed=0;verticalLabelPosition=bottom;verticalAlign=top;align=center;html=1;fontSize=12;fontStyle=0;aspect=fixed;shape=mxgraph.aws4.resourceIcon;resIcon=mxgraph.aws4.s3;" parent="3" vertex="1">
                    <mxGeometry x="80" y="480" width="40" height="40" as="geometry"/>
                </mxCell>
                <mxCell id="21" value="Bedrock" style="shape=image;verticalLabelPosition=bottom;labelBackgroundColor=default;verticalAlign=top;aspect=fixed;imageAspect=0;image=data:image/png,iVBORw0KGgoAAAANSUhEUgAAAMQAAADECAYAAADApo5rAAAABGdBTUEAALGPC/xhBQAAACBjSFJNAAB6JgAAgIQAAPoAAACA6AAAdTAAAOpgAAA6mAAAF3CculE8AAAABmJLR0QA/wD/AP+gvaeTAAAACXBIWXMAAA7DAAAOwwHHb6hkAABpEElEQVR42t29d7Rd13kf+Nvn3vsKHt5Dr0QvBAGCBSxgp8QiirJcIlmyJFt2XORlW+Ma2Z5ZmTWJJrbjJMsry/GsUWbsZGLHdlQiybIsWaJkSaRYxA6SIEACIHrv7wF49d579vxx2tf2OeeCcuLlvRbw7ml7f/379reb2/yH/7t3zoEWeY30Or/rkv8c+S1eLb/ngEhcF39c8Lqohd+z4HX8gwJegUhvOEj4S3CIaNOCfrwRjYOEX94z4WetM5wcAE9wcJo41TxIi8U3iweaJxYPNLzWc00uiUNkgERxqCNTSSMR6hTvU5KK29l/5Ln36g1YH8bB13zFta7Xe/GCt9r18GU40GcBsCX8YRzEQ1/88aH3BfwhWL31rXjg2QPjdU9JFOaRVRK8qwhk1+fEtW7PF1wi+DholnIcYkbjMmRyinj7zSipXAuYEjKKDlECripEKcj3nPi0Xl/886IeT98W8AVgVjgoSXTimsBDrj30c8+uE+AiEyfNAC+UOrvnGY0Ek7zAKaW3Y5V4KkJcWywcBbyS3gWYXtzWChpnQuUz+mh8Eh5InrAbKQ4l7Mjb9vWUmOJArymsUoZ80V5UwOZNpCjwXlquIAOk5fXaKnkgZp7CUAItq5q3guCSQBxebzJXM8QLxycZktyrhD+mIueDfGRwlCm6p+KhvyWVGN5Eww/JE2aYmHQVOJDCPCSlsSE3mgdlhJCGycJByhXx2QYOntVt09fD1wyZNB0FJyQDCDjBaCb5EcEOPSQCtiD7Sk9RYrxLYhCFngG/RQyjKsYnbzPEl4qHUgrD3QCw1NxQdK9x8AYO0utD8I2il1Rqox/GwfSjNp5BGbLuWWoqPKKXfCsuIu99mTzkiGhRlDSqYFrArsW6IvLHthIlWqaJb1xzSw4tUAJepehBT0EskqdsNuAtUSQrZFX885aV9WGemMWHfymrGnbNcahq+prsZNM6pWcuqUbzIBw+cR4LTyFr9IWBrkTGS4KkDHF21bQV+VMgUzwoDKl21SZoVbxW3xkWtMxqVYU3pZ7BYGEsn/jA23UbFFgJ+Sp+hPt5XkheOHyyUJVKYXhvGa4aONQzrF7opM2sws6k0qS0SSLMq/I+DZny0KMkPMniV84jYZF8QPCoVnuCoAQOIiYPAC+/yZDhHXmv3bSEF1BM0+8UNAGBP8eHVBYH4MuviVJ4XkERTjG0+bWJkyKLCD8sz2ZafNv7sTYIOKZSVEQbGZ5cZgxjCy1XDD1Sk9cMpRBpnJgocePrAESlkU4gHpcM8AEGcA3UJtWyUvBEsAi8ATtn0LIqXLIV3cKJM02+x8MjqhQsJcto5kVHGxp+qehWYFSm6NY9YWmZGnov3jFIRHnoy+GLJU+qDJPFg1wpOL09hY8qRqlbj8UTbVx9QXlEOiVYLlBeWlHSGpdtbcmC18GbXv+RtBWhT+4tKnAo7aiWgVn6jjQE3r4tsgjeErKylCwUT2H5ZgZfCTJWCGsaq1LK8Jdjw7uVNBqKgmoX5jmIM6f1SWMm9AqgIZMCvkzLTYiZO8hAU5bWFz8LwDy/BiA6qrQVI7TIORhmQCh+pRfM4hHXzfWFxLMCB0mH2FCK/IKEuWxsgf4Uih6QgBD5iWczhIHFPoHkBaeAkHnP+ExLjCx7aAt9kCeB8IkjQeAS2iPT+sWjgtgyEuB1lI5UV6iot1y31Dj100A4gBAhrnRzFsMBqOH4Ss+kxlW8gQNRE8IUy5JZI8DFyK501T5H0BJbk+SGAIU8OAPKZkTyyBxvJdIkGCpDLs53yTfRHmx4ZTQhB1X1ICtprYYMFSXWbGCQk3GIqwk98u8kk0JaLoCwitJyiWDgOodXMEB1XDUCFhTlIZ95m4Y4AgfjO6YEJCGiwqer4QEk08VbUikkDq6iLm/Vb78dZ+FTGQ41w6PyqTdWfVJJ+HNpvD2ASLnlCmCt+Lt6hJi0S2Km7FqGS5aVlRUxoVJKEKa1D1jVOtkb7rVtz2EywaI8hOjI0UkmtJYX0PT2MBtV4UYBIAmfiFcoSUJZFM3hLU0y1enXiWa8gUO5pyh4ImVIDdwxHhctR/ShBbzl5mx8baUQPscmprqnKiLJGW/9Mb9hsPVqab26w+GtdiDsGz7NQ35fw0SqTrVhuFSE42tRnKBr1B4wVLK9Cj7Gxit1M4A2RU1CllcXUAr6QmQhaHmKOhMAQ4ojrWjQdVe48lBHOzdPDBXDU9TwDLrZkrELy1OQF62cPpstKp/Hnn4N6b2tZEfVqL1Kvwb6RILUeVVhSxuwSNJ7kxKjLrySJ9JTaM9gee+8ejF2VMQduqMdxbCZ5OnX2b0altbKOUuCaSELuD5DKTKhqlJil79TLlSqVKVkTaUgTClViuJ9Rm/6DlMKxsGiFUViK/zgkl3q/fJrPfVa4shBItdUEEu8dz73SZC3NAy3PEVJuCQVXXk7Jha8ox1pHyqdUQ13Loovs1JBgte3UrCuaQM0vVsDhTrhU6hPxNsPeEgmMOaHHAU188BQikqaa7ZWK4WmQg5bTzh40aZReVWyAwb8So68+ZW3aikHIX8eUTRi+CLWCwhR4TkIQjX6GMpKwRnN2OPRHPgUVm+OQcKHyGuEL1KJwu8jZ670DKYqSYsJmrgprJScOm4Jmd0GgvyRNNc48GasRTs8yiBeVwyYmN4vu0fDFAGwWlwVgtfipi8ReMvGenEtXpbhU2TVrbXeCD0ULlpJ9AQvGd4It0fdnGG6LL2z+xSSGNqVW6oXynxYtJc18Ta1FeVWVqFm01bOAbGSHcybekWkqo6rNW0lFBuERrQtZCxdUXe9IVdV2T5Cz5wsnNSaL2WxDiNhjIgLaMGHAmDVTilCFlU0qbQp0gjZVorV4Qt4ixVc4cZN26J4ZLPSxInAF3SqFTjw7JkR56QIFoaXWOwQdSs9thU6BbwzcxfWegqpFN5Weq/rjjMsDB6wOVaV3tuSoYIvTEm8IVcEtig04cNyaznZtAFkyDDGpQiV8h1WfQEtt6ysGd5wz8AESsavZUrhBYOCDBDLO00hKz6n1cVepJWV8AgLR0bUQwpgL+ekAmDPKHXsmuBgKYHM3gi+5FBLz0awScJ0PXhn4cNnV9tzkUyZFDiS14ubKZiR/r6gdCSuOYSUll4xwMBIVcAVLOzWuEZTVy28jQbMJq4Bicrm9DoiLIXMfDFkBqjFLGhePHFG0G2FH/JWiWUNELqEbMrThX9xy2sJqY2DDVPwuqpTXe6yzYYjes9yaWouDq2U1OuqXB+05c2+LKrM1UtRscJ+JPAalGBWSnkW8Z5a1KUZpl25tfBfu2XT4svwyPAUmaLlD2n2SdgDqY4JT/g9ZWXNTmoJDqZhCtCc3fYwb5Mixym893qlncQzmFL2+XNCQdGwJw4seVAMzJGHnrxsVgDxTg6CLbalSmG5PkV36ZZTJL1miLmcExonnnMvYOt5ANIjIFScQQRdhqwVk/OpKoZBIB1te6ayp08tjgi2yslzYRw0MIJ5Oo4ht7khtTyMWqNt0N9qX6+nkDJFTAYxhpJvkZnnl2zwdprMck1WqCE3rVIDR7avNBDKvkegWOZHhxJ8hqcPVlNWtLBZVkpaVUaEUvjDGy9oMSqBJG2qzlwtfa3rsjveHL2w9wvRUbZkZg5rzYqwecAflY9TRAF1M9uyp2JrKyU9i92n0BrMV29ZCIU8kGFlg2gxN1jAVzFQZFopYzRVT+uQ8IdxYN94Y5wCBAeS9XAGESozTTQ8Jfe4gQ8JPJUB4f0olIYoWdGHHT5B8ASVnjrz1pzcFR1tcR3BeJnzoIa5VEzTjLddn2W1SpRCELugqq2N1oS6Umxkh02BW6EoPCIgVoqHZ3qKRMD2e6HYFZ5CXVTBH/ACViXBqKk8ThGGyIbfABVAICoxxlHUO8Ydy1tb12w9ROXwvM+ETHLeRrpy3lCAEKUaTX+UetWAy5IMUqgSiwdfbWmrsKphlRgFDeSt3UiYp2AYcsNkDt4pUCuUmnme4puQKocG6yjNJayyxhx3y/3LKi1DWzkfjUBPnkcFBo7VJ90eFRPGJDWCbSFZxhAjvlWdPEF2/YjDS+95I/uUu1Gv6wMUA6ycvnxuzX2yhMqySmEciCHilXNi8E3rinfYNyU4+AwHwReGQ3Ilx1pychlCluPA6i5wos/5U6EUvOoCfqHoSv2MZEdw6k0KS6QAtXxu4HYsPw2Uq1t5B8Uge/KMFCjb0vLwiY7x2t7GoG45DoYM2pV6+3nQqha3Y6M2VW+gBvNezVF5jmNJP6ms+MK4mk0oGdL1Xt0my0KGqT0xDFUUwkuFTxAykdYaHKdQef8aAmV5D1qJk8gQhDx5KRR+eL2+WYUazJ0LIfNJ7S7dmr6Ot1N7V0EIAbGJVVMiCm/HrWz+GtF6r/CxDRFMeJnp1d4unZhJcfCMmCUqSenLnnBgpaew1pDoZE4xIs9vV2U1s9Y8mgU4xpkE7ANXcl3stECbc+RVD8BloVk2Fue9TslKSDzgXfJd8sfnDFF7CnjAuQorkn9IAQvjld2KnMNAs4WVI/OwfPYcXJgax5FLoxifma4x9cCn1Ti7WdVeQUFrbIrSWkNOa9atWDQP06i8DUsqULAoXLEHvEtrSH4INnj7jIysDo+cKN6U3ApJJnIk8W3Si4ynzmSIz68zrJPb9CQKDqzkfk5GX6IUqVuW95LvPZx3ucDkpPA+P2CD4+BMnOJMyCmDBNgFWh79jRauXbgEP3PjXbh56Ur0N5roeo+TV8bw4slDePH4Eew8ewzj7TY6cYzYxymKmuC5YXAJ/MhBJ+JWoFOQgCq7d4hTekcZD6hQZbFVRGlG6yro69PK6cEu2Tu5UFL3mM9ISJ5z/RXC5ACfEjKsg5mVdynNfW44cqUhQp6jRiyF954fopO3TcbAUrmCcU3to1v7b37T57Cqk4E4V9jJOozGnOCRPOFHUEReJ5eaYm/rZKAaJxlFxslGFMoocpg3MAs/tPFGfGjrbVg4axgRFRp4xLHHTNzFufHLeO7EITx3/AD2XDiD0akJdOIYXeo5HIOWAXVVOMiTjKxTdIgrqTx5yaS5gDlwkhFhRxBe87SjUh4Y9JGnGfUqRwGZye64tf/mN73Go4oZBeSWUuSAetGgkoVqhtRBhjMk60NoHKyjpEJK0XARVs9bgF+9/UFsX7EW/Y0mqor3Seh0/PIoXjh+EN85vA+vnj2OdtxFnmlRCmAphBQwC4cC3tLjyZhCcCLk71TwRfKgnlJrHFwWZpXhZCk1a563HdWRK2VIjSArw4EphOZCxdlehlIEmGQJgLeANxGqslI2Q0yrq19MlSJjjsNIXz9+ZPPN+MjWOzB/cAitqLdjNGLv0Y1jtLvdPKz63vFDePP8KVyemUr7HAGlKPTZpjdQrRSS5hHlkOElRMxfeV6c5IHJkzC9LRwsnBhn5TUp0VV5CSIhKc2dc3Brf/8TnnJDeQoDobCS8EZty2VodJWWB6ySFT4VP+soNXG/Dmg1mrh2wWL8/C334fblazDQ6oMhCj0V7z06PsZ0p4PTVy7hpdOH8fTRg9h/8Qwuz0yhE3t0fRygueUpynGo8hRSCUmLYR5JAQrxxTRErgJ+DqytANa93pTCVmqNl6kQlW4NqO0pgNStWUzqwSrZp1pqz8FIZQqVhr/hIsxq9eH9m2/Gh7begSWzh9FwvR+uVFW89+imCnLq8hhePnUETx87iN3nT2BiZgYdxIjlJKyAkJk8QEW/KJKiVMEDpRgVfbi8SinNvYWATlyzVsqUQhDlavqlhUIEiR9GqLfwSQBbhyG1OtV1rBS5J64HWi3csHg5PnbLfbh56Ur0NVtv2yvUKcm4g0e728Ho1ASePnYAz588jDfOn8LY9CS6cYxuHEN28KRiF2Q16B2yqpG4J3jgKJ29h684MtgKR4LRhXXvKpVE4YV6He2ykNyt+f1/5iXwloBxPMKxoMWgggdVWl8ROgUZEHDTJcR3iDDU14cPbL4FP3XzXVgwazbqFu+TZY8RXHVOv4fSjWOcuDyGF04exneP7sPucycx3p5JB6XCAlVJc0lW1qdIPo6cQ+QiDDQamN3Xj6FmHzqxx1h7EtPdLjpxF3GeqqwIYcs8s8GXOtk06btCnsJSiORWiVIQ+UsVIrtEUIDqaXjgO4NBrEYl3663jp6Z0s2HwpTV6ms2sWnBEnzslvuwfcVaDDZbtQTbA5jutPHcsQPYcfIoti1bha2Ll2O4fxCNKBGot6seWYe842McuzSKz7/xIh47uAfTcRtBgTGuLUPE3knPOm9GDSwcHMLtS1bhjmVrsWH+Qoz0DeYtzXS7OD4+ijfOn8QzJw7jzYunMd3t5IPSPKLijMyzSgLoKmNVKyy3og1SdOq/wthmZFvzr1OFCABrxej54160XDIpkH40gQ3cs645AzgOUeSwYHA2fnjTTfjxG+/AvMEhNGtmkDrdLk6PX8Kndz6Pr+3fhfGZGbQaDSwamo2blqzEvavWY8ui5Zg3MAvNqIFG9PaVw3uP0elJ/MeXnsBXD+wio+F2R1XSPHJ0VJsbIucc5g8O4dG1m/FD67di/sBstBqRqdSx94h9jPF2G6+dPY7P7X0Fey6eQjuOy701uSdhq1aK9L2ADFFjKswfK0oxKjKYhUJYH0hkPMoRrOE5SvsUauwC5YoiXXcg5HNw6G80sWnhYvzS7Q/gtmvWoq/ZrC2wk502njnyFv745e/i0NgFdLpdhmPkIjSjCEuHhnHD4hW4e9V63Lx0Feb0DyTK4a4+tPLe460LZ/CLj30aE+12SUwe9hSyT9FwDqtH5uPj2+7DLUtWodlo1KZF13tcmBzHp998Cd84sgfj7emahokqgeXB6/cxwiE3+xhAjY62qKsx56E7P1kndaaBlQAFgJf3VDRUFULV6Fe4cB/CAZjV14cPbLkF//ydP4SNC5egFfUgAHGMr+7did976m9x+sqlJAsk4PVIUqeXpqfw1sVzePzwXnztrddxdOwimo0Iw/0DiQIG5+eEi3MOA60+/N2h3bg8M01m6lv0JbiTd7zj0xhWjszD/3H3e3DDomvQ7NGTRc5hqNWHbUtWwMceb1w4jU4ca0srDau3+aRxCI+9MC/gKmQoLQW5rLBa07qpAsF0coqcjKZbEJP41CtkPlTBmnzeTeHKgzPB0qfl0w6ND5KvnENfo4FNC5bgF7a/E7ctX4OhVl9vdaXVnZ+8guluV9HAmieINLV6YWoCX9v/Or51+E0sHRrBTUtW4J6V63FD1udwkcqdh4oD0N9sWYjCsDB6ol/eS/SYOzCIX9n2Dqydu6B2+1bpi5r4JxtvwqmJS/i7I3vR9l32PJtdyndjqZ4kGiKul8SWv9h8LV5vDCTrHBx/ak10bAJiIpeoj09GS1E0gM0mnmWTudRkufzaUArGt3QyGggMagKgmALqPZtMFzmHkf5B/JPrbsJP3Hw3Fg8No9HjaDNjUTrHOoG3mGCXwEwmOToyZdkDbd9Fe6aLg+1zODJ2AV/fvxuLZg3hlmWrsX35aty4eAXmDs5C00WV8DmfT7IuBJzxiLyY8sEJAeprtvATW7bj5iUr0YoaV02PrAz39eOjm2/Dvgtnsf/SOT4pk5OpkIOMtWJCIJ3Q6D2d3SwExPGKivqTe+yaCFGMdPEPmRBo8blJrtQMTR+YIssnP0qE5ExZy1MU9eVCRpRAClkGrJqhqWbEegw0+7BxwWJ8fPsDuPWaNRj8Pow2B0vAU2T0TPBxaae0i04c4+ilNo5fGcPX9+/CgsEh3LZsFbYvX4tH1m+p116AEcXMX/KYzPSNXIRNcxfjvRu2YqBZPS+rTnEAFs8awfuuvQn/4eUnMBN3TOPF5EouN7BwSN/IZwMr48sRlZ5C2NO8SE+RgJfllJKbnDKpEjhBcM+myFr+ORz2GMYcwanjBA1zxj0RMguZ/mYLH7nhdvzUtnuwYHAI0dvwCgYmhRJ7ICJTsRn8ZCo2BGmyBS3d2KdjDqP4ypVL+Opbr1cqBI86bB5IgaLvNKMGHl67CbOafd9HmgCNKMLtS1bhmtkjOHjpQs4XNaXf8Aw6GPbEs5VRIZMRn9bntCgFwyePsl5TM/aex5IyHCuaFkoB8LfSd6xYL/MUnigaeScmMEdkEZHkfSEUnOAODtcvXorfuvcHcMs1q2vHxh5JOrUbdzHQ6it/Mf0R+8wF831A6foJM04QSuFSJnY92cm4AlqpFCRK56BKK+qBeQMDuHP5mlLazHS7ePLYPnxx72t4a/Qshvr68cCKDfjw5luxaNaw+Y0DMKd/APcuX5crBOd+wTMt6XYPkUcbRfSRRTxZVbz+DNXC2DKeKMNqh+URAHO1l5cX5lJIufudvta1ZjGuuK8aJDVWCMzmhUvxrx56H25etrK2MnR9jJOXLuL/eu7beOnk0d531/DhM+NMfLxRQc/F3ovP8/9U9c45XDN7LuYNhEfjOz7GYwd34z+8/AR2nzuJqXYb5yfG8TcHduEPXvg2Lk5NmG0DiZfYunC5ACoMqwTVeuDZA+N1T2UoQMvAbXZilii5kWNKwbZDzKgq2ihk2+aFRNBo30ZVI8PX62YgFkL2sdvvx7r5i9BsVHcUvfcYn5nGt/bvxie+9ll8YfdLmJiZqvGdgTi79kLui2sLT5/hULfkFTlxbTGC7/vkAKwcnotGFDYWFycn8Jk3XsTo5AS6Pka2hc1Ut41Xzh7DYwffQLtrHnOCCA5r58xXG77BCxzT7TlYNJOvgTaEycJR8EDSu+CBF7e1ghZHKGQy6nkfIlOKiMToPGsg0huk4aIDRK4Bvg6adPKSl5wKNWJCrUil0qDCD+cd7l61Hs0aC3ja3S6Ojl3An+14Gl/btwtT3Tb6G80KW10IPO/CpPAmwJOd0p0ZPrFIM/0mr76XXn/aSU2q4D2GnN7pD9opnds/GEw5e3gcGjuPMxNXRDSRuMGZbhfPnzqCH9l4IwBtdJxzmNM/SMSEh7RSjmiyxkzCkr5rjlP6gPcxUnpTnqQywpafSpmRKVkCQxM+BkqmOoucgK5UMlT0Dwp9sDhfxLgsncYQTrAtei06Jh9OmVFW2t0unj6yD3/0vW/hrQtnERNL1WsWSmY6Iug+BUfLpzjoqL9OSGgyhSdtyhMbQHko6YFOHHMrTV+PgXa3UwpSVDFdXhlXq3MYSAzwbqs31mkbnXEmJoacqXGK5F4zaYwrBeto5wu2bS2X2Serz0261+Cps4IY7J2s45p3tCXt6g/Wee9x5sol/Pkr38NfvfkyLk9PJ54wTfNJZ2zWwf+DtACxleIgnTxAymuh6LVwgBHzso58wQMr+eGBZJQ7gKlzDqvnzMdw/wCmO1fS+l0eoTUihxsWLgsqlfcel6enmJzJDCDncUFP74xME0qymjZ3RP0FD4okoOSdoRTQu5kULxj7rlpweOMmB1H2IezrPJwLNqi4UOu1yU4bv/P4l/GZnc9jdGqywCuNX+t6B9VPMpIAxQZ6LJg16zI7loFSsNDY59bcH1dce4+jl0dLt8pZOGsI/2T9jclofj7XCGhFDaybuwA/uGFrcDAvhsfhyxdrENEWJL0Vv8QhsOu4QJ+Tw+rXSVLpPkWzaDM98Ut4CiDQp8ggygZUhOvmyk08A31HhB45Uln8l3uKbItBZ3idKh54nLlyOZl6kXo25pRrd2wLJjhkXlPHs2wEXsY2asRIhog1QPBiXAgyhE3hJO94xDhy6QIuTk5g6ewRs+q+qIkPXLcNfc0mvrr/dZyfHEfTRbhlyUr85NY7sGz2nKBX7sYer505BjouwAcoXdhzyGhGylX+jpAZtVcPCappBGL043j2n0tSU+aHvY+ZUki3ruLg3FWn9zLTl8X9TAkABhnsjbhUrOeT8ClSakCwK5MjLzIbFgNKK6C4i7EXGc+m78ZI1+GQfh1JNXCGVOCgvIka7RQhbPpONkLsPXB+Yhw7z57AkqHh4MzboVY/PnTdrfjhDTdidGoC/Y0W5gwkM3bLIBzvzODZU4c1TvkApTEEZyRsWPgk79EQ0HMq5hMXS+TK53znSivhi3z+dogbXodPvlCMAngHXksdy0vDJy/+6XrUprcQcARb4cFGlh7sqS/rK66DN73+o8jZa68a5obFVvvZnXa3i8cO7MZMZefYYVarD8tmz8GCwVmVM4O7PsbrZ47jrdGzmi9e01zCJu+Ubm9fLqbqCyukClzk98jerhT4OA+hshKnyyZpfXIPUD14p6Q3R5nvGK11MjTwUuzN2psQJfXVkmqTUAUORTxLFZnvhZv2Kbx9Gk4uLD2gENqaX/KYKRiJvzs+xo7TR/GdI/sqlcIhUYw6azhGpybxuT0vY6bTUQApubKYIpFRfQgvHzGaSzwtofdmxWA8yGimO9WMllwp1BwQk6dyG/hAZ1AhWMBnwkyAZ+dov52SKkldX2ayViitrcSEWAGG9wIzv9abEzO+EOsz2WnjP7/6FPZcOINuHNdqrqxMttv4/J4dePPi6cJQVVCzcoPo7B1jQM9gBBs34egSbRECyW2RJ3IqUufecGkgc23MLIWp5baQcQ22hCrw3AA+2D7sz4o+3tUqUX3vwpSCwau0oaoq1Vz9M/H0mRWx9zh+aQx/+MK3cGTsPDr+6pTCA5jqtvG3B17Hl/a/hul2h52O6pnlhS3wBrRWOz70llQKSQxXUZeHqb6RdN1Be0mUIgmfOIKlzpyGFgw6qq2m+WTA02IdLF+3mMd7VX5ECEtipuxahkvSU8RGReTttw1/vYMVE77tPncav/P032LP+dOIe/QUHsDl6Sn8xevP409eewZXpqeLNkrOL7O9gHy9ZNt6EWIXRCbhE/EKXkq7ZZjkQx8ahxBxn7dET3W2tafQp+iESFwFLKWvpxe1lOLqj8aSEFlIhO4pYhgnGdlvhwHp0dJ6dSe59jH2XjiL33nqq/jCnh0Ym56s9BYewFSnjdfPncDvP/sNfPaNlzAxM2O3Wxd+aJmxwr06FCfoGrUHDJVsDz4ZqQayVWo+T5eqsxwQp5MUyvBNvucpTjEcTza+CmRiU6bRdKbPX/L0Xu0cvstdt5xjk2wW1sV0p212IjtxjE435sQWI8KNKEoX6uv1zMlUA6QdWWMr/lrQU4Z7kSb3KZ3kOE6AB2mzHR/jyKVRfOrlJ/GV/a/jxzbfinev3WLuQuK9x8WpCXzq5Sfx7KmDuDQ9ja6Pkz4lQ8Pn+WafUb1gWA4/XSefp8QrV0QGFhQRnliDVGr+mTX+Rd7PZ8QV88jB87N5gy7JPqF88K6YfMbzx1YGnhMgQRBeA5+0WWgPQ6hu/J1ZY8GAdreLz+58Dt89tFeLp3Pw3mP/+dPJugVDyCLncNOSa/DBrbcXKcq8ouT7U1fG8H+/+DimO52cuPm4Sp1xFPm/ECr9QTpiUjZ3yAGxjzHVaeOti+fw4okjeHjNdWgG8iyjU5N46vhbuJx5BUcW2xDDlgoFUYqUv8y48jMrcpykojs63mWMUxhTVVLzUHIoCpGrfAJgIWdNiYwFbB07xuc/iY8IcMVPdoSfPmvD6BSJ4SzGg/ISnqLR9TFePnkU0alj6pkjI/Q+uaEY4uCwdPZcPLR2M/qNpZmx99h/4Sz+n5eeBNCBtko1KVyh+JWnMXno1ZCu6PTGNUKmbuxhww/Nk+xor4g8LZl1auKgvJ1e5mx5Pw15MUicsDGMQ0QDqRqd9RSuOPcWWYmM4WbVj6kcB5Adax4P+8CrvZY89CDz4LtxXCQMxL8CB9npI0LgUOyLavyDB49fER6nCMMs7qiOoxGTq09KTuLsiYI+j5BseDhwZd3H8qasvilvxhl15uImCMemdBjVRzAqk0rirS9FyYSH08ybSuBJEzwUKH6YpDQ63vWYmU69VskCSXvxTq4AWjELmvQmThYZ6+d5PGe4IXT2kcG8Ck3BejiYLPWB9yhy9LhaxgP7eN3K5IHROffqOQ00Q59KpfDJNHCWMvSCWMxgS4FJPQVpRCmGREgKPNcEBbyc1mHNkq0qmVCYTUmc1McWdCWeLAyFcV2zD8S+0pBAyUuFJ5ag14bBxoFnzwKhBhETCp8z6rUUuxSWXKbsWbHcXXjTTmfXUVCTQJ54cU/Bqm1cXKbFRCmK+pwQWil0pKaAWy4rfAq111VLK0WZksIT5HuPAlXHylqfMoESlrZUKTyMcYrCx9QtrFsocIi9SCtLwyrljIyohxTAS2/tebgXSus7dk0UxVIC6k28CJmYAgRiM14bgaVq1NPUJCr0YeEOItNLMWMk+sgrBug6rPCvfrghTbIczKtRQ+AqUwoj/LDeq0Hf4DvmiwUOsk9RPHGG3TSYWuXtqgyJ9+UUFXIofzUL4FPn5Yquoid7DrniYU5WR9JByRT1uCIly6pA9qGHXPWVPChSZ+RFFPfK9/DhpZgUKAAgaQxr606Z59dLIWs6CK+q7qlEUYSmixI8KLzwLCVX69Qccc9FDo2axwHwX/bag3zqO5MrT7JPrsg+Kfby7FPCE44jPzLYyACSmnJyGVlOjQPbZKDgrtwekC9oQT6wRpXCi2o4JQlCwXyyFsgCeMkGXnVvJcHJ3gggV0XjM44D20eybrsEXrn1Z1npixp436ZtuDg5ngtDqNSZoaqPzgLWzl1YcYwYCXlyIUsuys+iJoIHwju2jym4nJHRNJ6cl/XKwTu6JgfGOIS81tU1rZE89T7TC2dUVjDJGtGWOxvYA0d0IAewh7FTwqbNNaMIrYrdNhyAgWYTTRdhxsdaV1mbGXg6p88sVIqDcw6tqIG+Gjt+SC5UyDUrrUYDP7Lp5l773z0V51DjXD0jxAnk/YsReY46sdOixsIzSMOX0TuBk0cb9D3LfmtxtQeJMxFr5jeI29DhkyO35ea+KVC01aw/Edq4gIHGx9jl1iNMYAn2rUYDty5fjY/ecncpC/ubLfzW/e/Fn738JJ44tA8T7Wk4Qc1iIwAnuICgkkQAhvsG8fD6zfiJm++qVMyC9lcXOL2dzZq/X8Wx+FvjkOsHYV7s+BY9TCnyXSToiDYK42oZJqPBPLpI73kSxoNEME4KE9tfM3mn6EOUzvEw3Bp5LflZjHCHSGZtm2lpsBjTz11h5BxajSa2LF6Gj95yN+5dey3m9s8qZWIjinDjshX4nXe9HztOHsFnXnsWzx05iMlO25jOzsMnakcyBkUuwkj/AB5ctwk/ev1tuG7RMvQ3WxU7BlrJUrkZ9D/8kutDbkR0P0/FGJ4sp+W3rbehLow+naslQ1CVBKMm8kP1IdS8KlF1ITNaSfL1qrmGZyFKlL8jlcIXZoWAwQf2Gy7CYKuFm5etxIdvvgt3rtqAkYEBNGoefNKIIgwPDOKe1RuxbflqvHLyCD772rN44dghXJmZyecp5WSjiu2T+TrNRoTZfQN459rr8MEbb8emBUvQ32xW7kcEJIeu5J1qkRjoaZOB/4klOxHVFCohWcqwInSUAPEUEZU10a/zgJoQaOz8LjubPH9CwnriyQqzl2aZdB8iyy7xHboTOS9aUh3vpNaiow2KNO9FVHqKFIFGo4FZrT7cvHwlPnLzXbhz1fr0gMOrCx8aUXKaz92rN+CW5avx+ulj+Myrz+LZowdweWY63awraTvzdq1GAwsGh/DOtZvwgRu2Y+28hRio9AhFiX2ME5cu5nOFpFUSWcB/kCX2HievjMLHBAcihFzeCqUAuMyo8AmEGCR8koYJ+Tdg4VRSP+lTgGSfkpfERFN7LlSuxKDb4Qd63WXJwkD+wHyvKnyi2ZNGlBykfss1a/DjN9+JO9dswOy+gbd14g0tDRdhqK8f21esw43LVmLH8cP4wq4X8eShtzDZnkHHx+iLGhjs68ej66/HB264DdcuWoZWFPV8VtyVmWl8fd+u5Fw6ESOHqfMPp3gAV9rT+LsDb6Idx2AxQ3UMoiorlEJiz2MRM1lp3VP9DBljQcm1dySbKHBo2tnfrDHLc2TamwJPXR/JFlErm3ybZp9II3KcwiE5Mve2a1bjZ29/B+5fvxmtv8fOpHMOg80+3L16I+5cvRGvnjiM/7rjabx68igeWLsZH73lLqyau7BWjl4W7z0m2jP476+/gG/s34VurgwiEZFzrbq+/9HFA5hoz+CLb7yMbx/ZW/S5pDen+/nKkFvIUDFOQaKNtE4HgKan8n4pCodidrRFGlydpW0uSdBZTdKpJhQoaStINReyCdzt+XRCixNxtwMwq68fWxYtx0/edg/uXrMxOWqqR2Xw3qMdJxuSNRuNnjxKBODGpSvxfz78flycuIJFs0d6Co2yEnuPqXYbu84cx2d2Po+njryVH0rIO6FVfrUonTjGiycOpcs1A4pB0+KCtt66dvSexTmPCxNX8NzJI3j59JG8n0XHioLwB9LkjE7QyzXtLrZupTL7ZH9mtiFfY+shilgw5L58odHI3hOUYWMS3HMUCBXewgFYMjwHn7j/UTxy7Q0Y6h/o+Yzn2HvMdDs4cvE8vrzrZVyamsL7brgVmxYv60moG1GSQRru6+85NOrGMSbaM9h99gQ+t/N5PHP0QBJ+ZWuWSXbGpX205Hb1LrUz3TY+9cJ3sO/C2dRKp6Jv9MfNw8izl0PvBe55AHHsi8VRLPTOUp6pVwBY6CFzJfk90acAsr2QHBelbJoH9RSBbFOW/JB48hHt9L8MKNLxofrbzNul7tA7giByJbAH7wqlKNK6vFMtaMXKrFYfPnHfo/iRrbf2MMCVlNh7tLsdHLhwFn/9+sv4mzd34PzEOGIAX9v3Gh5cvwUfvPF2bFm8HAOtVq2MUEhYQqUbxxhvT+OVk0fwuZ3P44XjhzHZbhcWNbQ0khCmaodZj2QJ6lS7TTxEmr/LPy2kv6iNC5GruA7hLje5lkeucaEqtutP3iThNiOB1WkWITgAn2egqrNNuWKUnXEnmyVdBkCGTMFeTCCdxtNCpeMUOlMcI0KEFSPz8fCmrb0rQxzj+NhF/PedL+Czrz6HC1MTyQ4SaRMXJifwV7tfwrf378ZD6zbjp267F9cuWtZzGBYqHkCn28Grp4/hv736PXw37ZBb67Zlp886W61eoQFQmr/zZN4QMUx211TygKfJM3j5vCABsUwQlcIKJUMWIVlHuyoc0wMTkIofGqswb4hxhSa9E/vs5HdzWAo85rJiMI9inpCHmiyngPdYv3AhBmseBOh94r6PjV7AF3a+iC/uehEXJscx04kh14QDyZLHi1OT+Os9r+DbB9/EIxuuxwdv3o7NC5eh1Wj2HBYBiVea7rbxyvEj+Nzrz+PJw29hJj2nzhM4g+uDcyvqSuXElAN4EYpIpWBsSPgnQ1ghAGlIwJTCGVNruGcowiWXX8tTZsU7VGYMw8r27mX21bORPTOx5VCfjhk+RooW+cHtSHbY5iMGPD+bE5F1CQoFsBTQE6UIHYDX12xWIuJTITx68SK+uPMFfGPvThy/Mop2N+ZTtlXHNcGz3eniQnccX9z9Er5z8E08sO46fOimO7F+/iIMtPpq9TG6Pk46y6dP4NM7v4dnjxzElZmpvI/gqqyURkrt4l3JxfSf1e8oTkbVvocrhT5Xmwp1EBzL2dCUEplGAS88jFJiQJ2jncu9MrFFn4KdcokCXm8ZXw6vOXFThVPiSC1mcQAjG2JlDqRSeFKVY0pREMzYeiRQut7j4Pkz+Pxrz+Nvdu/A2YkryQAaobJVC4Uv6/jNdLs4c+USvvD6S3hs3y48sO46fPimO3HD0hVolZxPN9mewUvHD+FzO5/Hc0cP4kp7Ot3gi2bQKrrHpgUjs3zrFCKpKp0JIPaOpDNRNOgAO9kh+3ncU1SHfyLiCCpN6imEd9I4OKgjj0E9hSMDd2ARhxR41ecIRPUS7KbsBtjj8iSbEOpTyHwyUwLjIPYMoRLrGHuPo6Pn8NOf/WOcujyWTIGoGrI3d2Eo4AWAdtzFxclxfGn3Dnz34F78wXt/DPesvja4L9Nf7XoJ//6pb2CiPc3WuKidJCoEyN63qmBmrcK8X0ppUmGiFAGGq2SHscOKCtErlEKGS6lMOJev1kjxJmE4acgaq7TO15DZp+BuHqqjLfpJ1vID4umaNWwbJy43Iprsnmi01QOR6bOK9qY7bYxOTpD0pbVVibSzUkksUB1i73FlZhqXp6fLMMbY5ASZDFhYXbO/WCFQ9tT3GnRHYpSsnJTkSXZsgB1+BLI7sJCxcdCK7ZNFRojQ32hgsK8PcwYGEQG4PDOFKzMzmOnGiCHX2xOB92Bp/GImB4WXfhvuyVZc6lCJ4NQsrCrv9MVpOBIxz0ElwbJShlKILAZNg9Sxi97Ttbo2g7J66cHx9HATm3Q9WOX07WKCWs3MTQaLnHcjcagNStEvkqGGoi9Iv4J4bwm2SZUsJi9V1ITCDRdhuNWP6xddgwfXXotN85di6eyRfCyp6z3OT1zBngun8b3jB/HSmcMYnZhCx8f69CgNWEFz2VclfQodKNjZs8pZsnkfgsT7ud6kreTLfYTRtcKnhOlSKQq+BU+WryEI1vFekJ1SrquAiEUzoEloi9rSmPZp88GknGZa8XOhkvF2jZi8qn2V7Mj6SanEMyFzepZpaE2LxiGNwcVkuoTHyUcDzRZuXboKH73xDmxasAQDjWQQVCYpZrf6sGJkHt6xaiOOXhrFf3/jJTxx9C1cmZnK4UnayIxrAW9kKEUuQ+RMZDrNI9RXtZYDgzwHWB/C55UxJiilCFilwDWzQCy06FUpLCGR8aBAkHbks9tEkuoaZk/+VziQ5bN5p5R4Bpk8MGPc2nlXT37LWabG+9aSMtmWZI2a/2804D1m9w/gQ5tvxYeuvx0j/eUTL51zaDqHZhRhw7yF+I3tD+GmJdfgT159BmcmrhCe6BIHRIvdTr1FqK/qrDoIXShPIms7C0r2PIQyCQ7rc/Yc9FrdZi/UKrEJL79nbXnDYSNt99R88TI7tIXoit5ES6NobRFTrzhOX6Mhb/Ck2CLG5fB6ZEGPgF9UbeE0u68fv3z7A/jpm+7C3IHBnuZ7Oecw2Grh3eu34H+9810YHhgQCku3si8Ai0F4z/744gV2j+LgBU5aAbMtbqL8Bf7UyHx484w3kzfiQSEzXr/fmz7YxVvXestG631LYK0GPP0ivYitCiu+vmr8cuJDhE9lSs0fxApx014FaJTc6G828YHNt+C9669Hf7N11Sg1XQPblq7Er267H3P6Bmz9DgLmTVEq3wLRkHHDEBXrNQp7oeEgDIgNafYA2TxLWmPuGfR1dUnq5icZWbsDKgdAf/rMJsqzyOr3IZT3ozxgsiq9o+EFrmI6d0Y/6Veza7rPU25MhTeyztH2xrW16DUCsG3JCnx46+1vSxmyMtBo4eE1m/HutVuSM7CFolveUO0lCyFXIPz2/J4X1xaBI/GFSk9pycrcFwVeNlJHKTzFqbzUzEgpz+ahrgW6PXgowxkzpeBKIIUsAS/MoFqtG6EEfSAzk5z+vqTigH0QQjXY7MNHtm6vXMfeS+lvNvHBzduwaGi2gomDwMOn/MLTPzJ0MlC3DCm5F1We/xXoCgDUi4cZq8beeg3b2ad813HLU5hK4O0+hcmBOnB4IfAB6lvxrLJcAddtYc9/WuGPt59z4qS0I/CWhCPZa845bF64BFsXLv++rVzMyqKhEdx7zTo0oqqjnTl949A76QbLuZJIb1JC7iZtqkieeDXwQnJ8+ppxJctsUIY5NaLspTnroVg7BEZqsE4NL0EerlG3OCoZnmewsh80GxLJNeUc9ZyGdVOuQ339+NyHP35VtPofWWJ4HLhwDn++81l87/gBtLtdbFuyEj9+w3ZsW7IyuBa+6SLcv+pafOWtXejEM0QJC/qyBKIvMq45VdnKumyXQMfXaNPR04wRIgUb5RfWlizisrSjbX9l1Fnmo0OfVb9jnZCqwhvlKSyceHFwWDVvIZYOj5BDzGVIKIgsWrc2I/7HWA5cOIfffeqr+NahPRibmsJEewbPnTyEf/301/HiycNBTxg5h9Vz5mO4vx89CBN1BuFvYv0sFPEAKDk0zludK7lDN2mTPMjic9afk51So54SUFTsZR3aEgcazO8qK13ddiOK8Mi1N+A/vf9n8bO33ocVc+ahn0wdN8Mig9jBjvY/IkX589eexb4LZzHT7eSS0+52cfLKGP7i9ecwXXJg/FCrD8uGhouzDkGTHwXhPLv2pCNsMVP02WSfLr3H+hDscxnPeoANYFmeJO2Z5ppqIcBiZlJ5XWGgnXEpRIZSxCJG52lujUMVGK1GA+sWLMKv3fsu/OkHP4afu+1+rJ4zH/2NBhyTc8+sVmx6DW8ryj+C8syx/Wh3O8oTdOMYu8+dwtjUZNBLODjM6R8C0YeMOmJcwivPXJzElL4jeRJTxSindxQCsDgbwQ6ndHQQNreFFa3ocFYUH/pV43w0a/AuK1OddiUkLt01cNXcBfi1e96F//f9/xQ/efNdGM62xwkqOvdU3njnbY9T/AMpbeIBpFzFsSf7XtmlrE+lJLA0XDU+ILGVPE0qh9d70oeQDxUA0tfoFGfWboX3YunOeqIgXZ+oDzA9haSeGiFGwqSdJ44kU8trliiKsGbeIvzqvY/gsz/+S/jYrfdh+cgcNPPNEQoTxT0nxeEfhxLQsm3JKtZxzjuqzmH13PmYNzgrmKHy8Lg0PQk7I0ijDfBrUgM/s8+zgMI8NcIIWUsXGNdJB1odlEIZmU20vqhf1GeW5+JFnXln1NmJu/jmW7vx8rGD6bG59UrkHAZbfVi/YDF+5Z6H8Sfv+1n81LZ7sGx4brI8tRZO/3jCJQD4iZvuwNKhEbaPVeQc5vYP4kNbbsVAyWDedLeD0+NjuczVzbmU54KM0FiOU4hfjcF7b/kk/UhORksuHb0o3iM/2AQ1+k4WE7JDPbIvHK5bshzv3nQjmsaKNQ/g/MQVfPqVZ4k7dqRNCWuiNXInBi9wkK55oj2DZ4/sx8JZs7F0ZA5ajQacq7cVjnMOzaiB+bOGsH3lOjy8fgtmtVo4cXkUU+2ZXCnZcQKUVOn1L9/5UGk7k+02ZrodtLtd+198tf9itOOO+Gu/G/sYzSi8snDJ0AjWzVuEs5OXcXl6Gs2ogfXzF+JjN9+HB9del4xGG8V7j70XzuCv976GmW6XyRGXs0SYHBcAKnLIE6yMeUJmvORB8UHT2spDL0Chc/czBvOp12yRTjqOkS9Uye+lAPsUbOdqpVRZ2pi1mc4w5RRR4xRSweVyw24c49jYBfxvj30et7y6Ej93xztwz5pNGGzVn57gnEN/s4nV8xfil+95F9635Vb83uNfxpOH9uWj+mwhPUOuXPUm2238i2/9FY6MnkMceyYIQi4YXuk6YMF58dPJeoQxzGp0DjcsWoFfu/NBDLbsTSEaUYTty9fgpiUrMTaVLOqaPzircnf0rvd44cQhTHZmOHXoQp4sVCJrXdj0/XyrpOQZGxfKXqNT3QMbFzSTdqu27TBumUvnyFvhpXXi/fIy0Gxh3sAQptoz6RJSDkmuKGXteZ/iz/OudCcJ74GZTgcvnDiMN776Ody+YjU+fNOduGP1esxq9dcenXUAWi7C7P4BjE5OkIAxXbQDkEVX9ZILsY9x+OI57Dl/Jt00ufDAdOVXcZ1eqcFJYSkB03PTEpF7p65cxg9uugHXL1oe7AA75zDQbKJ/aBie0rykXJqawHeO7OEHw1P2qTsGi60vCuEA0Ybitti4wHt6yebZ6PODrdmBuqMtQzifC2PC2AJ0kY01S+QcVs5biD//6C/h5+94AMtG5iWhVeYmVMeapltjOyUrPuKJAY9ut4uxqQk8fmAPfu3L/w2/9IU/xWN7XsOlqcl8S/iq0vUxnjz4Jt48ezqx6IJlxXl39TsQsY/RjeP0gPnkX9cXv+l1fj9OfnfFveS+T/7R+mJ+HXuPTuzRSa8vTU3iL197HuPt6Up4nbFQyCqdOMaX976GI2MXc5ljSQeafmVkJNPEzZRs0emkcqf6GGSahwPQGLhn2ycBanPAXWvVlofEQpEXeDUuifzye1kfwjlsXrIc777uJrMPASRKMX9wCHesXo+HN16PwWYfzo1fwWQ7PdeBmI/c5bN73HOYTBIbc8ElROzEXZy4NIrHD+7BjhOHMNDqw/zBIfRVnAsxOjGOf/fEV3H88mhBf2G5mdVzDr98V7gP0e528aXdL+PcxDg8fDVPAjjB4IH4Wdyj18STnb5yCfMGh7Bp4ZLaOyGW4fXiqcP4kx1PYWx6EkAVDlb/1epnsNcBJCvtCpobOKYPc4XgdZYTvJL4JQyhMDvnsH7BYrxny7bSbWCcc2g2Gpg/azbuXrsRD264HkOtPhwdPY+ZbgfSbustGz1jbN2TOrNltTPdDo5duohvpdmoWa0+LJ49B81GpITCw+Pre17D53e9hJluB1RbRbTOyPzLdz0cxL/d7eJLu17G+cnxov+jeGAZJpns0Dywrgn6Ct6ZuIM3zp3C6rnzsXT2nGBHuaq0u128ee4Ufu/pr+HU+KU0wtbwEwhzoCwFqIWD4wqh7L93aPTdffMnzT0/eb0mE6quVbYJmSIWk6wiRPjRm7YHO2qy/shFmDdrCHet3oD3bLoJ/Y0+HDh/GtOdDgt/nFPil1/kntawQDo5UfQxOj7GiUuj+Ob+N/Dy0QOYOziE5XPmoumKcyMm2zP45De/hBOXxyzOMlio1apUiN1cIerzwM4AMva6ciXIrrP+yVS7jWeOHcD8gVlYN29RaebJKp04xosnD+N3n/oa96IWDtILEKBMxRb3ite1EbIyfo3+e7Z90gUeVilEPeC1lcq7sg6Y7MxgzbyFuHbRsp5OBnLOYXhgELetWosHN2zB7GY/jl26iOlO21w8nrdqJQtKvZ+2vLH3OD1+Cd89tBc7jiah1KLZI4AHvrl3J76w+2XMdLua+IrMhdf6lQqF+KvdL6UhU488kThUCJCEWV5nKc12t4NXTh/F+fFxrJo7D4N9/XBpGGyVOO2zXJwcx+d2vYg/2fFU6hl8DSW24TXTrwIfKQYejice2PtIFELGsxwOw9JS+A3gLdctEcqUotPt4rWTR7Fg1hBWzl2AZqORb3JVVbIxgAVDw9ie9jH6m02cHBvFdNxJxgB4Hu9txd/0XoxkysexSxfxnf1v4JXjR9CJO/jLV76Hk5fH8tQgJ2HYlVcrRNqH8PVwsAwVg6Ak/lZ9DEMpvEt2JN97/gy+e3gvTl4exUCzD/2NJiLn8gRAJ44xPjODvRdO4av7duJTLz6Ox4/sxaXpqQrPUMEDUynInRKl4H0KET6N/ObPZEn5IuXUax/CuqeskmRI8itKgRrq78PWJSvx03fcj3vWXYd5s2b17Iq995jpdHDq0ig+++pz+NLrL+H4pQvk5BuKg/ZGUZm3CwiMI9+2mk10ul10va9WAkHmvZ/4N0G8xmem8VOf+xO8ee40YsRFDVcRwlYLWSAcCXi7jH+NKEJfs4WRvn5cMzIH8wZmAw64NDOJk5fHMDo1heluB11f7MerQvVeEzglSlFOb/4+HYJlu38DOk8eLCLvX7rHUD7yQcIlOngHjyvT03ju2H7sOHUYd6xYh5+/+0G8c+P1PXXanHPob7WwasEi/MY734P71l2HT3z5L3F07Hyt79lCI2P8jO11m/6XZc+63iNut3OamLu35FUW9VSRmX5d7z3KIuusBLmVJh07sq7zT1Makwf5n2ROWGdmGhMz0zgzfhn5Sh7nggpQCS+SuvlW/OJ8CtIPU+MOqv4Mh+CHhezD01myxqACS9fLhfom/8DWU5hTmPhNH3tMt9t45vA+fPwLf4qf+Yv/iL/d/QrGpibMBUCh4gC0ogZuWbEav37/u80MlrWeQqdkjVm9VQupKE6SSGqcpoKG5eTNx3kKnOqM+pescRF4m/N9xCQjPqEuKcmWlck4hrUkWRFEjHdVkVfJlUlGuiVP0YhjFft8KCK71zTqoSekMhJVRfbmiDfk1BGxbabLiJi26ZMsxOWpKTx+8E08d+wgbr1mNX7ytvtwz7prezqWt7/ZwjvXb8HcwSGcHb9cOXoudwdkAi066Hw3a+E50ntkHBza6nJ/UV3SnRUJDpaHkZujFWdTkDfJbJHsaCwLfsA+c9oio73NJwdSb8WfvEBhyxS93ibRnIJsiTDBgdLcFw0XOBCwm7nVchywBMliy8aMEjQrQxdbyO0Bq46S0odqc4bBAZ1ujMvdSTx1cC9ePHYIt16zBj9x+z24Z80mjAwMotmIKpV0Vl8fFg3OxvnxK+jCq7lPPj9MkB8uD5BtMyWTSLjkyLUWT+mms3v6bISqknllsymJk4SCKgC9md0hPNA40W0zrTiyYGbmKZKww3HFZzbBOEZFVF33uF3LCGkuQCuJeJDtmt40g2VJPYJ3wYDe4kF2ik5ah5cjj6DbZvr8QTeOMT4zhacO7cHzR/fj+qUr8DO334/7N2zG3MGh0kE9AMngmXCtOszU52Kqs7RpXkL0IbLNdVn9VNFFtosrRb1SsCM1OvKgQhbzJ/TP+ZDCoydlajby+oT1RaEkgLCynJlElArPwI7XJRVUHayYhUrJJ6RjYyixPJidBkvcm3IcYp/vuuHBd1cusGOb5VrYCgZwwoowS+leSmzniIBqt5vJVgyPqU4bLx07iJ0nj+H2lWvxT2+/Dz+09dZ60hQb7TMvEJvZJw5/wErCESV25qcQoUat+Y+yErOzXwQNSRvcW/M6ZKPkGEeyO4rVLeWeIsEzqU54G8v7GXhqVNJdu9GjXFEupB1vIBA7WIwgNTRZjOjFXPIUYn5SqSOzleXh7GLwK9Xq2pv75u0lPyKDuBl8M902njuyHzuOH65UCJ8LB1Xi1N4TAXGAucUNwPsV6rgCJQdkgrmMcbgLIZ6ivDSiCFHk4HyUC0zxWXERmmUA8DDWpdNS4tjnAsQFJkOFhz7erpoxUB0ESb8WAi8FlMlf9orRN83lisArT0f16XMa7umeGz9H2zz6k30kEVBUlt8a2uu1UjANlvPeU2LGQilknqATx+jEM6gunv+mrrugVfGWaR7BFZ2ShCiBTBZIp2J3hMuh72s08MEbbsOFdGDOojsLCYISm77jkjD09JXLePHEIRy/PJqsd6YhbCBG5+FSodRZvbZSAGor+3wfJU+rLuQBRj+0aKS4J0Mqp3onihG62+pzHJq8XgJ8+jKlLd2nXwEPfi+oRFTqQq6QMCBOryNJh5yK9YsI4/kFMU2kJ0Nw92QAx5NPKMH50VKhQ2akVaoqrUYTP7r1dsh5TG+3xLHHicuj+KNn/w5PHtqHyW4bliWwOto5H4JxiTwdVVoR3pTMyUkeBYL2/KUyJbCO8ipe9+wyygJTtYuBRDC9Vexj6sWbxTtpjawatVYWReaEfJSHyQoW8aAn0fDF3xw2Ba8Ezl5PoatmSOYGgtYnceRwaYyt0ogiNKPG9/VfX7OJ1fMW4l8++MN498ataLoolQUNuFcwG2QuxILQTPOi6O8YMiLW5eg2vKqPbwCWfBfc1rOC5mJfJhPywLXRjvkNQdD7gNMQQsWQTX6w8xgIsrXH6zxXAhsHQ0lEsfaShXpX4iAHw4Rx+P4a/p6KAzDSN4hfufMhvHv99ehzjYIWAkgLR7VxGEc8pZneXa8UZbXhnHxcoSiS1VmfIsMhR01vhhZJrlj7kBWoJRdsVw1LKQRJvFAKX4GwFqCkNr5tIZ0+V11s3dZKIvfsyVfekXesrfgtK6Qx0AzoYQD+760457B4aBifuPdRPLJ+S57GthSWG1jbyISjDWHM6A+lf5RDdTeElsWHfwauI+5xCiZ5iTDRKh0+CYQCQs4vtb2x9nniwOsYpw6Z8ohJ4KTCvQAOnmCblUpPYbhyQsESy/s/pzjnsHD2MH7j3kfwgxtvwGCjxQ0Twcdkh2FY5S6Nsfowq93r+oBSmbF2TffSkObhk+YJN0zFo4giIIs3fjlxyz6Ag39Tq1h9DAjgWZscoYrKS5/UgbdO+GS6cuh+Uk+g/w8sEYDFs+fgt+9/Dx7dcAMGmy0jCrbiVClDPnBPhk+0E10d0ooK00ttmLSDsiq1GUEONjUqEFa0MJrcc1ghlGVlTY02dwTk1xYy8uSe0iJClMJVG0osXDUjjQidAOOMCu81Q3wg/g7iaKCQ0ur78a+sOADD/YP47fvfg/ds2JqET8Lyusgl6SXniqxgRjdPa7KVIpEZLkPMMDHdECGswXPrdCbrHD/Ls0n5IMfyevD9gTysKQd6RLtqmIa/Y448GvNW2GhGYJwiG0mvVXzFMxfCJqVLnslLlKJ8RNvr5anqXjntaOnEMZ4/sh+Xp6fCAVZFDjd72mw0cPOyVZg/a3Zp67P7+/G/3PUgprsdfOPgbvjYY6DZwtyBWVgxZy7m9M+CBzA6PY7jY2O4NJOud4hjMXpdTvOgnOkBLsKD6rGuUKNJNS7I8yZNw6oBs+yuHHhh4xSpKpO1DZFsSYxL1DrI3JjTns96zEInV1+oeH+BzDlyBmXElA7rAHrv07GKfB6MPLTFw5oekBijbFVXkSMvK9OdNv7wqW9g7/nTyU4j9JucrMUItVzoxf53wAPrNuO3738Ui2ePBGcNOACLZ4/gE/c9iuH+QQz39+OuVRuwccFiDLT62EDzxMw0Do2ew7f3v4EnDu/FqSuXMRN3GX31JMdiM7GISCcjM7HRV2NY9fw5gP0kc6GQ6kEz17ccTqoAHrSmoj5LiKAVQCJkzSQTCOUjjVLWLdnPFaeqFK5bTWWmmFF4iRIT0pTCryYDWtPh1XW9jsRMt4PJdhtdHwd2kiiusxKJ60QJHb751i447/Gb9/8AlgyPlExCcFg0NIzfuv/diFyEhovMbXwGmy3MGxzCDUtX4iM33oFPv/Y8vrJvJ0anJhTzFA+kp2A8AdhUcTE1SE0VCtCcTR/y0IuMEpcPD9KHyCw+63mXdnBkV7SIt62TIs1iddCMBS+yT+HlvYriTZysQLKqUyd7Ajpgq+xokxTt2+9Te9XPM+EV/cd23MU3DuzGHz3zTVyemixtwQHob7TQihqlG49FzqEvamDFnPn41bsexifuehfmDg5CTFoyiRsbPBG9hhIeaBlSJ9Iil3BWvwVRycCcbL8QqLCMFB3VYq8kTwCwOrJGk1IpDKFy6FGgqFII4FWHl8IrX1Cjq7ZSyENbrK34XYjmNlGQQ6VobiiFz7bhNxTfe7S7XXx930782+9+Ne2bfP9Kf7OJRzZej3/90PuwZGiYn9GXwS/kKjSinXkG9raSZqcI6QI0l/T07BqIiuNuyAtCePi4hETGBxXJOtjc0vfKkccUMs/quQorS3WUCYhRT44qt1qmChnTPELN82b1Ubq1UTGUwmqQLe9kQgZMdtr42t7X8fvf+QpOXR4Nd9ivogw0W7hjxTp8/PZ3YKR/wLLrqrAtJwXd9JQOb/AoLGfmTc+/gfeI4tB3tirm19xQFulMokYJkqQxhlCNHL4GXodPdYuXFbHPDStLYLTW7+p5N5pUcXnMmStFHSw4ulZIa6TF059SKSgPJtttfGXfa/j3T34DZ69crk3POqUZNfDIhq14cM11aEaR8AwSn+QfPy5YxDZK4Hm0IRUH0HJljxUVTUQsEo5ZU9ycZG0xgEW1Af7HRss58IxARixYqSi1xalCqDzjQVIcFyCBo7ZcxjgFSPhkKXHAKpaiK8MPwQNlJ5XgMQqg3enisf2v44+fewLTnXZNOOpNpxhstvCRm+7AvIHBnIoSfolDbFTLQhumBBZPNKxl13TsKVI1BD2/GSyYHW8r/JAnCjGEZDNldPZv37GH+chDi+x/h3TfpUYDjchp+KRSGFXy133lO9VIZJDB5oFSzBLDBMDHHrMG+hBVbOAQe4+JmRkcG7uIU5dHMUl3SjSKcw6r5izA9mvW8TXqYRIW8BrSLT0D6LUwdmU0Vx3v1NLkA3MxSMow9uTAa50akyl2nUpLU7nZEZ0p4/JVy3l94DG04+EJXQrpKnP8FYURl69PsBa4JJtvJUqwfHgu7li9Ae9YvwXPHX4L/23HM8lJN4HBvGyMwqNYfVeZkq2FQKGm4VVf8l5GzyQ9ae+O4dHfbOHe1RvRKBlwnO608dhbu/CXO57BobELiKII1y9ehp+95X7csWJtcDeUVqOBe1atw2P7dyH23SC8DNeUJ8maiuTaG68VPBBUMVKyFk1zGU8/LFbMObJ0EyjO4kpxdJZS5A+oUJnsyhUjTuuIrJPnS8Yp5GCevX+rLpFzWDo8F/vOncJkO4aRfiaUdWg2IvS3Wlg+PA/bV63BAxuux03LV2P+0Gy0Gk0sHZmDz+98ge3sbTEgXdrEitrNg467VJU8zPZ5zhwGD/TySz6gCoDwAHldcwcGsWHBkmBqNfYej+17HX/w1GO4SPbJev7oIZwYG8MnH/oRbF+x1vy24RyuX3QN+qJkZ0O9m0cCj09lhPGEKXEiI5bM5ErhC5nIwilrjXmx/JSLXTO4Sg30QGxrUCXHRPHNGlSRUz34CrTiOy89Q+XAS3m8Mdjqw7/94Q/jj5/5Nj6z41lcmp5MR3sT+KN0f9hmo4FFQyN4x7pNeGDj9di2Yg3mz5qNKEp2HM9avG7xMqyfvwg7Tx1NhYIqgS8OHs+FtmrjgmL3kbISA4WFJJKkPJQwXBZ32CPv4aIIK+bMTSbzBcpUu42/eOV7uDA5jpjwoOtjnLhyEX/68pNBhXDOYeHQMGa3WumxWR5MUoIOv1DiOtM6CtSDIQy5xY+Jy6bVNHVlyDU4BpI0VETWMxN4tJUyYoi0YVZ/WlW+7xNcEKGrn7dSMGPZnPn454+8D3evvRa//60v482zJ+G9R8NFWDFnPu5asxGPbroBd6y9FsMDg8l+pYH6B1v9uG/tJuw6cxzdbtcYgdd0sDYuiHpQao47hBkBEZpiIy5qZbkzpUapOP9vzsBg6c7d5yev4NDo+eIQScKDTjfGS8ePlMIdOYeR/gGcnRw3ZwwUpJNThTIYinqymRBhTwElp64qzE77FPkZc2pKQUBtSejNGyS/pCfxDG9OBLkbEovpclitrUiKWsYmJzAyOIiy4KPVaOCdG7dg7YJF+C/PPYHJ9gzesX4zbl6xFguHR9AfNdCIokpFi5zDPeuuxZ+9+BTa3UkDmgDtLIPdSzE6zswwIeQPWOBa8In0KRqAmdkBqbfpyo7IcuhrNlFVWBskIkmuQ3VLefH0WDhTCeoqhSVXTfKUeCcBQL63pSQ9ya6IPoRSSOb9DKuqrqGAT+onbi69fuKt3Xh0882VTGk1mli/cCn+xaM/Cu+BZiOZn9NL5zZyDluXrsSqufOw60wx+9TR2D67RoGDR5zyPpkQqLa3qVPY6Kqz+3WiT8fIyMjKlWJ0chyhbJFzDnNnzcaWxcvxwrFDRciZ4txqNHDf6o2loLfjLkanJuBzHFJ5KUDLfzjRJ5ITP4vTXEE8g/QUOZVAqq70FBFLE/qkggK45BcfpyD5jvyHZZvkAXgQVq5IlVkbF2Qd1aocnfce/+Hxr2PvmZNo0zOOAyU5PreFgVYLzajRY6YnKUP9/bh/3ZZkRwma7lM5co5z/cDIKpqGWR+bNuQ1c8gsAy+rSMnucWxsFOMz4S19BhpN/Pxt9+OakbloRVEuzn1RA9cuWIyfvfXe4Lex9zh5eQwT7RkUh3lahNIj93rwrgZpmCfyXF5U/Xw8JZJtqI0A0hqkUnAAwlzX0z7kiGpRbT4uyBD0oj6t4a+dOorf+OKf4YXDb/W0S/jVloaLcPOKVWKbywABRM7cg+86rhYYGcVDiIPkaugeo5u+poONY1OTOHjxbBAW5xy2r1iHf/XQ+3D3qvUYavVj3uAsvGfjDfjdd70f6xYsDrYd+xhvnDmRTwk34c157u3nBj35qLagVqlh8jabfDoOIbMhPu+58f148t2K0nGKPC6l/QXVqUveY1ibCDrA+Ib08QkzefYpjmPsOHEEP/anf4SP3fEOfPzeR7BgeKSnI7pCJbHCMdrdLo5cPI9nDu7F3+5+Bc8dPYCZuEuiPBecOm7td+d9nGSvXL3jawkrRfIDom4ynV8E0nlIxXZpS35Mddr45r5duHHZKvQH9sptRBG2r1yL7SvtbFKoTLZn8M39u9ixxkXUJnuNzpIAlRiIsxQy2FHTtcPyPCULHmKlA3PG8LTRT2SSmZnzKI31JF+sOmo8o9vih/sYugLvPSbbM/jPz30X3zu0H7/10A/i7nWbMNhqXVVYFKfzfE5duohnDuzB3+3dhV2nj+Pi1Dja3Q46WQ/RgFEqAY1dnXNoOIe+RhOLZw/jrtUbcN+660phyeU6jZHYhsWuUBOqBCGlKGiXik1qvLpxjG8feAMf3XYnVs1d2DO9yuj4xtlTePXUcTJ2xAhHaJT+ylLKLBgICEzep7Beq+qr6nrLe6Gk45ojmFYgD6MtJIF36vLkKcknO6r1VRqN7Db3JFkfQwr7ZGcGO04cwsc////hx7fdjZ+/50EsGZmHZg/eIvYeB86dxh8+/jU8dWgPRqcm0YnjZB9U8OOyLGtWMDjhaOTSI6caTSydPQd3rdmAe9dei1tXrMW8WbN7OzpMG/f8vrRZ3IkEkh15FR6nLo/hL3Z8D//svkcxUDIm0Uu5NDWJ/7rjaVyZmdJI5I37FH4uM8XgnS9wqhN9yGXOchtNmbgmctRkOf/MUzgi8nkP3mkYADKira0Ud3WF0uQCngJf1FkoQZFJcPQ2AJ9vPZ/ArJcNdr3HhYlx/PGz38bTh/biNx/4Qdy1biOG+wdreYvIOayYtwDvu2k7Dl44h7GpY+h2u6RNkakB0eVUy13k0IoiDDT7sGxkLravXIcHNmzBLSvWYM7ALDTSM67r+K4sL8MECIBK44GGrOQaYNs4cp4UAjTd7eCvd+/AtQuX4QevuwkDrbenFNOdNj792rN49thBdONYZQgTOZPaS+WM+FrL2BIexGl9+WCytZesE0YilzvkFqYR3b71k/acD2F9xRQD74SukR/aIzpmVUmV+XU2ks5sRH7PyU8rDxh0zqETxzhzeQxff/M1jE9O4YZrVmGw1VdLKZpRA2sXLMIDGzZjfHoGe86eQDfvFDoT3mQjCodm5LBw1jDes/km/Nq9j+BX7n033rtlGzYsWoKhvoFkJ++6UzYAzHQ6+IuXnsbFqXH+gApUDoaTP8HeEjRnzPCJUrx04jC2LF6GFSPzKif7hcp0u42v7nsVn3r+CYzPTJs8ytoVomLgIOGVMpTcixw98YDLTNIKd4+W3Dcat2/9ZOhh5SmWgIpnGQMEAlVKwUGQ9zh8TnE0TPBOt4udp47h6QN7sHxkHq6ZMw+NRqNSIJPTUQdw55qNuG7xcuw9cxqXpvl5d0k45NDXaGH1vAV4aOMWfPzuR/DbD7wX792yDesXLMFQfz+iqPq0I6vE3mP/uTP4Ly8+lcyf8gJPmvwg15z8tgBZ194lCvj8sQOY0z8Lq+cvRKuH9HTsPcamJ/HnrzyDTz3/OK5MT7HnzjSkEt4KnKicsegrIGeMXE7fpvRpffxDnjWvdCCiF4Y2Jz/yt6J6wJcpCVMCZDtIB+CjCAaYlt2PXIRFQ7PxkVvuxsfufhALh4bRbNSL39vdLk6OXcB/eu47+PxrL+LK9CT6Gy0sGZ6D7avX4eENW3HTilWYPziMVrPR84CfVWLvcXFiHP/2O1/B53e+kCuiZagsegfv1TFUkcOcvgE8vGELfuqWe7Bm3kK0Gk00nD6cPUkdx5hsz2D3mZP4sx1P4fljBzHRbttyJT2bxIlZdXqvynPklSf8Nu6Zhp8+b/3Sh7xWAglsJGswgeVKIVByqcti3sPwAlYbDEHDFSoEFZVynByAvlYfti5Zjl9/5w/g/g2bMatmGOW9x3SnjSf2v4nnD7+F21etT/oEg8mZ2lFUr09QVmLv0Ym76HS7OHThPP7sxSfwpd07MNlus/SsdS54XavK75UbplYUYf7AEO5cvQH3rdmIrUtWYNHs4XyaeLvbxfHLo3jj9Al8c//reOXkMYzPTCP2sfBMGl6nBc8Mn5wCi3iZ7J0qpTC25OF/km9c65d+zNcJR1hH22IA+SbikJhMKojkSxFy4l6kALUJXnUIuHMOw/0D+Onb7scv3vcuLB4eQd2SHTfb2xhCdenGXRwdvYAnD7yJb+zZiR0nj+HKzFTiGZzI7AWtqLwnglD5jlIKScfkb+SiPFM20tePkYFBxN5jdGoCE5022t1uQheS7ak6mF2FTwQeKjPO5HlZWM7bsSIMKeOZUqQKAaUAdp9Cegpbo4OeQimEhQyjhOpTRJxSisBl8Et4HRwG+1q49Zq1+PUH3oM7Vm9AP9mE6++zeCQj1O1OBxcmxvHtt3bhyf178Nqpo7gweQUz3S5iY0A1qrK0zBJymocVIsQDKcSp4XIOWQ/MO/B1BjWUQBVnG1YTXvLAxNHwdJG8VxZd5AphfGAj1GP4xCFSQl+pKIFwCtAbcZnw1nin2WhgqK8fP3nLPfjY3Q9i6Zzexi3qliQlnIx6Hx+7iGcO7cUT+97ASycO48rMFDpxNz3zTZJT01x6ytLw4+3G5PQeeSjDkRDNK3kQ8AJmdjHk/YKKXdQRFY1J7Egf4hd/TO+mWBb75d9H6n2tnLqzLd2c9nC26wtlDqhSWPFhCAeLIX3NJm5csgK/8eAP4J5119XuW5QVn/YJJjszODE2iu8d3Itv79uFN86ewsXJcbRTJVCunA1agilFVMvKEvpa92oIkKrBaQGylMJZQtdjSFuGE/+pvYmJE4PXwjGdSdD6xR/zvEH9gQK2Vn+iqKDoU2g3l/ciyqySCp/4B5GyUJoBEocQ8SPnMGdgFj566z342N0PYdHwbLSi6rn+tMTeo9PtYqbbwfHRi3jywBv47v492HHyMC5PTaKb9kHYmGSllU2JmMf0NQSK4CV5ogyTxQjpnUtDWP5tHSWo19EuCZeChjVsSK3wialy8xc/WEyyYC/7SoSSe2VpWcO90rSs1GgGp9MIGgwJhU/hNHI9JjWiCBsWLMG/fPT9uH/DFvTXWgDj0Y1jHLl4Dk8f2JNMAjx+ADOdjp7DqKyUQlD0iQgVhRDyzrY2TKWdUkH4OqGHBb/tKeS1Dp3q8ETjoKSgfvjkRDpW/OEKIYltWinZ+NWkZK0Qqz4DLKWw48OK2NW6RyxQ5CIsHJqNH992F37u7gexeHgEEcE3myYy0+3g1KVRPLn/TTy+bzd2nT6OcxNX0kmA9TYnNhVC0DqnpCFUVSnZOn0M0/IanjuEg+SBJS8WfPXCJ8vIBXAQMFs4BDvazV/8YGa4ilGCEqWwgRX596oBPDP7ZF9zmn4/rJSBk6HEjrTQ32zhxmUr8Wvv/AFsX70OA80WOnGMo6Pn8fT+PXjqwB68dPwQLk+nHWOWfrRhLo/ZC+9sew7d4Y8CIaAghOnBnXVd5SnkvQrLezV9CMtQadCqQkIJPwdMKXHzFz7oFc0DsWg5MpFxT7uXiElvDwgaShr2FDYOrhKHsFWKIodZff3YMH8JVs6Zj3MTl7Dv/BlcmZ5GHMfJssoKy1qaZq5Q2lreGUIxagqMpTgWvL3gEFlKcRWKUrejXY5jmCdMKQC45i98oJikXuK+ZSzo4a/aUwSVIqgA5QhRYYmQLRrRIaBSCF/RTwp4DrbPj+wn1cbBBYUl5K2Vtwtsb8OVon6mxm5DErEi5Ev/RMLTsXfepueo108qGxDmENHwKVJLE+kFHRVi64WzabhyXaLcxtHzLQOzpX/ZNdlLtnieTnZmsGQCCLHGVvzy8qwBiQMFTZ4GapR0mSXbATxd8lng7lGKA+cSXz7LQCwuvICBs5PiwJejJsyVb9pn3ilE1bUx3ZyAbb1KL2J4tSTYIK9kaq39YiFGxAFnNCPOEaG/hAwVB0F6sc6Hs8bA3gaOC5q9nziHgXwQC+ClwBMBM4Gx4PNiL1MNRQk6XtWlySCOqyWoSB03ATVxROB5oSS5AJUUfQgkFI8YNQTh5T1LoBT8MKvnOOS/hAJY6BtKYu0BzGliw89JZikFoR2yNTjeFhZPK8kakJvGQn+rlMJgeG5BMkhigRAKsbMXyHPY2KJ5hqSAWeyykB0KXnUGstpIwUueW56CGEDOKSVKfDMG6Sm8YIMUmNRTUOUUiqEOP5cCL+BT9BaGydpRxVJadhyCL2nK2h2DAcHMEGeE4IFlfOXuJCFmRhIhjplAMI8SfIh2mkkEYYshMYGEqlddBAI2xiC4/Kza+1UfDG6poOdCEIRPCpVUFOOJF/cU/DWO+DIEhtfn+LWXwkBqUp5M8MUXUFne2gucZBv5kWpU/mQIHmCjpehhI1Tc5udUM8sb9OOKVQzoiuKNKuIQ1UziU4IJdyitanplbcUvEA7iYG7XbwDBBdT2tiYOQRoVSu3KPpDhR9VJRmVGJq/PBz8tc5waxAKHSFxbH2Riq45UUw3oCriC2caFo0dMDbmOFBM9rFvKSlkMskIN01MYJMz1gYRPvH6vFUDRx+eGSn5fxPee8UUfzi5w9IanKHWNWXte9CcIfYPwFoBRw1Q4ZO0dZYjioJXC6ldYDlZ7Dn3ACf+mgE/SQFrj/OS2kIcndbD1+4QvQUXxxZdFlbl6KR6Ume6Iv2GFT9Kt1TBzVc5ChR6ArfWyvnIvZYMgXblRnPzWUNmy0EPiROCVSlHdsffGL+OCoOSt12o4bF2/DZ90KqaRt6yogDckOlKufC06WRV5GzaDMHIDvew64l9xhJTro9hL18MIZngKA4GQpwBQkn0yYj/FkMLyyjaKbTP5x9ozlChR7l5KQiwCuHR6ObzCyipPASEsEiQFL+VYRX8iC/WUpXWMrdqFyFDDAkF6No6DxQPZVFJfuVJkXoMrTyC6UDgRPpDrKKDvmuDEKtmeQkspS5+lblyHT7qTl3e0rTPvgvAa560p+Ei1BF5L8YPhlKhZjbOYxlAqiQWhFDIrfKK3uSGyDAeM01HjMiXOAPDaEFkhFmdMgC+WTEulyNvwiua1lERFRUTRpVIwmHWJfLDx6njL9oFhzxDs8JXsDWsP3mVIl3kKSSnr2qra+oZaFG8PkkmhUjS1sk+yekMpBM7VOBhKIklqjbWodyUOtiX2xuthvagbBlEcDPNSJy1OeWIphaJ30k6kapFYstCDW1Wf1VbCoAwBfq13TJa6aI1TWF7c4kpo3IIKfJHUMlw39xmpPHCl8Cr8gGrUG4ThyTSyV6vJJH7X1m2tJGrwK/MU5J3Y8uZGDKMxsE8SVe+w8EnyKOWBtzrZ2jDl9K/QJ192T6PGf6TPswNkNNkNK2UJpFQUmNeAHn3UmWmVY4bIxNLD5XPAreN2JUO0a9bhk8ApIOQKJ0F8rzkrPLSOcTL4TRwE/JWDdwEcvKZmtafghNWW1rr2XMVVx7W4ElAJ+RB8Iq0E6W/2iWSyQ4a94lFEgeUSb3wVpFzgtdC9HH5zb30l8LFRadj1hZovfjlxi41TSEXvpVh9DFoTEVh2RK7pnTVdgs3WhNd6GlcoeYZD0GaaoHv+In0auG0dGWyTuB68EnHuXb0hLMk1H5izfnlRq+H6WJ5chhJm3fQVa5qH1dGGoJw0YJZPlMSQZ1MUOFkhlGVlKw+Xz62SCSSjnVYKH6AR/06FsAFvbVpZEToB1jiFPSHQNEICR6kkOQnFA6vvGhynsDKAggcSNNN70EqcEfF4X8xlCjFDMzKgwPlNV16DoZ0hpZDXwVmy9BvFSeh7MtToEWPTKpWNoyQvwOrk5eiYtGSflxcf/FTRRR7aYn9iyENAKfh1lRxVhxWxeGqFN1JJ6nsK2QfiEBizXb1WHQmVNywtBUK5RSM+rKEU2iFZKVneqQsNLZnTPKSlBbVSFg6cAaXu2zKV2XeEbKwt5oks2hrwC2/I4JXfWTQnt2LDquqSJkeFIVU2zGscrGya1U8qcAyEXKB8C9A/r8IynNRzciUuxiEkQ+xadIPytSCCBoHFc2t+v9Usn+ZRMIV5O+WmpTWwhMiAlaHhNTASViMxwOp3xj14MbWEKLowTObUFYFP8ZlnAhDQUU7bGuEIQ0IKVa7Ntje0FMVigJxKX7QQwDsEr4kDYYRQbL3kirqSUuJZgNkuNPBZZmvCDfGevmKArDjnVRkORkglLW/GEHkvCGOJZVWDeanAWKFAXkylsXCyhM6XyZlqrHJEGyGBssRR116hfzm8Fg8sHJUnMuCr9N5B2NjkPgsr20pxtyYJ4YM42QhDLSNU2SeT6q4IN9i35fhk75TD53k4Q3Dy5Ln6NMAAH1AaB0G39Cq2whEBbIWd5PDKF1T4ZytFLHCQIWFykE4VzS2vYMwqsJTCE68p+UgqcILeFg9yHERcKm1LZLo5CgR9bBbLghoIlnxjDbpIJpmDYXA8dKLjFNRLKKYI4ioGFY+YpwhjU48h4D0cKyWbKaFsVzlLGT4F2EDbUeGfpHdVR1uAQJWCErl0lixrU9RcygMDB1GtLUcVPkooRUQrtBGQNooFdZwhBsE9abjMU4Scq1IMpbSW04fNEIEDB8majCaEkxkJbfWriS/QDloa7SkYLSmUQaXIGsu+1aGHGizljaQwlAdFmVKEPSWjWMk0Fc4DKYdSKRgPashRCPziq+RBpIgdxN8Y/bUoabhmJmRWeJK/Lq/t01GlLjKlsCYEUqHy4kGVlfKkWs0nI/ww3HSPVkpJJoG3XKi4YUqKAxMgZYjAaQ5jnAIkfLKUOABv4sMVsxQPKsMnVYd8Ws0DxRMFfwJxVBEPVRRDoEqEylYKi7YSwdiuMMSQkpV3+uuqBS7FPWvlXSGmmgxhJAOpYdQvpSEsw8EbTy0eCaUwquSv1/EUvrSO5F6xG4mqTylmiWGSbVSFTtaAKth6CGt01W6xZOQ7v/CSIWVKYY1TVGuNusfce96fCOMg6MMR8b7whuTlWLwGECtILE3lUsiAlZWdPr2di3JRBb0VDmVGyGv2MvDiFPVCOepM88g5x2hh2nRybXg6do8b2ljUYGHBQtqcpdVjR+K4aXt9AoeRMjmr0KKs5wyxGGBZKanlOTJyKWrm+rhk6lmyFuhh110wwEnW5PDlg3cELSsckSW0uwcHy5k8sBQxFD7J5AFTCi9wYnXJcCpWGWAz+2TxS8kMaZhOLSkNnwqxYMgwHlBMDMPqvV4RWaIUEcq0nGEmrwOcLw0/6K+QAPF39AxHa0RbK62cZm0SN4BDqRKTXzLtm32nU67lDOHe2Zs01EphwV/zWnln+kYmdFRoe5zmIUMIyZ48VyvVUoJty6aJA63f8AxVCRDSqQ5BLcMWaZokPCEGCaSVQ7EEoAJ4w1toOiZXeVrWDJ8sKwUTHgcbh9xKkU+dwKHOGm2UKIkn/5nj+N78PPCcew6bBykWjMdVU8etHoRtWFUnmgETThxYo/ThfZ8MY1VmmNKIIzKZIe8FjWl9L8HDJ/Wn2rhVFHvHvRIPIJVa/KpKD9Jid/nlYKOhFOq6WshypVCGBQbDNQ4WD0LQhEfMAyXg2czBQXEdEjFh+zmfcqNUD8A6aQu+yYDlWqQrUK6wiP147Gp4l6BSBEjBmvaoTMvmfSApsF5MjpGw2TiEsk9Bq6qutaeTg4vW6C+DkFm94kcMTV8PGh7Yim3xQIYa7FqlZIu0rJo2nuEoyMB+prDpuVUU3oIfiozSU0ilYIEOY1gOnwCYXeo+hHOyVkN7S8yTDD3M54Frc/CuPNzwnnWjU8PmSLUkdCI/WJTkAdscelOgOHzJH2vjgkKooEsoA5UaJqfe1e6MDM6z51XejiuFYLAIPWSoUctxS8/moa4FujqkEm5chuWW0oU2LrCMK2+/uFYLhLIpEQJDCJQUgUsJJqC3RiMt3QkR0OmNlAQ/vLHbXXiREaF4oD7t/VT4AdsJGeyD3EY/v1dyrQwTeVyMRYbFtWKigKgy4BrzK96HszyFqQS+JFlTEweNk2W1uQGxeKC8X+qt/39WvioGaGsFnAAAACV0RVh0ZGF0ZTpjcmVhdGUAMjAyMy0xMC0xN1QxMzozMDo0NiswMDowMHRhE7sAAAAldEVYdGRhdGU6bW9kaWZ5ADIwMjMtMTAtMTdUMTM6MzA6NDYrMDA6MDAFPKsHAAAAAElFTkSuQmCC;fontSize=12;" parent="3" vertex="1">
                    <mxGeometry x="640" y="320" width="40" height="40" as="geometry"/>
                </mxCell>
                <mxCell id="23" style="edgeStyle=orthogonalEdgeStyle;html=1;sourcePerimeterSpacing=6;targetPerimeterSpacing=6;fontSize=12;sketch=1;curveFitting=1;jiggle=2;" parent="3" source="9" target="21" edge="1">
                    <mxGeometry relative="1" as="geometry">
                        <Array as="points">
                            <mxPoint x="660" y="170"/>
                        </Array>
                    </mxGeometry>
                </mxCell>
                <mxCell id="26" style="edgeStyle=orthogonalEdgeStyle;html=1;sourcePerimeterSpacing=6;targetPerimeterSpacing=6;fontSize=12;sketch=1;curveFitting=1;jiggle=2;" parent="3" source="21" target="9" edge="1">
                    <mxGeometry relative="1" as="geometry">
                        <Array as="points">
                            <mxPoint x="650" y="180"/>
                        </Array>
                    </mxGeometry>
                </mxCell>
                <mxCell id="30" value="DynamoDB" style="points=[[0,0,0],[0.25,0,0],[0.5,0,0],[0.75,0,0],[1,0,0],[0,1,0],[0.25,1,0],[0.5,1,0],[0.75,1,0],[1,1,0],[0,0.25,0],[0,0.5,0],[0,0.75,0],[1,0.25,0],[1,0.5,0],[1,0.75,0]];outlineConnect=0;fontColor=#232F3E;gradientColor=#4D72F3;gradientDirection=north;fillColor=#3334B9;strokeColor=#ffffff;dashed=0;verticalLabelPosition=bottom;verticalAlign=top;align=center;html=1;fontSize=12;fontStyle=0;aspect=fixed;shape=mxgraph.aws4.resourceIcon;resIcon=mxgraph.aws4.dynamodb;" parent="3" vertex="1">
                    <mxGeometry x="280" y="320" width="40" height="40" as="geometry"/>
                </mxCell>
                <mxCell id="6" value="Trigger&lt;br style=&quot;font-size: 12px;&quot;&gt;Queue&amp;nbsp; Lambda" style="points=[[0,0,0],[0.25,0,0],[0.5,0,0],[0.75,0,0],[1,0,0],[0,1,0],[0.25,1,0],[0.5,1,0],[0.75,1,0],[1,1,0],[0,0.25,0],[0,0.5,0],[0,0.75,0],[1,0.25,0],[1,0.5,0],[1,0.75,0]];outlineConnect=0;fontColor=#232F3E;gradientColor=#F78E04;gradientDirection=north;fillColor=#D05C17;strokeColor=#ffffff;dashed=0;verticalLabelPosition=bottom;verticalAlign=top;align=center;html=1;fontSize=12;fontStyle=0;aspect=fixed;shape=mxgraph.aws4.resourceIcon;resIcon=mxgraph.aws4.lambda;" parent="3" vertex="1">
                    <mxGeometry x="280" y="160" width="40" height="40" as="geometry"/>
                </mxCell>
                <mxCell id="89" style="edgeStyle=orthogonalEdgeStyle;html=1;fontSize=12;fontColor=#000000;startSize=6;sourcePerimeterSpacing=6;targetPerimeterSpacing=36;sketch=1;curveFitting=1;jiggle=2;" parent="3" source="30" target="6" edge="1">
                    <mxGeometry relative="1" as="geometry"/>
                </mxCell>
                <mxCell id="5" value="SQS Prediction&lt;br style=&quot;font-size: 12px;&quot;&gt;Queue" style="points=[[0,0,0],[0.25,0,0],[0.5,0,0],[0.75,0,0],[1,0,0],[0,1,0],[0.25,1,0],[0.5,1,0],[0.75,1,0],[1,1,0],[0,0.25,0],[0,0.5,0],[0,0.75,0],[1,0.25,0],[1,0.5,0],[1,0.75,0]];outlineConnect=0;fontColor=#232F3E;gradientColor=#FF4F8B;gradientDirection=north;fillColor=#BC1356;strokeColor=#ffffff;dashed=0;verticalLabelPosition=bottom;verticalAlign=top;align=center;html=1;fontSize=12;fontStyle=0;aspect=fixed;shape=mxgraph.aws4.resourceIcon;resIcon=mxgraph.aws4.sqs;" parent="3" vertex="1">
                    <mxGeometry x="400" y="160" width="40" height="40" as="geometry"/>
                </mxCell>
                <mxCell id="107" value="&lt;font style=&quot;font-size: 12px;&quot;&gt;Update Conversation&lt;br style=&quot;font-size: 12px;&quot;&gt;History&lt;/font&gt;" style="edgeStyle=orthogonalEdgeStyle;html=1;fontSize=12;fontColor=#000000;startSize=6;sourcePerimeterSpacing=36;targetPerimeterSpacing=6;sketch=1;curveFitting=1;jiggle=2;" parent="3" source="9" target="30" edge="1">
                    <mxGeometry x="0.283" relative="1" as="geometry">
                        <Array as="points">
                            <mxPoint x="530" y="340"/>
                        </Array>
                        <mxPoint as="offset"/>
                    </mxGeometry>
                </mxCell>
                <mxCell id="145" style="edgeStyle=none;html=1;exitX=0.5;exitY=0;exitDx=0;exitDy=0;exitPerimeter=0;sourcePerimeterSpacing=0;targetPerimeterSpacing=36;sketch=1;curveFitting=1;jiggle=2;" edge="1" parent="3" source="9" target="137">
                    <mxGeometry relative="1" as="geometry"/>
                </mxCell>
                <mxCell id="9" value="Process Prediction&lt;br style=&quot;font-size: 12px;&quot;&gt;Lambda" style="points=[[0,0,0],[0.25,0,0],[0.5,0,0],[0.75,0,0],[1,0,0],[0,1,0],[0.25,1,0],[0.5,1,0],[0.75,1,0],[1,1,0],[0,0.25,0],[0,0.5,0],[0,0.75,0],[1,0.25,0],[1,0.5,0],[1,0.75,0]];outlineConnect=0;fontColor=#232F3E;gradientColor=#F78E04;gradientDirection=north;fillColor=#D05C17;strokeColor=#ffffff;dashed=0;verticalLabelPosition=bottom;verticalAlign=top;align=center;html=1;fontSize=12;fontStyle=0;aspect=fixed;shape=mxgraph.aws4.resourceIcon;resIcon=mxgraph.aws4.lambda;" parent="3" vertex="1">
                    <mxGeometry x="520" y="160" width="40" height="40" as="geometry"/>
                </mxCell>
                <mxCell id="8" style="edgeStyle=entityRelationEdgeStyle;html=1;targetPerimeterSpacing=6;sourcePerimeterSpacing=6;fontSize=12;sketch=1;curveFitting=1;jiggle=2;" parent="3" source="6" target="5" edge="1">
                    <mxGeometry relative="1" as="geometry"/>
                </mxCell>
                <mxCell id="10" style="edgeStyle=entityRelationEdgeStyle;html=1;targetPerimeterSpacing=6;sourcePerimeterSpacing=6;fontSize=12;sketch=1;curveFitting=1;jiggle=2;" parent="3" source="5" target="9" edge="1">
                    <mxGeometry relative="1" as="geometry"/>
                </mxCell>
                <mxCell id="99" value="" style="group;fontSize=12;" parent="3" vertex="1" connectable="0">
                    <mxGeometry x="160" y="322.5" width="35" height="35" as="geometry"/>
                </mxCell>
                <mxCell id="103" value="" style="group;fontSize=12;" parent="99" vertex="1" connectable="0">
                    <mxGeometry width="35" height="35" as="geometry"/>
                </mxCell>
                <mxCell id="92" value="" style="whiteSpace=wrap;html=1;aspect=fixed;fontSize=12;fillColor=#d5e8d4;strokeColor=#82b366;container=0;" parent="103" vertex="1">
                    <mxGeometry y="-2" width="30" height="30" as="geometry"/>
                </mxCell>
                <mxCell id="93" value="" style="whiteSpace=wrap;html=1;aspect=fixed;fontSize=12;fillColor=#dae8fc;strokeColor=#6c8ebf;container=0;" parent="103" vertex="1">
                    <mxGeometry x="5" width="30" height="30" as="geometry"/>
                </mxCell>
                <mxCell id="129" style="edgeStyle=orthogonalEdgeStyle;html=1;exitX=1;exitY=0.5;exitDx=0;exitDy=0;targetPerimeterSpacing=6;sketch=1;curveFitting=1;jiggle=2;" parent="3" source="94" target="30" edge="1">
                    <mxGeometry relative="1" as="geometry"/>
                </mxCell>
                <mxCell id="134" style="edgeStyle=orthogonalEdgeStyle;html=1;exitX=1;exitY=0.5;exitDx=0;exitDy=0;targetPerimeterSpacing=6;sketch=1;curveFitting=1;jiggle=2;" parent="3" source="94" target="6" edge="1">
                    <mxGeometry relative="1" as="geometry">
                        <Array as="points">
                            <mxPoint x="220" y="340"/>
                            <mxPoint x="220" y="180"/>
                        </Array>
                    </mxGeometry>
                </mxCell>
                <mxCell id="94" value="" style="whiteSpace=wrap;html=1;aspect=fixed;fontSize=12;fillColor=#ffe6cc;strokeColor=#d79b00;container=0;" parent="3" vertex="1">
                    <mxGeometry x="170" y="325" width="30" height="30" as="geometry"/>
                </mxCell>
                <mxCell id="104" style="edgeStyle=orthogonalEdgeStyle;html=1;fontSize=12;fontColor=#000000;startSize=6;sourcePerimeterSpacing=6;targetPerimeterSpacing=10;sketch=1;curveFitting=1;jiggle=2;" parent="3" source="4" target="93" edge="1">
                    <mxGeometry relative="1" as="geometry">
                        <Array as="points">
                            <mxPoint x="140" y="340"/>
                            <mxPoint x="140" y="340"/>
                        </Array>
                    </mxGeometry>
                </mxCell>
                <mxCell id="109" value="Send Conversation Chunk / Status" style="edgeStyle=orthogonalEdgeStyle;html=1;fontSize=12;fontColor=#000000;startSize=6;sourcePerimeterSpacing=36;targetPerimeterSpacing=6;sketch=1;curveFitting=1;jiggle=2;" parent="3" source="9" target="4" edge="1">
                    <mxGeometry relative="1" as="geometry">
                        <Array as="points">
                            <mxPoint x="550" y="420"/>
                            <mxPoint x="120" y="420"/>
                            <mxPoint x="120" y="350"/>
                        </Array>
                    </mxGeometry>
                </mxCell>
                <mxCell id="112" value="PineCone Vector Store &#10;(Knowledge Base)" style="shape=image;verticalLabelPosition=bottom;labelBackgroundColor=default;verticalAlign=top;aspect=fixed;imageAspect=0;image=data:image/svg+xml,PHN2ZyB4bWxuczp4bGluaz0iaHR0cDovL3d3dy53My5vcmcvMTk5OS94bGluayIgeG1sbnM9Imh0dHA6Ly93d3cudzMub3JnLzIwMDAvc3ZnIiBwcmVzZXJ2ZUFzcGVjdFJhdGlvPSJ4TWlkWU1pZCIgdmVyc2lvbj0iMS4xIiB2aWV3Qm94PSItMS4xOTIwOTI4OTU1MDc4MTI1ZS03IC0yLjM4NDE4NTc5MTAxNTYyNWUtNyAyNTYgMjg3LjMxODc4NjYyMTA5Mzc1IiBoZWlnaHQ9IjI4Ny4zMTg3ODY2MjEwOTM3NSIgd2lkdGg9IjI1NiI+CiAgICA8dGl0bGU+UGluZWNvbmU8L3RpdGxlPgogICAgPGc+CiAgICAgICAgPHBhdGggZmlsbD0iIzIwMUQxRSIgZD0iTTEwOC42MzM2MTUsMjU0LjQzNjI5IEMxMTcuNzEzODYyLDI1NC40MzYyOSAxMjUuMDc0ODU3LDI2MS43OTcyODQgMTI1LjA3NDg1NywyNzAuODc3NTMyIEMxMjUuMDc0ODU3LDI3OS45NTc3NzkgMTE3LjcxMzg2MiwyODcuMzE4Nzc0IDEwOC42MzM2MTUsMjg3LjMxODc3NCBDOTkuNTUzMzY3NywyODcuMzE4Nzc0IDkyLjE5MjM3MjgsMjc5Ljk1Nzc3OSA5Mi4xOTIzNzI4LDI3MC44Nzc1MzIgQzkyLjE5MjM3MjgsMjYxLjc5NzI4NCA5OS41NTMzNjc3LDI1NC40MzYyOSAxMDguNjMzNjE1LDI1NC40MzYyOSBaIE0xOTkuODQ5NjY1LDIyNC40MzgzMzkgTDIxNi4wOTcwNSwyMjkuMjUyMzc5IEwyMDMuMTk5OTEzLDI3Mi43ODAyMTkgQzIwMi4wNzI5ODIsMjc2LjU4MzYxIDE5OC40NTgwNDksMjc5LjA5NTk5MiAxOTQuNTAwMzg5LDI3OC44MjYzOTcgTDE5MC41MTY2NzcsMjc4LjU1Mjk3MyBMMTkwLjQxOTI2MywyNzguNjMzNDA5IEwxNDkuMDI5MTgsMjc1LjcyODkwMyBMMTUwLjE4MDg0MiwyNTguODIyNTA4IEwxNzcuOTg5MDU2LDI2MC43MDk2ODYgTDE1OS43ODM3ODQsMjM0LjQ0NzYyMiBMMTczLjcwOTYxNiwyMjQuNzkyMzc5IEwxOTEuOTM4ODk1LDI1MS4wODcwMiBMMTk5Ljg0OTY2NSwyMjQuNDM4MzM5IFogTTIzLjAxMjY3NzEsMTk0LjM0NzQ3NiBMMzkuOTE1ODg2NiwxOTUuNTQ0OTc5IEwzNy45MzU4OTcsMjIzLjM0ODcyOCBMNjQuMTUwMTMxNSwyMDUuMTIwMDgyIEw3My44MjcxNDc2LDIxOS4wMzA3OTMgTDQ3LjU3ODczNiwyMzcuMjc4Mzk0IEw3NC4zNzA3NTU0LDI0NS4xNzMwMzcgTDY5LjU4MTgwNjMsMjYxLjQyNzgzNSBMMjUuODQ4NTI2NiwyNDguNTQzMjQzIEMyMi4wMzA0NDQ4LDI0Ny40MTgzNjkgMTkuNTEwMTE1NSwyNDMuNzg3NDc5IDE5Ljc5MTM5NjMsMjM5LjgxNzA5MiBMMjMuMDEyNjc3MSwxOTQuMzQ3NDc2IFogTTEzMi4xNTEzMDYsMTcwLjY3MTM5NiBMMTYyLjY1ODY3OSwyMDcuNTAzNDY4IEwxNDguOTA5MjQ3LDIxOC44OTE4ODYgTDEzMC43NTMyNjYsMTk2Ljk3MjEzNCBMMTI0Ljg2Njk0MSwyMzAuNjczODkzIEwxMDcuMjgwMjQ5LDIyNy41OTk2MTMgTDExMy4xNzIyMzIsMTkzLjg0NTI3MiBMODguNzI5NjMxMSwyMDguMjU2ODkxIEw3OS42Njc0NTg3LDE5Mi44NzQ0MzQgTDEyMC43NDU1MDQsMTY4LjY3NDM3NyBDMTI0LjUyMjEwNCwxNjYuNDQ5NDkyIDEyOS4zNTUyOTcsMTY3LjI5NTcyNiAxMzIuMTUxMzA2LDE3MC42NzEzOTYgWiBNMjE3LjUwNDUyOCwxNDUuOTYwMTk4IEwyMzIuNzQ0MDE3LDEzNy42Njg4MDQgTDI1NC45NDQ4MiwxNzguNDczNjMzIEMyNTYuODg5NjQxLDE4Mi4wNDgxOTIgMjU2LjA4ODIyMSwxODYuNDk0MTcxIDI1My4wMTc2ODIsMTg5LjE2NDY3NCBMMjQ5Ljg3NjYyMiwxOTEuODc4Mzc1IEwyMTcuODI2MjQ2LDIxOS43NzEzMSBMMjA2LjQ0MTAzNCwyMDYuNjgwNjIxIEwyMjcuOTg4NTg4LDE4Ny45MzQ0OTQgTDE5NS44OTM1NDYsMTgyLjE1MjYwOSBMMTk4Ljk3MjQwMiwxNjUuMDc4OTQ5IEwyMzEuMDQ0ODQ0LDE3MC44NTc3OTMgTDIxNy41MDQ1MjgsMTQ1Ljk2MDE5OCBaIE0zNy43ODIxODA1LDEwMy4yOTkyNzIgTDQ5LjI2MjIxMjMsMTE2LjMwNjg4OCBMMjguMDEwNjMxNywxMzUuMDUwMTc5IEw2MC4xNjY4MjMzLDE0MC42NjQxOTMgTDU3LjE4NjM1NzMsMTU3Ljc1NTMwMyBMMjQuOTk0NzIyOSwxNTIuMTM2OTY3IEwzOC44MjIxMDQsMTc3LjEzNDU3NiBMMjMuNjQxMTAyNiwxODUuNTMyNTc3IEwxLjA4NDM5NjE2LDE0NC43NTY5OTIgQy0wLjg4NTAyNTQ5NCwxNDEuMTk2ODg0IC0wLjExNTU0NTI2NSwxMzYuNzQ2Mzc1IDIuOTM0ODgwOTcsMTM0LjA1NDE4NCBMMzcuNzgyMTgwNSwxMDMuMjk5MjcyIFogTTE0Ni40NzYzMTEsODkuODc5NjgyOCBMMTc2Ljg4MDQ1LDEyNi42MTI4NDcgTDE2My4xMjcxLDEzNy45OTY1MzIgTDE0NC45NzU0NDUsMTE2LjA2NzEwMSBMMTM5LjA4OTEyLDE0OS43Nzg5NDcgTDEyMS41MDI0MjgsMTQ2LjcwNDY2NiBMMTI3LjM3NDIzOCwxMTMuMDgxNDUyIEwxMDMuMDI1MjM3LDEyNy4zNTQ4MTcgTDkzLjk5NzYzMTcsMTExLjk1MjA0OCBMMTMxLjM5ODgxMiw5MC4wMjMzNjYzIEwxMzEuNDM1NjMxLDg5Ljg4MDg5OSBMMTMxLjYwMDU0NSw4OS45MDIzMjY1IEwxMzUuMDg1ODMzLDg3Ljg3MDE0MSBDMTM4Ljg2MTg3Nyw4NS42NTY5OTEzIDE0My42ODU1Niw4Ni41MDc5OTk2IDE0Ni40NzYzMTEsODkuODc5NjgyOCBaIE0xODUuNjU1Nzg2LDcxLjgxNDMxNjggTDE5Mi4zMDU1MzUsNTUuNzkwMjcwMyBMMjM1LjMxODIzOSw3My42Mzk5MjI5IEMyMzkuMDcyNDg2LDc1LjE5Nzg4MTEgMjQxLjI0MTUsNzkuMTUzNzYzNiAyNDAuNTM2MzU2LDgzLjE1NjgwOTEgTDIzOS44MjAyMzEsODcuMTM4NTgzOSBMMjMyLjQ3NTE3LDEyOC45MTk1NDUgTDIxNS4zODkxODgsMTI1LjkwOTgxOSBMMjIwLjMxMjY0Niw5Ny45NDEzODc5IEwxOTEuNzc2MTU3LDExMy43MTI5IEwxODMuMzkwMzAyLDk4LjUyNTE4NjIgTDIxMS45ODEwNzIsODIuNzQwODAzOCBMMTg1LjY1NTc4Niw3MS44MTQzMTY4IFogTTEwMy43MTY5Niw0MC4yMzczODI0IEwxMDQuNDU2NTEzLDU3LjU3MDY1MzMgTDc2LjA0MzI2NzEsNTguNzg1MDA2IEw5Ny40NzMwMzY4LDgzLjI3NDkwODYgTDg0LjQxNjU1MjksOTQuNjk5MzMxOSBMNjIuOTUwNzkzMiw3MC4xNzI4MzU4IEw1Ny45NDk2NzMsOTguMTczNzEzMiBMNDAuODcxNjU3NSw5NS4xMTkxMDg4IEw0OS4wNTYxNDk4LDQ5LjM2MDM1NjMgQzQ5Ljc3MTQ0NCw0NS4zNjEyMTE1IDUzLjE2NjQ2MzMsNDIuMzk0MjAzNiA1Ny4yMjUzODExLDQyLjIyMTAyMzEgTDYxLjI0NjE0OSw0Mi4wNDExNjQyIEw2MS4zMzYzMTY4LDQxLjk3NTggTDEwMy43MTY5Niw0MC4yMzczODI0IFogTTE2MS44MzgxNTUsMy4yNzE5NDgyNiBMMTkyLjEwNDgyNCw0MC4yMzY5Nzg5IEwxNzguMjkxMjA3LDUxLjU0NzQ1NzQgTDE2MC4zMjczMjksMjkuNjA0MzIyNyBMMTU0LjI2ODM4MSw2My4yNzE1MTU3IEwxMzYuNjk3MjMxLDYwLjEwOTYxMjEgTDE0Mi43NjY0NjgsMjYuMzY2NTA3NSBMMTE4LjI0MDAyLDQwLjcwNjI3NjUgTDEwOS4yMzI2NzgsMjUuMjkxNjQ5NCBMMTUwLjQyNzY3NSwxLjIxOTg3Mzk3IEMxNTQuMjE4Mjg2LC0wLjk5NTEyMTIzNyAxNTkuMDU2Nzk2LC0wLjEyNDk1NzgxNCAxNjEuODM4MTU1LDMuMjcxOTQ4MjYgWiIvPgogICAgPC9nPgo8L3N2Zz4=;fontSize=12;sketch=1;curveFitting=1;jiggle=2;" parent="3" vertex="1">
                    <mxGeometry x="840" y="315" width="44.6" height="50" as="geometry"/>
                </mxCell>
                <mxCell id="113" style="edgeStyle=orthogonalEdgeStyle;html=1;sourcePerimeterSpacing=6;targetPerimeterSpacing=6;fontSize=12;sketch=1;curveFitting=1;jiggle=2;" parent="3" source="21" target="112" edge="1">
                    <mxGeometry relative="1" as="geometry">
                        <Array as="points">
                            <mxPoint x="800" y="340"/>
                            <mxPoint x="800" y="340"/>
                        </Array>
                    </mxGeometry>
                </mxCell>
                <mxCell id="4" value="AppSync&lt;br style=&quot;font-size: 12px;&quot;&gt;API" style="points=[[0,0,0],[0.25,0,0],[0.5,0,0],[0.75,0,0],[1,0,0],[0,1,0],[0.25,1,0],[0.5,1,0],[0.75,1,0],[1,1,0],[0,0.25,0],[0,0.5,0],[0,0.75,0],[1,0.25,0],[1,0.5,0],[1,0.75,0]];outlineConnect=0;fontColor=#232F3E;gradientColor=#FF4F8B;gradientDirection=north;fillColor=#BC1356;strokeColor=#ffffff;dashed=0;verticalLabelPosition=bottom;verticalAlign=top;align=center;html=1;fontSize=12;fontStyle=0;aspect=fixed;shape=mxgraph.aws4.resourceIcon;resIcon=mxgraph.aws4.appsync;" parent="3" vertex="1">
                    <mxGeometry x="40" y="320" width="40" height="40" as="geometry"/>
                </mxCell>
                <mxCell id="137" value="S3 &lt;br&gt;(Audio Files)" style="points=[[0,0,0],[0.25,0,0],[0.5,0,0],[0.75,0,0],[1,0,0],[0,1,0],[0.25,1,0],[0.5,1,0],[0.75,1,0],[1,1,0],[0,0.25,0],[0,0.5,0],[0,0.75,0],[1,0.25,0],[1,0.5,0],[1,0.75,0]];outlineConnect=0;fontColor=#232F3E;gradientColor=#60A337;gradientDirection=north;fillColor=#277116;strokeColor=#ffffff;dashed=0;verticalLabelPosition=bottom;verticalAlign=top;align=center;html=1;fontSize=12;fontStyle=0;aspect=fixed;shape=mxgraph.aws4.resourceIcon;resIcon=mxgraph.aws4.s3;" parent="3" vertex="1">
                    <mxGeometry x="520" y="20" width="40" height="40" as="geometry"/>
                </mxCell>
                <mxCell id="86" value="Retrieve&lt;br style=&quot;font-size: 12px;&quot;&gt;Frontend" style="edgeStyle=orthogonalEdgeStyle;html=1;fontSize=12;fontColor=#000000;startSize=6;sourcePerimeterSpacing=6;targetPerimeterSpacing=6;sketch=1;curveFitting=1;jiggle=2;" parent="1" source="55" target="82" edge="1">
                    <mxGeometry x="0.2261" relative="1" as="geometry">
                        <Array as="points">
                            <mxPoint x="-120" y="130"/>
                            <mxPoint x="-120" y="-10"/>
                        </Array>
                        <mxPoint as="offset"/>
                    </mxGeometry>
                </mxCell>
                <mxCell id="87" value="Authentication" style="edgeStyle=orthogonalEdgeStyle;html=1;fontSize=12;fontColor=#B85450;startSize=6;sourcePerimeterSpacing=6;targetPerimeterSpacing=6;fillColor=#f8cecc;strokeColor=#b85450;sketch=1;curveFitting=1;jiggle=2;" parent="1" source="55" target="53" edge="1">
                    <mxGeometry x="0.2381" relative="1" as="geometry">
                        <Array as="points">
                            <mxPoint x="-110" y="140"/>
                            <mxPoint x="-110" y="220"/>
                        </Array>
                        <mxPoint as="offset"/>
                    </mxGeometry>
                </mxCell>
                <mxCell id="88" value="Recieve / &lt;br style=&quot;font-size: 12px;&quot;&gt;Request" style="edgeStyle=orthogonalEdgeStyle;html=1;fontSize=12;fontColor=#000000;startSize=6;sourcePerimeterSpacing=6;targetPerimeterSpacing=6;sketch=1;curveFitting=1;jiggle=2;" parent="1" source="55" target="4" edge="1">
                    <mxGeometry x="0.178" relative="1" as="geometry">
                        <Array as="points">
                            <mxPoint x="-120" y="150"/>
                            <mxPoint x="-120" y="380"/>
                        </Array>
                        <mxPoint as="offset"/>
                    </mxGeometry>
                </mxCell>
                <mxCell id="55" value="Clients" style="verticalLabelPosition=bottom;html=1;verticalAlign=top;align=center;strokeColor=none;fillColor=#00BEF2;shape=mxgraph.azure.user;fontSize=12;" parent="1" vertex="1">
                    <mxGeometry x="-200" y="120" width="40" height="40" as="geometry"/>
                </mxCell>
                <mxCell id="66" value="Frontend" style="fillColor=none;strokeColor=#5A6C86;dashed=1;verticalAlign=top;fontStyle=0;fontColor=#5A6C86;fontSize=12;" parent="1" vertex="1">
                    <mxGeometry x="40" y="-120" width="360" height="210" as="geometry"/>
                </mxCell>
                <mxCell id="81" value="Region" style="points=[[0,0],[0.25,0],[0.5,0],[0.75,0],[1,0],[1,0.25],[1,0.5],[1,0.75],[1,1],[0.75,1],[0.5,1],[0.25,1],[0,1],[0,0.75],[0,0.5],[0,0.25]];outlineConnect=0;gradientColor=none;html=1;whiteSpace=wrap;fontSize=12;fontStyle=0;container=1;pointerEvents=0;collapsible=0;recursiveResize=0;shape=mxgraph.aws4.group;grIcon=mxgraph.aws4.group_region;strokeColor=#147EBA;fillColor=none;verticalAlign=top;align=left;spacingLeft=30;fontColor=#147EBA;dashed=1;" parent="1" vertex="1">
                    <mxGeometry x="80" y="-90" width="280" height="160" as="geometry"/>
                </mxCell>
                <mxCell id="84" style="edgeStyle=orthogonalEdgeStyle;html=1;fontSize=12;fontColor=#000000;startSize=6;sourcePerimeterSpacing=6;targetPerimeterSpacing=6;sketch=1;curveFitting=1;jiggle=2;" parent="81" source="82" target="83" edge="1">
                    <mxGeometry relative="1" as="geometry"/>
                </mxCell>
                <mxCell id="82" value="CloudFront" style="points=[[0,0,0],[0.25,0,0],[0.5,0,0],[0.75,0,0],[1,0,0],[0,1,0],[0.25,1,0],[0.5,1,0],[0.75,1,0],[1,1,0],[0,0.25,0],[0,0.5,0],[0,0.75,0],[1,0.25,0],[1,0.5,0],[1,0.75,0]];outlineConnect=0;fontColor=#232F3E;gradientColor=#945DF2;gradientDirection=north;fillColor=#5A30B5;strokeColor=#ffffff;dashed=0;verticalLabelPosition=bottom;verticalAlign=top;align=center;html=1;fontSize=12;fontStyle=0;aspect=fixed;shape=mxgraph.aws4.resourceIcon;resIcon=mxgraph.aws4.cloudfront;" parent="81" vertex="1">
                    <mxGeometry x="40" y="60" width="40" height="40" as="geometry"/>
                </mxCell>
                <mxCell id="83" value="S3" style="points=[[0,0,0],[0.25,0,0],[0.5,0,0],[0.75,0,0],[1,0,0],[0,1,0],[0.25,1,0],[0.5,1,0],[0.75,1,0],[1,1,0],[0,0.25,0],[0,0.5,0],[0,0.75,0],[1,0.25,0],[1,0.5,0],[1,0.75,0]];outlineConnect=0;fontColor=#232F3E;gradientColor=#60A337;gradientDirection=north;fillColor=#277116;strokeColor=#ffffff;dashed=0;verticalLabelPosition=bottom;verticalAlign=top;align=center;html=1;fontSize=12;fontStyle=0;aspect=fixed;shape=mxgraph.aws4.resourceIcon;resIcon=mxgraph.aws4.s3;" parent="81" vertex="1">
                    <mxGeometry x="160" y="60" width="40" height="40" as="geometry"/>
                </mxCell>
                <mxCell id="118" value="Upload&lt;br&gt;Knowledge &lt;br&gt;Files" style="edgeStyle=orthogonalEdgeStyle;html=1;fontSize=12;sourcePerimeterSpacing=6;targetPerimeterSpacing=6;sketch=1;curveFitting=1;jiggle=2;" parent="1" source="116" target="110" edge="1">
                    <mxGeometry x="-0.1299" relative="1" as="geometry">
                        <Array as="points">
                            <mxPoint x="10" y="660"/>
                            <mxPoint x="10" y="660"/>
                        </Array>
                        <mxPoint as="offset"/>
                    </mxGeometry>
                </mxCell>
                <mxCell id="116" value="Admin" style="verticalLabelPosition=bottom;html=1;verticalAlign=top;align=center;strokeColor=none;fillColor=#00BEF2;shape=mxgraph.azure.user;fontSize=12;" parent="1" vertex="1">
                    <mxGeometry x="-200" y="640" width="40" height="40" as="geometry"/>
                </mxCell>
                <mxCell id="140" value="Synthesize Audio" style="edgeStyle=orthogonalEdgeStyle;html=1;targetPerimeterSpacing=6;sketch=1;curveFitting=1;jiggle=2;" parent="1" source="9" edge="1" target="144">
                    <mxGeometry relative="1" as="geometry">
                        <Array as="points">
                            <mxPoint x="620" y="290"/>
                            <mxPoint x="904" y="290"/>
                        </Array>
                        <mxPoint x="904" y="220" as="targetPoint"/>
                        <mxPoint x="380" y="200" as="sourcePoint"/>
                    </mxGeometry>
                </mxCell>
                <mxCell id="144" value="ElevenLabs&#10;(Voice Generation)" style="shape=image;verticalLabelPosition=bottom;labelBackgroundColor=default;verticalAlign=top;aspect=fixed;imageAspect=0;image=data:image/png,iVBORw0KGgoAAAANSUhEUgAACbMAAAYPCAYAAAC3gfVCAAAACXBIWXMAAC4jAAAuIwF4pT92AAAgAElEQVR4nOzd7XUUR7c24L3P8n+RgfRGIDJAGUAGmhMBygA9EUAGakdgOQIPEVhE8IgIjoig3h/TEhIWRl8zu7vrutaahfAXt5eG6U3X3VXZWgsAAAAAAAAAAACo9D/VAQAAAAAAAAAAAECZDQAAAAAAAAAAgHLKbAAAAAAAAAAAAJRTZgMAAAAAAAAAAKCcMhsAAAAAAAAAAADllNkAAAAAAAAAAAAop8wGAAAAAAAAAABAOWU2AAAAAAAAAAAAyimzAQAAAAAAAAAAUE6ZDQAAAAAAAAAAgHLKbAAAAAAAAAAAAJRTZgMAAAAAAAAAAKCcMhsAAAAAAAAAAADllNkAAAAAAAAAAAAop8wGAAAAAAAAAABAOWU2AAAAAAAAAAAAyimzAQAAAAAAAAAAUE6ZDQAAAAAAAAAAgHLKbAAAAAAAAAAAAJRTZgMAAAAAAAAAAKCcMhsAAAAAAAAAAADllNkAAAAAAAAAAAAop8wGAAAAAAAAAABAOWU2AAAAAAAAAAAAyimzAQAAAAAAAAAAUE6ZDQAAAAAAAAAAgHLKbAAAAAAAAAAAAJRTZgMAAAAAAAAAAKCcMhsAAAAAAAAAAADllNkAAAAAAAAAAAAop8wGAAAAAAAAAABAOWU2AAAAAAAAAAAAyimzAQAAAAAAAAAAUE6ZDQAAAAAAAAAAgHLKbAAAAAAAAAAAAJRTZgMAAAAAAAAAAKCcMhsAAAAAAAAAAADllNkAAAAAAAAAAAAop8wGAAAAAAAAAABAOWU2AAAAAAAAAAAAyimzAQAAAAAAAAAAUE6ZDQAAAAAAAAAAgHLKbAAAAAAAAAAAAJRTZgMAAAAAAAAAAKCcMhsAAAAAAAAAAADllNkAAAAAAAAAAAAop8wGAAAAAAAAAABAOWU2AAAAAAAAAAAAyimzAQAAAAAAAAAAUE6ZDQAAAAAAAAAAgHLKbAAAAAAAAAAAAJRTZgMAAAAAAAAAAKCcMhsAAAAAAAAAAADllNkAAAAAAAAAAAAop8wGAAAAAAAAAABAOWU2AAAAAAAAAAAAyimzAQAAAAAAAAAAUE6ZDQAAAAAAAAAAgHLKbAAAAAAAAAAAAJRTZgMAAAAAAAAAAKCcMhsAAAAAAAAAAADllNkAAAAAAAAAAAAop8wGAAAAAAAAAABAOWU2AAAAAAAAAAAAyimzAQAAAAAAAAAAUE6ZDQAAAAAAAAAAgHLKbAAAAAAAAAAAAJRTZgMAAAAAAAAAAKCcMhsAAAAAAAAAAADllNkAAAAAAAAAAAAop8wGAAAAAAAAAABAOWU2AAAAAAAAAAAAyimzAQAAAAAAAAAAUE6ZDQAAAAAAAAAAgHLKbAAAAAAAAAAAAJRTZgMAAAAAAAAAAKCcMhsAAAAAAAAAAADllNkAAAAAAAAAAAAop8wGAAAAAAAAAABAOWU2AAAAAAAAAAAAyimzAQAAAAAAAAAAUE6ZDQAAAAAAAAAAgHLKbAAAAAAAAAAAAJRTZgMAAAAAAAAAAKCcMhsAAAAAAAAAAADllNkAAAAAAAAAAAAop8wGAAAAAAAAAABAOWU2AAAAAAAAAAAAyimzAQAAAAAAAAAAUE6ZDQAAAAAAAAAAgHLKbAAAAAAAAAAAAJRTZgMAAAAAAAAAAKCcMhsAAAAAAAAAAADllNkAAAAAAAAAAAAop8wGAAAAAAAAAABAOWU2AAAAAAAAAAAAyimzAQAAAAAAAAAAUE6ZDQAAAAAAAAAAgHLKbAAAAAAAAAAAAJRTZgMAAAAAAAAAAKCcMhsAAAAAAAAAAADllNkAAAAAAAAAAAAop8wGAAAAAAAAAABAOWU2AAAAAAAAAAAAyimzAQAAAAAAAAAAUE6ZDQAAAAAAAAAAgHLKbAAAAAAAAAAAAJRTZgMAAAAAAAAAAKCcMhsAAAAAAAAAAADllNkAAAAAAAAAAAAop8wGAAAAAAAAAABAOWU2AAAAAAAAAAAAyimzAQAAAAAAAAAAUE6ZDQAAAAAAAAAAgHLKbAAAAAAAAAAAAJRTZgMAAAAAAAAAAKCcMhsAAAAAAAAAAADllNkAAAAAAAAAAAAop8wGAAAAAAAAAABAOWU2AAAAAAAAAAAAyimzAQAAAAAAAAAAUE6ZDQAAAAAAAAAAgHLKbAAAAAAAAAAAAJT7rToAAADANmRmq85AfG6tHVWHAAAAAAAA5sHObAAAAAAAAAAAAJRTZgMAAAAAAAAAAKCcMhsAAAAAAAAAAADllNkAAAAAAAAAAAAop8wGAAAAAAAAAABAud8y87Q6BBGttdPqDD3KzFVEHBTHIGLdWltXh+hZZh5VZwDg5bm+AgAAAAAAMCcZEa06BBGttazO0KPMXEfEm+ocxH8UOmtlpmsBwAL1PmO6vk3C59baUXUIAAAAAABgHhwzCgAAAAAAAAAAQDllNgAAAAAAAAAAAMopswEAAAAAAAAAAFBOmQ0AAAAAAAAAAIByymwAAAAAAAAAAACUU2YDAAAAAAAAAACgnDIbAAAAAAAAAAAA5ZTZAAAAAAAAAAAAKKfMBgAAAAAAAAAAQDllNgAAAAAAAAAAAMopswEAAAAAAAAAAFBOmQ0AAAAAAAAAAIByymwAAAAAAAAAAACUU2YDAAAAAAAAAACgnDIbAAAAAAAAAAAA5ZTZAAAAAAAAAAAAKKfMBgAAAAAAAAAAQDllNgAAAAAAAAAAAMopswEAAAAAAAAAAFBOmQ0AAAAAAAAAAIByymwAAAAAAAAAAACUU2YDAAAAAAAAAACgnDIbAAAAAAAAAAAA5ZTZAAAAAAAAAAAAKKfMBgAAAAAAAAAAQDllNgAAAAAAAAAAAMopswEAAAAAAAAAAFBOmQ0AAAAAAAAAAIByymwAAAAAAAAAAACUU2YDAAAAAAAAAACgnDIbAAAAAAAAAAAA5ZTZAAAAAAAAAAAAKKfMBgAAAAAAAAAAQDllNgAAAAAAAAAAAMopswEAAAAAAAAAAFBOmQ0AAAAAAAAAAIByymwAAAAAAAAAAACUU2YDAAAAAAAAAACgnDIbAAAAAAAAAAAA5ZTZAAAAAAAAAAAAKKfMBgAAAAAAAAAAQDllNgAAAAAAAAAAAMopswEAAAAAAAAAAFBOmQ0AAAAAAAAAAIByymwAAAAAAAAAAACUU2YDAAAAAAAAAACgnDIbAAAAAAAAAAAA5ZTZAAAAAAAAAAAAKKfMBgAAAAAAAAAAQDllNgAAAAAAAAAAAMopswEAAAAAAAAAAFBOmQ0AAAAAAAAAAIByymwAAAAAAAAAAACUU2YDAAAAAAAAAACgnDIbAAAAAAAAAAAA5ZTZAAAAAAAAAAAAKKfMBgAAAAAAAAAAQDllNgAAAAAAAAAAAMopswEAAAAAAAAAAFBOmQ0AAAAAAAAAAIByymwAAAAAAAAAAACUU2YDAAAAAAAAAACgnDIbAAAAAAAAAAAA5ZTZAAAAAAAAAAAAKKfMBgAAAAAAAAAAQDllNgAAAAAAAAAAAMopswEAAAAAAAAAAFBOmQ0AAAAAAAAAAIByymwAAAAAAAAAAACUU2YDAAAAAAAAAACgnDIbAAAAAAAAAAAA5ZTZAAAAAAAAAAAAKKfMBgAAAAAAAAAAQDllNgAAAAAAAAAAAMopswEAAAAAAAAAAFBOmQ0AAAAAAAAAAIByymwAAAAAAAAAAACUU2YDAAAAAAAAAACgnDIbAAAAAAAAAAAA5ZTZAAAAAAAAAAAAKKfMBgAAAAAAAAAAQDllNgAAAAAAAAAAAMopswEAAAAAAAAAAFBOmQ0AAAAAAAAAAIByv1UHAAAiIuJLRJxUhwAAAAAAAACAKspsADANV621dXUIAAAAAAAAAKjimFEAAAAAAAAAAADKKbMBAAAAAAAAAABQTpkNAAAAAAAAAACAcspsAAAAAAAAAAAAlFNmAwAAAAAAAAAAoJwyGwAAAAAAAAAAAOWU2QAAAAAAAAAAACinzAYAAAAAAAAAAEA5ZTYAAAAAAAAAAADKKbMBAAAAAAAAAABQTpkNAAAAAAAAAACAcspsAAAAAAAAAAAAlFNmAwAAAAAAAAAAoJwyGwAAAAAAAAAAAOWU2QAAAAAAAAAAACinzAYAAAAAAAAAAEA5ZTYAAAAAAAAAAADKKbMBAAAAAAAAAABQTpkNAAAAAAAAAACAcspsAAAAAAAAAAAAlFNmAwAAAAAAAAAAoJwyGwAAAAAAAAAAAOWU2QAAAAAAAAAAACinzAYAAAAAAAAAAEA5ZTYAAAAAAAAAAADKKbMBAAAAAAAAAABQTpkNAAAAAAAAAACAcspsAAAAAAAAAAAAlFNmAwAAAAAAAAAAoJwyGwAAAAAAAAAAAOWU2QAAAAAAAAAAACinzAYAAAAAAAAAAEA5ZTYAAAAAAAAAAADKKbMBAAAAAAAAAABQTpkNAAAAAAAAAACAcspsAAAAAAAAAAAAlFNmAwAAAAAAAAAAoJwyGwAAAAAAAAAAAOWU2QAAAAAAAAAAACinzAYAAAAAAAAAAEA5ZTYAAAAAAAAAAADKKbMBAAAAAAAAAABQTpkNAAAAAAAAAACAcspsAAAAAAAAAAAAlFNmAwAAAAAAAAAAoJwyGwAAAAAAAAAAAOWU2QAAAAAAAAAAACinzAYAAAAAAAAAAEA5ZTYAAAAAAAAAAADKKbMBAAAAAAAAAABQTpkNAAAAAAAAAACAcspsAAAAAAAAAAAAlFNmAwAAAAAAAAAAoJwyGwAAAAAAAAAAAOWU2QAAAAAAAAAAACj3W3UAAAAAAAAAAADgZWTm64h4FREH4yt++Doi4nVE7D3zl/oaEZe3fn556+c3X7fW1s/8deiIMhsAAADATGXmq9jceIy4e0Py9l+/9mYLEb5FxMUPf+0iIq7Gr69u/f2r1tqP/ywAAJQzVwMwR2Nh7SA216qDW18/t6D2GPvj69q918nMvP7y8/jjOr5f3y5aa1f3/Gt0SpkNAAAAYKIy8yC+34h8devHg7h7o7DKXvzzJuVPF/du3bj8Epsblpc/vlprly+aEACA7pmrAZi7zDyKzfXr+nVYGujp3vzwY0REZOZ1sfvmpbzdL2U2AAAAgGLjDcmDuPs07VxvSj7E9f/bPxboxoW560W5dXxfjFvvJhoAAHNlrv7OXA0wX+OOoUe3Xku+ll27LnbfXNPGa9nn2JTb1hGxtoNbH5TZAAAAAHbk1vFFR9HH4tpT/WNRbryB+TU2i3Dr+P6U7uVuowEAUM1c/WDmaoCZyMx30Vd57aGuC27vIyIy80uMxbZQblssZTYAAACALcnM2wtsRzGNI4zmbH983V6Muz6GYn39oxuZAADLYq5+ceZqgGJjMfvd+HpbHGdODsfXdbntc0Scx+a65VjShVBmAwAAAHgh47FG16/XsTkige267xiKr3H3Kd3LimAAADyNubqEuRpgy8YC22p82X3tZdxcu8br1nlEDIpt85YR0apDENFay+oMPcrMddwayinzn9baaXWInmWma0G9z621o+oQAEvi+jYJrm8s3q0dIo7CU7RTZhEOAGDCzNWzYa4GeILMXIUd2Hbtutj2yfVqfpTZJkKZrYYy22QosxWz2D8JFvsBXpjr2yS4vrE44xO0R7G5AXkUjjeaqy+xWYA7b62ta6OwTZk5RMRxdQ5u/N5aW1WHgPtk5ruI+KM6R+e+ttYOqkOwG+bqxTBXMzvuGZbr5n7hWNQ+ic21zg6jtb5ExKfYXK8coT0DjhkFAAAA+BeZeRDfF9k8QbsMh+PrfWZ+i3EBLtzUXKIhlNmm5F11APgX3p/1huoAbJe5epHM1QA/GHdhW4VNdabkMCLOIuIsM3+PzW5tjiGdsP+pDgAAAAAwNZl5kJknmXkREf+NiI9hwW2p9mLzvT2LiP/LzPPMXI27hTBz4w4hX6tzcGNvXNiBKVJmqzdUB+Dlmau7Yq4GupWZrzLzNDMvY/M5qMg2XccR8XdmXvjz6XQpswEAAADETxfaDotjsXsW4JZnqA7AHQpDTM54BJSjn2p9aa1dVofgZZirGZmrgcW7LrFFxGVEfAjHZs/JYWx2arsc5xbXqAlRZgMAAAC6Ni6qnIeFNv7pxwU4JZx5GqoDcMdbiwRM0Ko6APGpOgDPZ67mX5irgUW5p8TmwYj52o/N3HI57q7nz6sToMwGAAAAdCczX2fmkJlXsVlUcdQRv/I2Iv7IzKvM/JSZB8V5eKBxp58/q3NwhwVspsZ7st55dQCexlzNE5irgdlSYlu0vdh8T5XaJkCZDQAAAOjCeMNxNR539HdEHIebjjzeXkS8j4j/ZuZFZq6K8/AwShLTojjEZIxHjDoOqtafrbWr6hA8nLmaF2KuBmZl/Jy6DCW2pbtdajupDtMrZTYAAABg0TLzIDOH2NxwPAvHHfFyDiPizK4S09daGyLiW3UObjhqlClRrqw3VAfgYczVbJG5GpiszDwaC9xnocTWk72I+JiZl47H3j1lNgAAAGCRMvNdZq4j4r9htwi26/auEueZeVSch/sN1QG4w2IAU+G9WOtba83umRNnrmaHzNXAZIw7kQ4R8VcocPdsPzbHY6/HXZ3ZAWU2AAAAYFHGI48uI+KPiHhTHIf+vI2Iv8abnKvqMNwxVAfgDgUiyo07/1iYrKXINmHmaoqZq4Ey4/GSl7EpcUPEZhb6OzNP7TS+fcpsAAAAwOyNT8ueZuZVbI592K/ORPfexOaopEuLb9PQWruIiC/VObjhqFGmQKmy3qfqANxlrmaCzNXAzoxHaq8j4mPYiZT7fYiIC7uHbpcyGwAAADBb14ttsXla9kO40cj07IfFtykZqgNwhyIR1VbVATr3dSwaMwHmambAXA1s1fjZchF2I+XX9mOze+i5h7S2Q5kNAAAAmB2LbcyQxbdpGKoDcIcyG2XGRSdHjNYaqgNgrmaWzNXAixqvheex2ZHUdZDHeBsRl3Zpe3nKbAAAAMBsWGxjASy+FWqtXUXE79U5uOGoUSopU9YbqgP0zFzNApirgWcbS0gXsSklwVPsxWaXtk/VQZZEmQ0AAACYhcw8CYttLMf14tuFJ3h37rw6AHcoFFHFe6/Wl9baZXWIXpmrWRhzNfAk4/Xwr9h8jsBzvR+vRa+rgyyBMhsAAAAwaZm5yszLiPgYFttYnsPYPMG7zsyD4ixdaK2dR8TX6hzcOKkOQH/GHQHtvlHLzhUFzNUsnLkaeJBbx4p+rM7C4hxGxNqOoc+nzAYAAABMUmYeZeY6Is7CU7Is35uI+G9mfnLs4k4M1QG4cWjBmQJ2Zatnl8wdMlfTGXM18FPjrlnr8GAD27MXmx1DPbzxDMpsAAAAwKRk5kFmDrE56uFNcRzYtfcRcTked8L2DNUBuEOxiF07qg7QuT9ba1fVIXpgrqZz5mrgjvEo4nVsds+CbXs/7haqWP0EymwAAADAZGTmaURcRMRxcRSotBcRHzPzYnxqnBfWWruMiM/VObixqg5AdxQoaw3VAXpgroaIMFcDo/HYx7/CMdvs1puIcA16AmU2AAAAoNx49NFlRHwINxbh2mFE/O2IpK0ZqgNww1Gj7ExmvguzRqVvrTVHjG6RuRruZa6Gjo0F77PqHHRrPyLW486APJAyGwAAAFAmM1/dOvpovzgOTNX72DzJe1QdZElaa0NEfKvOwQ07ZbEr3mu1FNm2xFwND2Kuhs6M18YP1Tno3l5E/DXuEMgDKLMBAAAAJcadUS7D0UfwEPuxufFpN4mXpVQxHavqAHRDma3Wp+oAS2SuhkcxV0MnxiKbayNTcqbQ9jDKbAAAAMBOjbtGnEfEH+HoI3gsu0m8LKWK6XDUKFuXma/D7FHpa2vtojrEkpir4VnM1bBgimxM2FlmuhfxC8psAAAAwM7c2jXibXEUmLOb3SSqg8zdWKr4Wp2DG3bMYttW1QE6N1QHWBJzNbwIczUskCIbM/B+fJ/yE8psAAAAwNbZNQK24n1mXow7DfF0Fi+nY1UdgMVTmKw1VAdYAnM1bIW5GhZCkY0ZOVZo+zllNgAAAGCrxmNbLsOuEbANhxGxzsxVdZAZG6oDcMNRo2zNWFDYr87RsS+ttcvqEHNnroatMlfDzCmyMUMKbT+hzAYAAABszXhcy19h1wjYpr2IOMvMITNfVYeZm9baVUT8WZ2DG3bOYlu8t2rZBfOZzNWwE+ZqmClFNmZMoe0eymwAAADAi8vM15l5ERHvq7NAR45js5uE45Eeb6gOwI2T6gAsljJbrfPqAHNlroYS5mqYkbHwrcjGnB3bGfQuZTYAAADgRY03X9axOaYF2C3HIz1Ba+08Ir5W5yAiIvYtHPPSxuNrzSV1/hx3weSRzNVQylwNMzD+HlX4ZgnOXHO+U2YDAAAAXsz4NOxZOP4IKl0fj+RIt8exa9B0rKoDsDh2Zas1VAeYI3M1TIK5GiYsM9/F5loJS3E2vq+7p8wGAAAAPFtmHjj+CCbnfWauM/NVdZCZsEg5HW7e89JW1QE69m3c/ZIHMlfDJJmrYWLG3ZyH6hywBYPdypXZAAAAgGfKzKOIuAjHH8EUvYnN8Ujd3wj9ldbaZUR8rs5BRDhqlBc0Fg/MKHUU2R7BXA2TZq6GiRjnu3XYvZRl2ovN9abrArUyGwAAAPBkmbmKiL/CDUSYssOw8PZQQ3UAbqyqA7AYdvqrZdfLBzJXwyyYq2Ea1uF6ybJ1X2hTZgMAAACeJDOHiDirzgE8yF5E/D0ulPNz5xHxrToEEaGAxMvxXqrztbV2UR1iDszVMCvmaig0XjPtYEoPDqPjB0OU2QAAAIBHycxXmbmOiOPqLMCjnVl4+7nW2lU4Em8qHDXKs407GbytztGxoTrA1JmrYdbM1bBj4+8510x6cpyZJ9UhKiizAQAAAA82FgvWEfGmOArwdGfj0+zcb6gOwI1VdQBmz65stYbqAFNmroZFMFfDjozXzW53qaJrH3t80EuZDQAAAHiQWwtujnOA+Tu28Ha/1to6Ir5W5yAiFJF4vqPqAB370lq7rA4xVeZqWBRzNWzZuNvuEJtjfqFH5+Pvg24oswEAAAC/lJnvYrPg5sYhLIeFt5/zxP80OGqU51KIrONz9CfM1bBI5mrYrtNQAKdv+9HZrsfKbAAAAMC/ysxVRPwRFtxgiSy83e+8OgA3VtUBmKexMGR2qeNz9B7malg0czVswTjTva/OARPwNjNPqkPsijIbAAAA8FPjgttZdQ5gq44zc93bkRX/Zjwa78/qHESEMhtPZ1e2On+21q6qQ0yNuRq6YK6GF3TreFFg47SX3cuV2QAAAIB7jU+VW3CDPryJCAtvdw3VAYiIiL1xNwZ4LO+bOkN1gKkxV0NXzNXwcoawmyncthedzNrKbAAAAMA/jAtux9U5gJ06jIhP1SGmorV2HhHfqnMQEUpJPNK4W4GFzxrfxs9PRuZq6JK5Gp5pfKDlbXUOmKDDzDytDrFtymwAAADAHRbcoGvH42cAG0N1ACJCmY3HW1UH6NhQHWBKzNXQNXM1PJHjReGXPiz9uFFlNgAAAOCGBTcgLLzdZkeNaXDUKI/l/VJnqA4wFeZqIMzV8FSfwi678CuLvl+hzAYAAABEhAU34A4LbxHRWruMiC/VOYgI5SQeaNyhYL86R6e+ttYuqkNMgbkauMVcDY+QmUfhGgoP8SYzT6pDbIsyGwAAAGDBDbjPcWaeVoeYgEU/7Twjymw8lPdKHZ+XYa4G7mWuhocbqgPAjJyOx/IujjIbAAAAdM6CG/AvPmTmqjpEsfOI+FYdAkeN8mDeJ3XOqwNUM1cD/8JcDb8wlj7tsAsPtxcLfaBEmQ0AAAA6ZsENeICznktErbWrUNCYim7fhzxMZh5ExGFxjF59Ho9m7pa5GniArudq+Dfj7lKLPTIRtuh4PJ53UZTZAAAAoFOZeRIW3ICHGTLzdXWIQkN1ACJCmY1f8x6pM1QHqGSuBh6h97kafuZTbHaZAh5vcbuzKbMBAABAh8bjTT5W5wBmYy8i1uPT8t1pra0j4mt1Dhw1yi+tqgN0rNsdLM3VwCN1PVfDfcaCp1I4PN3h0o6yVmYDAACAzow3N86qcwCz0/vC21AdgIiw8xY/MX42OWK0xu/jkczdMVcDT9T7XA0/WtyuUlDg05KuK8psAAAA0JHxaVcLbsBTHUa/Cw1DdQAiIuLdkm7Q86IUHet0uSubuRp4pp7nariRmUcR8aY6ByzAXkScVId4KcpsAAAA0IlxwW1dnQOYvePMXMwN0odqrV1GxJ/VOYi9UFrift4XNb611rors5mrgRfS5VwNP1DqhJdzspSHv5TZAAAAoAPjjYzz2JQAAJ7r4/gEfW+6K2xMlNISd4xzztvqHJ0aqgPsmrkaeGG9ztVwfVy3Y+Lh5SxmdzZlNgAAAFi4ccFtHRH7xVGAZTnPzIPqELvUWhsi4lt1DuLtUp4258UoONYZqgPskrka2JLu5moYnVYHgAU6WcI1RZkNAAAAlu9TeNIVeHl70edOZUN1ACJCeYm7jqoDdOpra+2iOsSOmauBbeh1rqZj465syuHw8vZiAUVRZTYAAABYsMw8jYjj6hzAYh1m5qfqEDs2VAcgIpTZuMv7oUZXn//mamDLepyr6dtpdQBYsOO572auzAYAAAALlZnvIuJDdQ5g8d6PnzddGHch+lKdA0eNsjF+/uxV5+hUN7sImauBHelqrqZfdmWDnTipDvAcymwAAACwQJn5OuweBOzOkJkH1SF2yK4Z02CxlwjvgyqfW2uX1SF2wVwN7FhvczV9WlUHgA6czPkBsN+qAwAAERHxKjOPqkPANrXW1tUZAHox3qgYwi4lwO7sxeZz56g2xs6cR8RZdQjiXSiYoMxWZagOsAvmaqBAb3M1/XkdrquwC3ux2Z3ttDjHkyizAcA0HEbEX9UhYMuyOgBARz7FZr4A2KU3mXnaWjutDrJtrbWrzPw9Io6rs3TubWa+aq1dVXUv3pgAACAASURBVAehxrhjlsXQGr0cMWquBip0M1fTJbMb7M4qZlpmc8woAAAALEhmnoRyBVDnw1gu6UEvRY6psytX31bVATr1ew8lUnM1UKynuRqA7djPzFV1iKdQZgMAAICFGG90f6zOAXRvqA6wC62184j4Wp0DZbbO+f7XWHyZ11wNTMRQHQCA2TupDvAUymwAAACwAJn5KjpYWARm4TAzT6tD7MhQHYDNUaPVIdi9sWy0X52jQ9/GMu9imauBCelprgZgOw4z86g6xGMpswEAAMAyDGFBF5iOXo5FGqoDEBGOmuyVXdlqDNUBdmAIczUwHb3M1QBsz6o6wGMpswEAAMDMZeYqIt5W5wD4wVAdYNtaa5cR8bk6B/O7Mc+LUGarMVQH2CZzNTBRQ3UAAGbteG47miuzAQAAwIxl5kFEfCqOAXCfXo5FGqoDEIfj9ZBOjN/vw+IYPfraWruoDrEt5mpgwnqZqwHYnlV1gMdQZgMAAIB5O4+IveoQAD/xYeklo9baEBHfqnNgl67O+H7XWHrRy1wNTNni52oAtuqkOsBj/FYdAAAAAHia8clsu5Jwn68RcRkRVxFxvYPK5fi67eq+HVYy8+ie/+ariHh9z9dvnpWUHgwRcVScYdvOI+K4OkTnVrH8og3fraoDdOq8OsC2mKv5F+ZqpmSI5c/VAGzHfma+nstOyxkRrToEEa21rM7Qo8xchz8cTMF/Wmun1SF6lpmuBcDWmXfYNde3SfjcWjuqDrFUmfk6Iv6uzkG5L7FZVLuMiHX8ZBFtF8aFuuvFuNcRcRAWhfnuf8cdzBbJZ/Jk/L/W2mV1CLYrM19FxP9V5+jQYmd7n+GMzNXMxaLn6l1wzxDo2O+ttVV1iIewMxsAAADM01AdgJ37FpuFtXVEXLTW1pVhfnQrz51dW8bFuOuFuKOI2N9lLibjU2aet9auqoNsQ2vtIjO/hIXmau/C7mw9cMRojaE6wBYN1QHYOXM1c7bouRqArZrNn6WU2QAAAGBmHIPUlT9jXGibyzEAPxoX49bXP8/Mg9gsvh3F5iba3s5DUWEvIk4j4qQ4xzYNEfGxOkTnVqHM1oPZLMAszCKPGDVXd+X/s3e3120lV9pAT83yf+mNQMxAmgiEiUByBA1H0HIERkdgOgJfRWAyggEjMBmByQhGjKDeH7zq1rf4AdxTt2rvtbTGa8YtPkOCwNOog1N6Nb0YoVcDcBzPSinbNWz4dM1oI1y7lcM1o81wzWgyK5WBJeg7LM3rWxO6vYook2uQuncbd4fFZ3F30Nb9p+3nx/Q27g7gbJfoX7fXQLr6sBndPsbwe5ZoNdcRPYRe3T29mt7pPI/kPUNgcOe11uY/IPRf2QEAAACAB5myA3AU5xHx51rr81rrttY6zLUxtdbLWuu7WutJRPx3RPwj7g4f6dOUHeBY5t/Z99k5sLWrc36+ObrcyhYdvyYNTq/Wq0cxZQcAYJXezB8SapphNgAAAFiJUsq7cA1ST24i4q8R8f9qrW9rrb0eFN/bJwdwzyPizxFxkZ2Jg3tdStlkhzii4X+PG7DNDsBRbbIDDOi2x46iV3dHr/6CXj2E3ns1AMfT/IeEXDPaCNdu5XDNaDNcM5rMSmVgCfoOS/P61gTXjB5QKeUkIi4j4lluEg7gIiJ2tdZ9dpA1mB/7u7h7o83jvw8388aQLpVSrsPVXtlcu9WpUsqH8FqwtH/UWt9lhzgkvborevUD6NVd6rpXH4v3DElyExHXcddBPnzyPz/UWi8f+pfNV0t/3K718T+fzH9ehed5fqz5q0b/lB0AAAAAuJfT8EbU2r2Pu8O26+wgazJ/v7bzFQjv5j9+F9btRSllW2udsoMcyVlE/JodYnAfnyvoSCnF8EWOKTvAEejV66dXP4Je3aXeezWs1W1E7ONuYG0fEZeHvvL6iwG4/Zf/9/m5/tUnfzbhQ1f84U0p5XnLV7HbzNYIm0py2MzWDJvZkvkUCrAEfYeleX1rgs1sBzJfHfK/2Tl4NIdtB+TwrRvdbpGYt578JznG6Lp9fI2slDJFxC/ZOQbT3e+SXr16evUB6dXd6O65+ti8Z8iRnMfdUNn+MZvWljA/72/mP2/DcNvo/tLyMPR/ZQcAAAAAfmrKDsCjnMfdVXdbB26HU2v9MH8g6lXcHWiyTi9KKbvsEMcw/75fZOcY3Iv52h360vQ1OJ06zQ5wBFN2AB5Frz4Cvbob3fZqWIHziPhLRPy/WuvbWutpq4NsEb8/75/VWt/NQ7D/HRF/jYir3GQk2WQH+BHDbAAAANCw+U1pn5Rcl6uI+J/5jczr7DC9qrVe11q3EfE/4Y3XtXo3fzK8R1N2AGKbHYDDmYcTbQ1a3ll2gEPSq1dJr16AXt2Fnns1tOYq7gbAPg6wTS1f1fgjtdbLeQDvVdwNtv0j7q5IZQxNf1jIMBsAAAA0ar6q7l1yDO7vNiL+Wmt9VWvdZ4cZRa11P7/x+tfwpuvaPIt+n+POwuMxW9NvzPNg2+wAA7roaXhIr14dvTqBXr1qPfdqaMX7uBuwfjUPgK1ygO175sG2d7XW53G3bc5wc/+elVI22SG+xzAbAAAAtGsXtpCsxXlEnNRae7yOaxXm7/2rcL3j2nS5RWI+2Ohqo9EKuWq0L4YTlzdlBziwXejVa6FXJ9OrV6vLXg0NeB9/XHW9zw6zhHnb3Ku429jptaBvzf57lmE2AAAAaNB8AP9Ldg5+6jYi/jxfLdHVp3LXaL4iaRMRv2Vn4d563iLhED7fNjsATzd3IldDLq+bgVy9ejX06obo1avUc6+GDJ8OsV1nh8kwb+zchGuoe7bJDvA9htkAAACgTYYg2ncRd1sjujns7UWtdRd3b7a6HmkdutwiUWu9jIib7ByDa/ZT5jzINjvAgN53NkykV7dPr26UXr06XfZqWNhF3F0nOuwQ25dcQ921l6WUk+wQ32KYDQAAABpTStlExOvsHPzQX2utm84OersyX/9xEj49vAY9b5EwQJHLVaN92GQHGFA3A0V69Sro1Y3Tq1el514Nx3Ybf7wm7bPDtGi+hvok7q4Epx+b7ADfYpgNAAAA2jNlB+C7biLiv+c38GhcrfXD/Onh99lZ+KleD92m7ADY6rVm85aAl8kxRnPb2XasKTsA36VXr4hevSq99mo4pvO42xDqNekn5teDtxHx57ClrReb7ADfYpgNAAAAGlJK2UbEi+wcfNNVRLyarw5kRWqt24j4LTsHP/Rsfv7ryrxlxqfWc7lqdN38/JY3ZQc4FL26aXr1SunVq9Blr4YjuY2Iv9Ra39oQ+jDzhx9eha2dPdhkB/gWw2wAAADQll12AL7pfa31lTc316vWuouIv2Tn4Id22QGOZMoOMDhXja7bNjvAgKbsAAe0yw7AN+nVK6dXr8IuOwCswMfB6ik7yFrVWq9t7exCk//ObJgNAAAAGmF7RLP+Om8gYOXmN6kdvLXrRSmluy1M8yfWXb+Sy3VbK+SK0RQ3vWzK0qubpVd3Qq9uXpe9Gg7ofURsaq3X2UF6ML+2/zU7B0+yyQ7wJcNsAAAA0I5ddgC+8pda62l2CA7HwVvzeh06mrIDDM5h7jptsgMMqKfOs8sOwFf06s7o1c3rtVfDU/211rq1IfSw5td4rwnrZTMbAAAA8DXbI5pzG3cHblN2EA7PwVvTXrd4vcUBOLzP9cx2klXyM1veWXaAQ9Crm6NXd0yvblqvvRoe6zYi/myw+ni8JqzaJjvAlwyzAQAAQBt22QH43W3cXTcxZQfheLzJ2rTutkjM19dcZecYnMGoFSmlPI+IN9k5BnPR0VVbu+wA/E6vHoBe3bTuejU80sfXoy4G91vmNWG1XpRSTrJDfMowGwAAACSzPaIpH9/gvMwOwvHNb7K+z87BV36ZB1l6YwNALsNs6+LntbwpO8Ah6NVN0asHolc3q9deDQ/h9WhhBtpWq6ltnobZAAAAIN8uOwC/e+sNzrHUWrcRcZ6dg69sswMcwVncHaSQw1Wj6+Jntazb6OSK0dCrW6JXD0avbtY2OwAkMsiWZB5o+y07Bw+yyQ7wKcNsAAAAkMj2iKb8pda6zw5Bim24ArI13V2JVGv9EP0Mi6yVAan12GQHGMzZ/By1anp1U/TqcW1Dr25Nd70a7skgW7Ja6y5s7VwTm9kAAACA33ljuQ1/mT81yoDmA/xt2JrVkhedbtGasgMMrsfHVHfm3/1n2TkG08ugrV7dBr16YHp1k3rt1fAjBtna8S4MOa/F6+wAnzLMBgAAAElKKZuIeJmdg/iHAzfmN7kdgrelu0O3eUvNTXaOgblqdB38jJZ1U2td/TCbXt0MvRq9uk1eWxnN1iBbGww5r0sppZntbIbZAAAAIM8uOwBxXmt10EJERMyHr67AaMcvpZTn2SGO4DQ7wOAc5rbPz2hZqx9km+2yA6BX8we9ujm99mr4lr/0MKjfk3mwcJedg3sxzAYAAAAjK6WcRGPr2wd0FXefDoVPvQubs1qyzQ5wBA5WchmUati8XcsVo8uasgM8lV7dBL2ab9Gr27LNDgALeG9DaJtqracRcZGdg58yzAYAAACD22UHGNxtRLydrzuA331yBQZt2GYHOLRa63VEnGfnGJirRtvmZ7Osq06u4NplBxicXs036dXN2WYHgCO7qrVus0PwQ9tw3WjrDLMBAADAqObrPRzW5trOAyXwlVrrPiL+kZ2DiIh4WUpp5s3UA5qyAwzOa3C7/GyWNWUHeCq9ugl6Nd+lVzel114NEXcDUpvsEPzY3BdOs3PwQ81sOzbMBgAAAMvbhiu0Mv2j1uqaP35mFz4x3IptdoBDm5+DPL7y/DIPwNCQ+YD9RXaOwfTQh7ahV2fSq7mPXeg9rdhmB4AjsSF0JWqtu3AFddNKKSfZGSIMswEAAECGd9kBBnZVa/X956fmN8I9VtrQ68adKTvA4Hp9XK3ZNjvAYM472abltTqPXs296NVN0X/o0T/mLZCsh9eEtp1kB4gwzAYAAACLKqW8DVtHstyGg3IeoNY6RcRFdg7ixfzc2ZspO8DgenxMrd0mO8BgVr9NS69OpVfzIHp1M3rt1YzLYPUKzVtdvSa0a5MdIMIwGwAAACxtmx1gYLta62V2CFZnlx2AiOhw8Gh+PrrKzjGwN64abcd8lc3L5BgjuY0OhtlCr86kV/MYu+wARESHvZqhbbMD8Gi77AB810l2gAjDbAAAALCY+aD2TXKMUV3UWk+zQ7A+83Ul77Nz0O2hm+elXL0+rtbIz2JZZ/O1f6ulV6fSq3kUvboZXnPpxW8Gq9drfk2wna1NJ9kBIgyzAQAAwJK8aZzHtRM8xS47APGs0yuRetiMtGY9PqbWapsdYDA9PPf4/c2jV/MUu+wAdNurGctN+GBQD/wM2/Q6O0CEYTYAAABYkoOfHD6ty5PUWq/DFokWdHfoNm9G8tjK46rRBrhidHE3tdYehtn06hx6NU+iVzeju17NcLZr3zJLxNxJb7Jz8LUW/j3ZMBsAAAAsoJTyKiJeZOcYkE/rcii77AB0e+g2ZQcYXK+PqzXZZAcYzOoH2fTqNHo1h7LLDoD+w6pdzFdU0odddgC+6VV2AMNsAAAAsAzbI3K882ldDsEWiSY8K6VsskMc2nwQ49PoeRzm5vMzWNaUHeAA9OocejUHoVc3octezTC22QE4qLOIuM0OwVdOsgMYZgMAAIBlOKhd3kUn12jRjik7AN0+l07ZAQbmqtFE8/f+TXaOgVx1ckVkr68FLdOrObQpOwCeS1ml9/NALJ2YB+V1jPacZAcwzAYAAABHVkrZRsSz7BwD2mUHoC/zBq2L7ByD6/XQbcoOMLheH1dr4Hu/rCk7wFPp1Wl22QHoi17dBK/BrM1t2M7aqyk7AF9xzSgAAAAMwJvEy3s/H5DAoU3ZAQb3opSS/qbqoc3bBc6zcwxsmx1gYDrSsnrYeuExszy9mmOZsgMMrsteTddOXXfdp7ln3GTn4DPp28sNswEAAMARuT4rzS47AH2qtU5x94lw8myyAxxJD0Mma/W6lHKSHWJQm+wAAzlf+7VcenWaXXYA+qRXN2GTHQDu6TYiTrNDcFT+fbgt6cPOhtkAAADguGyPWN77tR/W0rwpO8DgunxedaCbrsvHVctKKW/DdZFL6uGA0O/p8vRqjm3KDjA4z6usha1s/ZuyA/CZ9H9PM8wGAAAAx+XN4eXtsgPQPZ8Iz/V63s7Tox6GTdZqmx1gQDrScm6jj+cXj5nl7bID0D29OlfPvZq+eK7oXK31Mlw12pTsq6gNswEAAMCRuAophe0RHN38GLvKzjG4TXaAI3FIk+elq0YXZzBpOWdr32aiV6fQqzk6vboJm+wA8BPv195juLd9dgA+kzrsbJgNAAAAjsch7fKm7AAMw9BRrk12gGOYP43uQDeP1+2FlFI20cDVNQOxlY3HmLIDMAy9OtcmOwD8xC47AIvpobP25CTzixtmAwAAgONx6Lasi1rrPjsEw/Ama66en1+n7AAD22YHGEjPv8Otuam19vCa5TGzLL2aJfXwHLVmnl9p2YUtoUPZZwfgMyeZX9wwGwAAAByPq5CW5RP9LGa+5uQ8O8fAXnR8JeSUHWBgrhpdjoPz5fQyJKJXL0uvZjF6dbqeezXr5/VoIPPrwUV2DtpgmA0AAACOoJTikHZZvWwdYV085nJtsgMcw/wG/vvsHAPz+n1kpZRXEfEiO8dApuwAT6VXL06vJoPHXK5NdgD4Bq9HY9pnB+B3m8wvbpgNAAAAjsOh27Km7AAMaZ8dYHCb7ABH5NAmzzY7wAC22QEGclVrvcwOcQB69bKm7AAMaZ8dYHCb7ADwDVN2AFLsswPQBsNsAAAAcByb7ACDmbIDMJ5a63VEXGXnGNgmO8CxzBsIbrJzDMpVo8e3yQ4wkCk7wIFssgMMZsoOwHj06nSb7ADwDVN2AFL08EEMDsAwGwAAAByY67MWdz4ffkAGG7TyvOh86GjKDjAwW6COZP6dfZkcYySrf43SqxenV5Np9c9ZK9Z7r2Z9vB4Nqtb6IQw3t+J15hc3zAYAAACH5xB8WVN2AIa2zw4wuFfZAY5oyg4wsG12gI7pSMvp5RDYY2ZZU3YAhrbPDjC4nns162O4dWy2s2GYDQAAAI5gkx1gILfzdXyQota6j4jb7BwD22QHOJZ5COUiO8egXs7boDi8bXaAgfTSjzbZAQaiV5NKr063yQ4An/B6NDbDbBhmAwAAgEMqpTyP5DXsg/EGJy3YZwcY2CY7wJFN2QEGts0O0BtXjC7qNjroSHr14lb/mKEL++wAA9tkB4DZ+XzVJOMyzNaIUsom62sbZgMAAIDD2mQHGIxDN1qwzw4wsN4HY87ChpIsrjY8vE12gIGcdXIIvMkOMBi9mhbsswMMrPdezXp4PcIwG4bZAAAA4MA22QEG4iokWuGN1kSZnxQ+tnkYxfNcjheuGj04A4LL6eV5Y5MdYCB6Na3QqxP13KtZFa9Hg5v/PdiHugZnmA0AAAAOa5MdYCDe4KQJtdZ9dobBbbIDHNlpdoCBbbMD9GK+LvJNdo5B3HQ0lLTJDjCQXh4zrJxenW6THYDhuWKUjww3D84wGwAAABzIfFDrao7lOHSjJRfZAQbW9fasWutlRNxk5xiUTWKH43u5nC76kV69uC4eN3RDr87Tda9mFbwe8ZFhtjZssr6wYTYAAAA4nE12gJF0tHWEPnijNc8Ih262s+Vw1ejhGGZbzpQd4EA22QFGolfTGL06j95Dtn12AJphQ9/gDLMBAADA4WyyAwzkPDsAfMGhW54X8wafnk3ZAQa2zQ7QiU12gEFczdsce7DJDjAQvZrW9PI8tkYj9GradVVrvc4OQTP22QHIZZgNAAAADmeTHWAg++wA8AWHbrm63iJRa/0Qhg2y2Cj2RKWUtxHxLDvHIKbsAAe0yQ4wkH12APiCXp2r615N0/bZAYB2GGYDAACAA5g/vfwyO8dA9tkB4FMdbcJZq012gAVM2QEG5arRpzMQuJwurorUqxe3zw4An9Kr022yAzCsLnoMB+O1YHCG2QAAAOAwHHQv58YBB426yA4wsJPsAMdWaz2LiJvsHIPaZgdYOcNsyzjv6GouvXo5ejWt0qvznGQHYEy11n12Btoxbycn3ybrCxtmAwAAgMPYZAcYyD47AHzHdXaAgY0y+GBbQQ7DWI9UStmEK0aX0tPzwyY7wED22QHgO66zAwxslF5NWwyw8i0+zDUww2wAAABwGJvsAAOxPYJWXWcHGNgo19GdZgcY1It5KIuHMwi4jNswzMbj6NW06jo7wMBG6dW0ZZ8dgCZdZwcgj2E2AAAAOAyfXl7OPjsAfIcD4USllO6fh+crBG0tyLHNDrBShtmWcdbZVUzdP583ZJ8dAL5Dr040Qq+mOfvsAEBbDLMBAADAE5VSTsIVWku5rbU62KBVPQ0SrNFJdoCFTNkBBmUo64Hmg/AX2TkG0c1WNr16UXo1LdOrc51kB2A4Xo/4Fo+LgRlmAwAAgKfzqeXleCOLZtVa99kZBjfKc/FZ3F0pyLKelVIMtD3MNjvAIG5qrd0Ms8U4z+Ut0Ktpll6dznMxS7rqbMMsh+NxMTDDbAAAAPB03uhdzj47APyEIaM8QzwXzwc9PQ2urIlhtofZZAcYRG/PB0M8lzdinx0AfkKvzuO5mCUZrga+YpgNAAAAnm6THWAg3uSkdR6jeZ5nB1jQlB1gUIbZ7mm+KvJlcoxRnGYHOLBNdoCB6Cy0zmM0z0i9mnx+14GvGGYDAACAp/Op5eV4kxP4ntfZAZYyX711k51jQK4avT/fp2Vc1Vqvs0McmF69HL0a+J5hejVN8HrE9+yzA5DHMBsAAAA8wbx55FlyjGF0eGBLf/bZAUY2PyePordtTGthSOt+ttkBBjFlBzgkvXpZejUrsM8OMLLBejWJ5g/qAHzmT9kBAICIiLiotW6yQwAAj3KSHWAgF9kBgOadRMR1coalnEXE37NDDMgw20+4YnRRU3aAAzvJDjAQvRr4mZMYp1eT5yo7ANAmm9kAAADgaTbZAQZynR0A7sEVKblOsgMsZd6oc56dY0CuGv25TXaAQZzXWj9khziwTXaAgVxnB4B70KtznWQHYAjX2QGANhlmAwAAgKc5yQ4wkOvsAHAPvQ0WrM1JdoCFTdkBBmWY7cd8f5Zxlh3gCE6yAwzkOjsA3INeneskOwBDMLQKfJNhNgAAAHiak+wAA9lnBwCa9yo7wJJqrWcRcZudY0CGtb6jlPI8It5k5xjAba11yg5xBCfZAQayzw4ANG+oXk0aw2zAN/0pOwAAAACs3OvsAAN5VUrJzgA/8zw7wOBG/P5PEfFrdojBPCulbDsdJnoqg37L6HErW4RevSS9mjUYsde1xPefJVxnBwDaZJgNAAAAHqmUcpKdYTB/zw4ANG/EDRKnYZgtw9twzeu3GGZbxpQd4ND06sXp1cDPjNirWVit1WY2fsTjY2CuGQUAAIDHO8kOAMBnnmUHWFqt9ToirrJzDOjNfKUmn9tkBxjATa11nx3iCE6yAwDwmeF6NYu7yQ5A22qtH7IzkMcwGwAAADyeTyoDNGbQ7T6n2QEGZQvZJ0opb8PB9xJ6vWJUrwZozKC9muVcZwcA2mWYDQAAAB7PRhaA9pxkB0jQ63BL6wyzfc73Yxm9Dq/q1QDtOckOQNdcIQl8l2E2AAAAeLxNdgAAvjLcQMR8/cr77BwDctXo5wyzHd/VfLVwjzbZAQD4ip7DMblCEvguw2wAAADweN7YBWjPqFfVTdkBBmWAKyJKKZtwxegSpuwAR6RXA7Rn1F7NMmxmA77LMBsAAAA83svsAAAQEVFr3UfETXaOARlmu+P7sIwpO8AR6dUAMBab2YDvMswGAAAAj+BaMYBmjbxBYsoOMCBXjd4xzHZ85/OVwt3xOwTQrJF7NcdnMxvwXYbZAAAA4HG8qQvQppGHIqbsAIMaepCrlPIqIl5k5xjAWXaAI9KrAdo0cq/myHod0gcOwzAbAAAAAEAHaq3XEXGenWNAQw+zRcQ2O8AAbmutU3YIAIADuc0OALTNMBsAAAA8ziY7AADfNPqGn563N7Vq9KtGN9kBBtD77/UmOwAA3zR6r+Z4XDEK/JBhNgAAAACgJ8+yA2SatzfZdLC8IbezlVJOIuJlcowRTNkBABjS0L0agDyG2QAAAOBxfEIZgFZN2QEG9C47QJIhh/gWdlNr3WeHODK9GgDGcp0dAGibYTYAAAB4nJGvEwNoWill9MGIKTvAgF7OW8pGs80OMIDerxiN0KsBmqVXcyTX2QGAthlmAwAAAAB6M/RgRK31MiKusnMMaKgtZa4YXcxpdgAAhjZ0rwYgh2E2AAAAeJzX2QEA4AcMwCxvmx1gYZvsAAO4qrVeZ4dYgF4NAGP5kB0AaJthNgAAAACA/oxwNWFrRrtqdKhNdEmm7AAAAEdwmR0AaJthNgAAAACgN6+yA2SrtX6IiPfZOQY0xIBXKeV5RLzJzjGAKTsAAMMbvlcDsDzDbAAAAPBApZRNdgYAfuh5doBG2M62vG12gIUMMbSX7HweSu2aXg3QPL0agMUZZgMAAAAA6FCt9SwibrJzDGaUq0YNsx2fYVQAAGBIhtkAAAAAAPo1ZQcY0AiDXpvsAJ27rbVO2SEAAI6h1rrPzgC0zTAbAAAAPNxJdgAAuKcpO8CAttkBjqmU8jYinmXn6NxIW9lOsgMAAABtMcwGAAAAD3eSHQCAHzrJDtCKWut1RFxk5xhM71eNjrB5LtuUHWBBJ9kBAPihk+wAAIzHMBsAAAAA0JuT7ACNmbIDDKjnga+e/39rwY2rtwBoyEl2AADGY5gNAAAAAKBjtdYpIm6zcwzmXXaAYyilbMIVo8c20hWjAAAAXzHMBgAAAADQPwMyy3pRSnmVHeIIbGU7vtPsAAAAAJkMswEAAMDD9Xg4DUDfCPldwAAAIABJREFUDMgsb5sd4AgMsx3XVa31OjvEwvRqAADgM4bZAAAA4OGeZwcAgIeotV5GxFV2jsF0Nfg1b5p7kZ2jc1N2gAR6NQAA8BnDbAAAAAAAY5iyAwymt6tGt9kBBjBlBwAAOLLb7ABA+wyzAQAAAACMYcoOMKBtdoAD2mQH6Nx5rfVDdggAgCO7zA4AtM8wGwAAAADAAOZBmfPsHIPp4qrRUspJRLxMjtG7s+wAAAAALTDMBgAAAAAwjik7wGB6uWq0i6G8ht3WWqfsEAAAAC0wzAYAAAAAMIha61lE3GTnGMw2O8ABbLMDdM5WNgAAgJlhNgAAAACAsRicWdaqt5q5YnQRU3YAAACAVhhmAwAAAAAYy2l2gMGs/arRTXaAzt3UWvfZIQAAAFphmA0AAAAAYCC11uuIuMjOMZhtdoAnWPVmuRWwKREAAOAThtkAAAAAAMYzZQcYzDY7wGOUUp5HxJvsHJ2zKREAAOAThtkAAAAAAMZzFhG32SEG8qyUssYNZ2vMvCZX86ZEAAAAZobZAAAAAAAGU2v9EK43XNoaB8PWmHlNpuwAAAAArTHMBgAAAAAwJtcbLmuNg2Gb7ACdm7IDAAAAtMYwGwAAAADAgGqtlxFxk51jIKu6anTO+iw7R8fO5w2JAAAAfMIwGwAAAADAuGxnW9ZqhtliXVnXyDW/AAAA32CYDQAAAABgXAZqlrWmAbE1ZV2b21rrlB0CAACgRYbZAAAAAAAGVWu9jojz7BwDWcVVo6WUTbhi9JgMkQIAAHyHYTYAAAAAgLFN2QEG0/wwW6wj45q53hcAAOA7DLMBAAAAAAys1noWEbfZOQayhkGxNWRcq5ta62V2CAAAgFYZZgMAAAAAYMoOMJCmrxotpbyKiBfZOTo2ZQcAAABomWE2AAAAAABce7isZofZImKbHaBzU3YAAACAlhlmAwAAgIf7kB0AAA6p1nodEVfZOQbytpTyPDvEd2yyA3Tsav5d4w96NQAA8BnDbAAAAPBwl9kBAOAIbGdbzrNocDtbKeUkIl4mx+iZ37Gv6dUAAMBnDLMBAAAAABARcRYRt9khBtLcMFu0maknZ9kBAAAAWmeYDQAAAACAqLV+CMM2S3rT4FWj2+wAHTuff8cAAAD4AcNsAAAAAAB8NGUHGEwzm9BcMXp0U3YAAACANTDMBgAAAA93nR0AAI6h1rqPiJvsHANpZpgtIjbZATp2W2u19fDbrrMDAAAAbTHMBgAAAA93nR0AAI7oNDvAQFq6arSlwbreGGT7vuvsAAAAQFsMswEAAAAA8CmDN8tKHyKbB+reZOfomAFRAACAezLMBgAAAADA72qt1xFxnp1jIOnDbNFGhl7d1Fovs0MAAACshWE2AAAAeKBa6z47AwAcme1sy2nhqlHDbMczZQdomV4NAAB8yTAbAAAAAACfqbVOEXGbnWMg2cNkm+Sv37MpOwAAAMCaGGYDAAAAAOBbpuwAA0kbZiulvI2IZ1lfv3NX87W9AAAA3JNhNgAAAHici+wAAHBkU3aAgWReNZq9Fa5np9kBVkKvBgAAfmeYDQAAAACAr9RaLyPiKjvHQLZJX9cw2/GcZQcAAABYG8NsAAAA8DgfsgMAwAJsllrOdukvWErZhCtGj+W81qov3o/vEwAA8DvDbAAAAPA4l9kBAGABNkst52Up5WThr2kr2/FM2QFWRK8GAAB+Z5gNAAAAAIBvmjdLvc/OMZClh8sMsx3Hba3VICgAAMAjGGYDAACAx7FBAoBRTNkBBrJd6guVUl5FxIulvt5gDLI9jF4NAAD8zjAbAAAAPM6H7AAAsIRa6z4ibrJzDGLJq0a3C32dEZ1mB1gZvRoAAPjdn7IDAAAAwErZIJHjota6yQ4BMKApIv6WHWIQb2OZYajNAl9jRDe1Vj3xYXy/cujVAAA0yWY2AAAAeIRaqw0SOU6yAwAMasoOMJDtsb/AvP3t5bG/zqCm7ABro1enOckOAAAA32KYDQAAAB7vKjvAgF5kBwAYUa31OiIusnMMYomrRt8e+e8f2ZQdYKX06uXp1QAANMkwGwAAADyeLRIJSimvsjMADGrKDjCQYw+bbY/894/qah785OH06gR6NQAALTLMBgAAAI93mR1gUM+zAwCMqNY6RcRtdo5BbI/1F7ti9KhOswOsmF6dQ68GAKA5htkAAADg8WyQyLHJDgAwsLPsAIM45lWjmyP9vfj9eAq9OscmOwAAAHzJMBsAAAA83j47wKBOsgMADMzmqeW8O9Lfe+wrTEd1Xms1kPV4++wAgzrJDgAAAF8yzAYAAACP58Ayx6vsAACjqrVeRsRVdo5BHHzorJTyPCLeHPrvJSIipuwAK6dX59CrAQBojmE2AAAAeKT5QJ/lvcwOADC4KTvAIF6UUg49aGIr23Hc1lpdMfoEenUavRoAgOYYZgMAAICnsZ0mwREO9wG4vyk7wEC2B/77DLMdh0G2w9CrE+jVAAC0xjAbAAAAPM11doBBOXQDSFJr/RAR77NzDOLQw2ebA/993DnNDtCJ6+wAg9KrAQBoimE2AAAAeBpXIuVw6AaQyyaqZRzsqtFSytuIeHaIv4vP3Lgi82B8H3Po1QAANMUwGwAAADyNQ7ccm+wAACOrtZ5FxE12jkFsD/T3uGL0OKbsAB3Rq3NssgMAAMCnDLMBAADA01xnBxjUy1LK8+wQAIObsgMM4lBDaIbZjmPKDtCR6+wAg9KrAQBoimE2AAAAeALXSqVyJRJArik7wCCefNVoKWUTrhg9hqta63V2iF7o1an0agAAmmGYDQAAAJ7uIjvAoDbZAQBGNg/xeA1cxvaJ/7ytbMdxmh2gQ55TcmyyAwAAwEeG2QAAAODprrMDDGqTHQAA29kW8tRhNMNsx3GWHaBD19kBBrXJDgAAAB8ZZgMAAICncyVSjtellOfZIQAGdxYRt9khBvDoq0bnf+7FgfMQcV5r/ZAdokN6dQ69GgCAZhhmAwAAgKdz6JZnkx0AYGTzMI/tVMt498h/bnvIEPxuyg7QKb06zyY7AAAARBhmAwAAgCerte6zMwzMtWkA+U6zAwzisa95m0OGICIibmuthjiPQK9OpVcDANAEw2wAAABwGBfZAQa1yQ4AMLpa62VE3GTnGMCzUsqDhk1KKScR8fIoacZmkO249Oocm+wAAAAQYZgNAAAADsWVSDlelFJeZYcAwHa2hTx0c5JNS8fh8X5cenUOvRoAgCYYZgMAAIDDcOiWZ5sdAICYsgMM4qHDadtjhBjczbyNkOPx/c2zzQ4AAACG2QAAAOAw9tkBBmbrDECyWuuHiDjPzjGAe1816orRo5myAwxgnx1gYHo1AADpDLMBAADAAdRaryPiJjvHoFyJBNCGKTvAIO47bLI5ZoiBTdkBeqdXp9KrAQBIZ5gNAAAADmefHWBg2+wA8BSllHcOj1m7WutZGEBZwn2H2WxYOryLedCK49tnBxjYNjsAPIVeDQDrZ5gNAAAADucyO8DAHNizWvNh298j4t+llMv5AO4kNxU82ll2gAH89KrRUsrziHizUJ6RTNkBBqJX59GrWS29GgD6YJgNAAAADmefHWBgL352sA8Ne/fJf34Zdwdw//nkAO55Ui54jNPsAIP42Wue18TjMKy5nH12gIHp1ayZXg0AHTDMBgAAAAdSa72MiNvsHANz6MbqzAdq33vsfjyA+79SylkpZesAjtbNVzBeZecYgGG25b2vtX7IDjEKvTqd5xBWR68GgH4YZgMAAIDDsrEjzy8OJFihtxHx7B7/vTcR8c/45ADuqKngaWxnO76fXTW6WSrIQHS85fme59GrWSO9GgA6YZgNAAAADmufHWBw737+X4Gm7B7xz7yJiH+WUj6UUiZXgdGgs7BRaQnf/N2fnxPuc5jP/d3WWg1WLW+fHWBwejVrs3vEP6NXA0CDDLMBAADAYe2zAwxumx0A7quUsomIF0/4K55FxC8R8a9PDuBeHSQcPMF8FaPBn+P73uYkB/GHN2UHGNQ+O8DgttkB4L70agDoi2E2AAAAOKBa63VE3GTnGNgL18SwIrsD/l0fD+D+XUq5LqWcOoAj2ZQdYBDfGlwzzHZ4U3aAEenV6fRq1mR3wL9LrwaAZIbZAAAA4PBso8m1zQ4AP1NKOYmI10f6619ExK/xxwHcu/nrwWJqrfswhLKEzwbX5s00rhg9rJta62V2iIHp1bm22QHgZ/RqAOiPYTYAAAA4vH12gMG9ng/zoWW7hb7Oi4j4e0T8p5Ry6QCOhZ1mBxjAmy+uGrWV7fA8jnPtswMMTq9mDXYLfR29GgAWYpgNAAAADqzWehYRt9k5BrfLDgDfMx96/ZLwpV/GHwdwZ6WU7RdDMHBoNiot4+13/jOH4XGcSK9uwi47AHyPXg0AfTLMBgAAAMexzw4wOFskaNkuO0BEvImIf0bE/308gEvOQ4dqrdcRcZ6dYwBvIyJKKa/ibmsMh3MxP47Jtc8OMDi9mpbtsgOEXg0AB2eYDQAAAI7DFo98u+wA8KXE7RE/8iYi/llK+VBKmUopNjtxSFN2gAF8vGp0mx2kQ1N2ACJCr27BLjsAfEmvBoB+GWYDAACA43Dols8WCVq0yw7wA8/i7kDwX58cwL3KDsW6uSJwMW8jYpMdokP6XBv8HPLp1bRolx3gB/RqAHgCw2wAAABwBLXWDxFxkZ2DOM0OAB/Nh8CtbY/4no8HcP8upVyXUk4dwPEEU3aAAbyLiJfZITrzfu5zJNOrm6FX0wy9GgD6ZpgNAAAAjscWiXwvSynb7BAw22UHeKQXEfFr/HEAt5uvdYL7MgBxfAbZDk+Pa4ufRz69mpbssgM8kl4NAPdgmA0AAACOx6FbG05LKc+zQzC2UsrbiHidneMAXkTE3yLiP6WUy1LKOwdw/Eyt9ToirrJzwAPczlfk0g4/jzbo1aTTqwGgf4bZAAAA4Egc3jfjWaz3k/t0YD707XEz1cuI+HvcHcDtSylbB9z8QI+/A/Rryg7A5/TqZujVpNKrAWAMhtkAAADguKbsAERExK+llFfZIRjWu7jbvNCz1xHxz4j4v1LKmQM4vsFWJdZkyg7AN03ZAYgIvZpcejUADMAwGwAAAByXw/t2TNkBGM982Pu37BwLexN3B3DXpZRpvgqKwdVaP0TE++wccA83tdbL7BB8k17djik7AOPRq/VqAMZhmA0AAACOaL4S6Tw7BxER8bKUsssOwXCm7ACJnkXELxHxr1LKh/kAbpOciVxTdgC4hx6vr+uCXt0UvZoMU3aARHo1AEMxzAYAAADHZ4tEO/7mWiSWMh/yvszO0YiPB3D/W0q5LqWc+l0cT611HxE32TngJ/S2tvn5tEOvZjF69Wf0agC6Z5gNAAAAju8sIm6zQ/C7qZTyPDsEfRv0GqT7ehERv0bEv+cDuF0p5SQ3EguasgPAD1zM279ol17dFr2ao9Orf0ivBqBLhtkAAADgyGqtH8IWiZa8DFeIcUTzoe6UnWMlXsTd4eR/SimXpZR3DuC6N2UHgB+YsgPwY3p1c/RqjkqvfhC9GoBuGGYDAACAZUzZAfjML6WUbXYIurUL1yA9xsuI+HvcHcDtSylb2176M2+9Os/OAd9hSGodpuwAfEav5ph2oVc/hl4NwKoZZgMAAIAF1Fr3EXGTnYPPnM5X1sDBzIe5v2bn6MDriPhnRPxfKeXMAVx3DAzRovfz1i8ap1c3Sa/m4PTqg9GrAVgdw2wAAACwnCk7AJ95FhFn3sjnUOZDXFdtHd6b+OMAbiqlvM0OxNPUWqeIuM3OAV8wZLkuU3YAPqNXc1B69dHo1QCsgmE2AAAAWM6UHYCvvAiH1xzAfHg7xd1hLsfzS0T8q5TywQHc6k3ZAeATt7VWfWBdpuwAfEWv5iD06sXo1QA0yzAbAAAALKTWeh0R59k5+MrrUsqUHYLVO4uIl9khBvIs/jiAuy6luN5sfabsAPCJKTsAD6NXN0uv5hD06mXp1QA0xzAbAAAALMtVKW36pZSyyw7BOs2Htq+zcwzsRUT8GhH//uQA7iQ3Ej9Ta72MiKvsHDCbsgPwKHp1m/RqHk2vTqdXA9AEw2wAAACwoFrrPiJusnPwTX8rpWyzQ7AupZTTuNtkQBs+HsAZcFiHKTsARMTNPFzJyujVTdOreTC9ujl6NQBpDLMBAADA8nbZAfiufzp4477mx8qv2Tn4Jodu6zBlB4DwfLF2u+wAfJdezb3p1U3zOgnA4gyzAQAAwPLOIuI2OwTf5eCNn5ofI//MzsE33czbemhcrfVDRLzPzsHwzrID8CR6ddv0an5Kr26aXg1ACsNsAAAAsLD58H7KzsEPOXjjuxy4NW+XHYAHMUhEpota63V2CB5Pr14FvZrv0qubt8sOAMCYDLMBAABADld1tM/BG19x4Na8m1rrlB2C+6u1nkXETXYOhjVlB+Ag9Or26dV8Ra9unl4NQBrDbAAAAJBg3gLiarX2/bOUMmWHoA2llNNw4NY6Aw3rNGUHYFg2A3ZAr14NvZrf6dWroFcDkMYwGwAAAOTZZQfgXn4ppUyllOfZQcgzH77+mp2DH7oNQ1FrNWUHYEjv5ysq6cMuOwD3olejV6+DXg1AKsNsAAAAkGTeInGRnYN7+SUi9g7exlNKeV5KuYy7xwBtOzWYsk5eD0liK1tHPI+sil49KL16VfRqAFIZZgMAAIBcu+wA3NvLiLgupWyyg7CMUsqriLiMu589bbsNVyGt3ZQdgKHc1loNs/Vnlx2Ae9OrB6NXr4peDUA6w2wAAACQqNa6D1sk1uRZRPxvKeVddhCOq5SyjYh9RLzITcI92R6xcrXWKe4OT2EJU3YADk+vXh29ehB69ero1QCkM8wGAAAA+XbZAXiwv5dSXI/Uofn6oyki/hl3h6y0z/aIftiUxVKm7AAczS47AA+mV3dKr14lvRqAJvwpOwAAEBERz63VBxJc11qvs0MAd1skSikXEfE6OwsP8jrurkfauqqsD3Mnn8LWiLWxPaIfpxHxS3YIundTa73MDsFx6NWrpVd3Rq9eLb0agCYYZgOANryMiP/NDgEM57fwqXVoyS70gTV6FhH/KqWcR8TWG//rNG8C2UXEr8lReDjbIzpSa70spdyEg2+Oy3NG/3ahV6+RXt0BvXrV9GoAmuGaUQAAAGhArXUfERfZOXi0NzFvk8gOwsPMWyMuw4HbWu0cdnfHISrHZutT5/Tq1dOrV0qvXj29GoBmGGYDAACAdrzLDsCTPIuIf5ZS9qWUV9lh+LFSykkp5SzuNrfYArVON7VWg0/9mbID0LWLWut1dggWoVevm169Inp1F/RqAJpimA0AAAAaUWu9jIj32Tl4stcR8e9SylRKOUnOwhdKKc9LKbuI+E/cbf5gvXbZATi8eSPIeXYOujVlB2AZenU39OqG6dVd2WUHAIBPGWYDAACAtuyyA3Awv0TEf0opu1LK8+wwo/vksO06Iv6Wm4YDuKi1TtkhOJopOwDdcsXoWHbZATgYvbohenV39GoAmmOYDQAAABoyX331W3YODupvEXE9H76dJGcZzjcO256lBuJQdtkBOJ5a61lE3GTnoDvv581/DEKv7pJenUiv7tYuOwAAfMkwGwAAALTnNCJus0NwUM/i7sDnP65JWkYp5aSUMoXDth6d11r32SE4Ohu0ODSPqTHp1f3RqxemV3dNrwagSYbZAAAAoDHz1pB32Tk4mo/XJO1LKW+zw/SmlPK2lHIWEf+Ju++1w7a+3Ibnx1GcZgegK7fzxj8Go1d3T68+Ir26e3o1AM0yzAYAAAANqrVOEXGVnYOjeh0R/yqlXJdSTm2VeLxSyqv5e3gdEf+KiDfJkTie0/naODo3/5wvsnPQjSk7AHn06iHo1QeiVw9FrwagWYbZAAAAoF0+JT2GFxHxa9xtlbgspbxzAPdz83VH70oplxHx77j7Hr5IjsVx3dRad9khWNSUHYBuTNkBSKdXj0GvfgS9ekh6NQBNM8wGAAAAjaq17iPifXYOFvUyIv4enx/AvcoO1YpSyuaTTRH/ibvv1cvcVCxomx2AxZ3F3RVY8BRXtdbL7BDk0quHpFf/gF49vG12AAD4kT9lBwAAAAB+6F1EvI2IZ9lBWNzHA7gopdxExP7jn1GugymlbCLiVURswhVHozufBxEYSK31QynlLCJ+yc7Cqk3ZAWiGXj0uvVqv5g96NQDNM8wGAAAADZsP8ncxH74wrBdxN8zxS8Rnh3CXcXcIt/qNM/MVUB8P2F5FxOvEOLTlNlwPN7LTMMzG05xlB6ANejUzvZqR6dUArIJhNgAAAGhcrfW0lPI2HELwhy8P4SIiruLuEO467g7krlvcNDFf7/Q87g7XTuY/Htv8yK7FxzLLqLVezoMGL7KzsErnnj/4lF7NN+jVjESvBmAVDLMBAADAOmwj4j/ZIWjay/lPRMTfIn4/jLuJu4O4j38i7g7lPrqstX54yhcupTyPu60PH308WIu4O1z7+L9zrRcPdVFrPc0OQbrTsEmJx7GVjW/Zhl7Nj+nV9EivBmA1DLMBAADACtRar0spv8V8mAIP8GL+8+mWhs8eR/Ph3LdcRcTHAzlbHljabdwNHMBZGGbj4W7DMBvfoFfzBHo1a6VXA7AqhtkAAABgJWqtu/lapJc//S/DYXiskenUNUhE/D54ch4Rb7KzsCpnT92QRL/0ahJ4rJFJrwZgVf4rOwAAAADwINvsAAALuKi17rJD0JQpOwCrYysbP7PNDgCwAL0agNUxzAYAAAArUmu9jIjfsnMAHJFrkPhKrfUs7h4bcB8382MGvkuvBgagVwOwSobZAAAAYGXmT1VfZOcAOJKda5D4jik7AKthkI170auBzunVAKySYTYAAABYp23YUAP057zWepodgmZ5bHBfU3YAVmUbejXQH70agNUyzAYAAAArNH+6epscA+CQXIPED82vfVfZOWje1Xx9JNyLXg10SK8GYNUMswEAAMBK1VrPIuJ9dg6AA3lba/2QHYLm2TDCz0zZAVgfvRrojF4NwKoZZgMAAIB1exe21ADr91utdZ8dglU4C9cB8mNn2QFYLb0a6IFeDcDqGWYDAACAFZs/bb0NB/vAel3UWnfZIViH+XXPsBLfcz5fGQkPplcDHdCrAeiCYTYAAABYuVrrZdxtkgBYm9uIeJsdgtWZsgPQLIOOPIleDayYXg1ANwyzAQAAQAdqrVNEvM/OAfBAm3kTDtzbfHXWTXYOmnMbhtk4AL0aWCm9GoBuGGYDAACATtRatxFxlZ0D4J7+Om/AgceYsgPQnDOH+ByKXg2sjF4NQFcMswEAAEBfNnG3mQSgZe9rrafZIVi1KTsAzbGVjUPbhF4NtE+vBqA7htkAAACgI/NGkk04eAPadTVvvIFHq7VeR8R5dg6acVNrNczGQenVwAro1QB0yTAbAAAAdGa+XuRddg6Ab7iJu8EAOATDS3zkscBR6NVAw/RqALplmA0AAAA6VGudIuK37BwAn7iNiLfzpht4svm1zsYkIlw7yxHp1UCD9GoAumaYDQAAADpVa91FxPvsHACz7bzhBg5pyg5AuivPLRybXg00Rq8GoGuG2QAAAKBjtdZtRFxl5wCG95daq2sAOYYpOwDppuwAjEGvBhqhVwPQPcNsAAAA0L9NOHgD8vw2X9EGBzdvJfEaNzYH+ixpE55zgDx6NQBDMMwGAAAAnau1foi7g7eb5CjAeN7PV7PBMZ1mByDNea31OjsE49CrgUR6NQDDMMwGAAAAA5gP3t5GxG12FmAY7+cr2eDYbOYal589i9OrgQR6NQBDMcwGAAAAg5ivYtuEgzfg+C4cuLGUebDkfXYOFncbhtlIolcDC9KrARiOYTYAAAAYiIM3YAFXcbexBpY0ZQdgcWfzICOk0KuBBejVAAzJMBsAAAAMxsEbcERXEbExYMLSaq37iLjJzsGibGUjnV4NHJFeDcCwDLMBAADAgBy8AUfgwI1sU3YAFnNTazXMRhP0auAI9GoAhmaYDQAAAAbl4A04IAdutGDKDsBiDLLRFL0aOCC9GoDhGWYDAACAgTl4Aw7AgRtNqLVeR8RFdg4WMWUHgC/p1cAB6NUAEIbZAAAAYHgO3oAncOBGa6bsABzd1dxdoDl6NfAEejUAzAyzAQAAAA7egMd4X2t95cCNltRap/Ba1rspOwD8iF4NPIJeDQCfMMwGAAAARMTvB2+v4u4T4QA/8r7Wus0OAd9xlh2Ao/LzpXl6NfAAejUAfMEwGwAAAPC7Wut13G2ScPAGfM8/HLjRuNPsABzN+dxVoHl6NXAPejUAfINhNgAAAOAz89Umm4g4T44CtOcvtdZ32SHgR+aNSIZH+mQrG6uiVwM/oFcDwHcYZgMAAAC+Umv9UGt9GxHvs7MATbiNiD/XWqfsIHBPU3YADu42DLOxQno18AW9GgB+wjAbAAAA8F3zlSd/zc4BpLqNiE2t1RAJazJlB+DgzuYtV7BKejUQejUA3IthNgAAAOCHaq2nEfHnuHvjHRjLVUSczNc2wmrMQ0+2IPXFwT+rp1fD0PRqALgnw2wAAADAT82fHN/E3RvwwBjex93mCJuQWCvDT/24scWGXujVMCS9GgAewDAbAAAAcC/zJ8g3EXGeHAU4vr/WWrcO3FizeWDkJjsHB2GQja7o1TAUvRoAHsgwGwAAAHBvtdYPtda3EfFbdhbgKG4j4n/ma9CgB4ag+jBlB4BD06uhe3o1ADySYTYAAADgwWqtu4j4n7h7gx7ow0VEnNRa99lB4IAcIK/f1bzFCrqkV0OX9GoAeALDbAAAAMCjzG/Mv4qIq+Qo8P/Zu//rKI50j8Pf2uP/YSNAjgDdCJAjQBsBOAJ7IzCOwNwIGEdgEYGHCCwi8BDBhQjq/tE9aBACC9DM2z39POfMET98duvYeLrG9dFbfLtfe+9nrj/i2PTeNxkOlJmvVfU9W/m2AAAgAElEQVQCYN/sq+Go2FcDwDcSswEAAABfrfe+6b2fxvVIMFfb64+eVS8E9mhVvQC+iatiWQT7apg9+2oAuCNiNgAAAOCb7VyP9KZ4KcDtvYzrj1iGi7i+b65ejtP1YDHsq2GW7KsB4A6J2QAAAIA7sXM90svipQCf9y7Jf3vv564/YgnGP+eme82Tf24skn01zIZ9NQDsgZgNAAAAuDO997e99/Mk/4kpODBFr5Kc9t6fVy8EDsyf+fl513tfVS8CqthXw+TZVwPAnojZAAAAgDvXe79IchLTJGAqtlMjzlzZxxL13i/jyr65MZUNYl8NE2RfDQB7JmYDAAAA9sI0CZgMUyNg4N+BeVlVLwCmwr4aJsO+GgAOQMwGAAAA7NXONInfi5cCS/MuyY+mRsB7q+oFcGtveu/r6kXA1NhXQxn7agA4IDEbAAAAsHfjNImnSX6Ia97gEP43yUnvfVW9EJiK3vvbuKZvLlwxCp9gXw0HZ18NAAcmZgMAAAAOpve+7r2fJPk1rkiCfXid5Ife+89juAN8aFW9AG7F9W3wD+yrYe/sqwGgiJgNAAAAOLje+7Mkp3FFEtyV7dVHp67mg08br+gTfUzba1e4we3ZV8Ods68GgGJiNgAAAKBE732zc0XSq+LlwJz9GlcfwZdYVS+Az1pVLwDmxr4a7ox9NQBMgJgNAAAAKDVekXSW5Mckb4qXA3Pye5Lve+/PXH0EX8QVltO2ql4AzJV9NXw1+2oAmBAxGwAAADAJvfdV7/0kw3fDuwIOPu1VhsO2p67igy83/nvzunod3OiliAC+nX013Jp9NQBMkJgNAAAAmJTe+7MkJ3H4Bte9SvJD7/3MYRt8M9PZpumiegFwTOyr4ZPsqwFgwsRsAAAAwOT03t86fIP3dg/b1tWLgSNxEc+WqXnXe19VLwKOjX01fMC+GgBmQMwGAAAATJbDNxbOYRvsyXiVpSlg0+KfB+yRfTULZ18NADMiZgMAAAAmz+EbC/N7ku8dtsHeraoXwAdW1QuAJbCvZmHsqwFghsRsAAAAwGxsD9967/eT/JjkTfWa4I68y3Cg/H3v/WnvfVO8Hjh646G258g0vBEZwGHZV3PE7KsBYObEbAAAAMAs9d5XvfeTJP/JcG0MzNGbDAfIJ+OB8qZ4PbA0z6sXQBJXjEIp+2qOhH01ABwJMRsAAAAwa733i977WZLvM1wj46ok5uD3JD/03k/GA+S31QuChRJRTYOoECbAvpqZsq8GgCMjZgMAAACOQu9903t/muQkw3fkvy5dEHzsTZL/Jvn3eOXRung9sHjj1JaX1etYuNem58C02FczA/bVAHDExGwAAADAUem9vx2/I/80yf/EVAlqvcuH0yKemxYBk7OqXsDCraoXANzMvpqJsa8GgIX4rnoBAAAAAPvSe79M8jRJWmtPk5wneVy4JJbjZZKL3vuqeiHA5/XeL1pr75Lcq17LQq2qFwD8M/tqCtlXA8DCmMwGAAAALMI4VeI8yb/juiT242WGP1v/7r2fO3CDWVlVL2ChXpqqA/NjX80B2FcDwIKJ2QAAAIBFuXZd0vdJ/hsHcHy9jw7ahBkwS6vqBSzURfUCgK9nX80ds68GAJK4ZhQAAABYsN77JsnzJM9baydJzuLKJD7vXYb4Yp3huiMHbHAEeu+XrbXXSR5Wr2VB3pm0A8fDvpqvYF8NANxIzAYAAACQ9wdwqySr1tr9XB3AnSV5ULUuJuF1hoO2i977ZfVigL15nuRF9SIWxFQ2OFL21XyGfTUA8I/EbAAAAADXjFMBLsZXWmunGQ7fzmK6xBK8yTghIsnalAhYjIuI2Q5pVb0AYP/sqxfPvhoA+GJiNgAAAIB/ME4NuMwwtSettbNcHcI9qloXd+Z1hkO2ywyHbJvS1QAleu9vW2u/J3lSvZYFeNN7X1cvAjg8++qjZ18NAHyzlqRXL4Kk996q17BErbV1fDiagl9778+qF7Fk438wAGB5Nv6jIsDdGPfUu1Mm7hUuh897l/FwbXxdmhABADAN9tWzYl8NAOyFmG0ixGw1xGyTIWYDAACOSmvtJMMh3PYg7jQO4irsHrBdZjhg21QuCACA27Ovngz7agDgYFwzCgAAAHDHxoOdTZKL7a9dO4g7TXKS5OGh13bEXmX4e76JyRAAAEfBvrqEfTUAUErMBgAAAHAANx3EJUlrbXsAt/26/bGJEx97leRthmkQ268O1wAAFsS++k7YVwMAkyVmAwAAACjUe7/McHh0cf33xgO5+xkO4Xa/3s/xTZ94NX7djK9kmASR3vv64KsBAGBW7Kvfs68GAGZNzAYAAAAwUeOBXDIePt1k52AuuTqU2zq79pfv+7Du1Q2/tv7Mz01/AABg7+yrAQDmQ8wGAAAAMGM7B3PJZw7nAACAT7OvBgCYhn9VLwAAAAAAAAAAAADEbAAAAAAAAAAAAJQTswEAAAAAAAAAAFBOzAYAAAAAAAAAAEA5MRsAAAAAAAAAAADlxGwAAAAAAAAAAACUE7MBAAAAAAAAAABQTswGAAAAAAAAAABAOTEbAAAAAAAAAAAA5cRsAAAAAAAAAAAAlBOzAQAAAAAAAAAAUE7MBgAAAAAAAAAAQDkxGwAAAAAAAAAAAOXEbAAAAAAAAAAAAJQTswEAAAAAAAAAAFBOzAYAAAAAAAAAAEA5MRsAAAAAAAAAAADlxGwAAAAAAAAAAACUE7MBAAAAAAAAAABQTswGAAAAAAAAAABAOTEbAAAAAAAAAAAA5cRsAAAAAAAAAAAAlBOzAQAAAAAAAAAAUE7MBgAAAAAAAAAAQDkxGwAAAAAAAAAAAOXEbAAAAAAAAAAAAJQTswEAAAAAAAAAAFBOzAYAAAAAAAAAAEA5MRsAAAAAAAAAAADlxGwAAAAAAAAAAACUE7MBAAAAAAAAAABQTswGAAAAAAAAAABAOTEbAAAAAAAAAAAA5cRsAAAAAAAAAAAAlBOzAQAAAAAAAAAAUE7MBgAAAAAAAAAAQDkxGwAAAAAAAAAAAOXEbAAAAAAAAAAAAJQTswEAAAAAAAAAAFBOzAYAAAAAAAAAAEA5MRsAAAAAAAAAAADlxGwAAAAAAAAAAACUE7MBAAAAAAAAAABQTswGAAAAAAAAAABAOTEbAAAAAAAAAAAA5cRsAAAAAAAAAAAAlBOzAQAAAAAAAAAAUE7MBgAAAAAAAAAAQDkxGwAAAAAAAAAAAOXEbAAAAAAAAAAAAJQTswEAAAAAAAAAAFBOzAYAAAAAAAAAAEA5MRsAAAAAAAAAAADlxGwAAAAAAAAAAACUE7MBAAAAAAAAAABQTswGAAAAAAAAAABAOTEbAAAAAAAAAAAA5cRsAAAAAAAAAAAAlBOzAQAAAAAAAAAAUE7MBgAAAAAAAAAAQDkxGwAAAAAAAAAAAOXEbAAAAAAAAAAAAJQTswEAAAAAAAAAAFBOzAYAAAAAAAAAAEA5MRsAAAAAAAAAAADlxGwAAAAAAAAAAACUE7MBAAAAAAAAAABQTswGAAAAAAAAAABAOTEbAAAAAAAAAAAA5cRsAAAAAAAAAAAAlBOzAQAAAAAAAAAAUE7MBgAAAAAAAAAAQDkxGwAAAAAAAAAAAOXEbAAAAAAAAAAAAJQTswEAAAAAAAAAAFBOzAYAAAAAAAAAAEA5MRsAAAAAAAAAAADlxGwAAAAAAAAAAACUE7MBAAAAAAAAAABQTswGAAAAAAAAAABAOTEbAAAAAAAAAAAA5cRsAAAAAAAAAAAAlBOzAQAAAAAAAAAAUE7MBgAAAAAAAAAAQDkxGwAAAAAAAAAAAOXEbAAAAAAAAAAAAJQTswEAAAAAAAAAAFBOzAYAAAAAAAAAAEA5MRsAAAAAAAAAAADlxGwAAAAAAAAAAACUE7MBAAAAAAAAAABQTswGAAAAAAAAAABAOTEbAAAAAAAAAAAA5cRsAAAAAAAAAAAAlBOzAQAAAAAAAAAAUE7MBgAAAAAAAAAAQDkxGwAAAAAAAAAAAOXEbAAAAAAAAAAAAJQTswEAAAAAAAAAAFBOzAYAAAAAAAAAAEA5MRsAAAAAAAAAAADlxGwAAAAAAAAAAACUE7MBAAAAAAAAAABQTswGAAAAAAAAAABAOTEbAAAAAAAAAAAA5cRsAAAAAAAAAAAAlBOzAQAAAAAAAAAAUE7MBgAAAAAAAAAAQDkxGwAAAAAAAAAAAOXEbAAAAAAAAAAAAJQTswEAAAAAAAAAAFBOzAYAAAAAAAAAAEA5MRsAAAAAAAAAAADlxGwAAAAAAAAAAACUE7MBAAAAAAAAAABQTswGAAAAAAAAAABAOTEbAAAAAAAAAAAA5cRsAAAAAAAAAAAAlBOzAQAAAAAAAAAAUE7MBgAAAAAAAAAAQDkxGwAAAAAAAAAAAOXEbAAAAAAAAAAAAJQTswEAAAAAAAAAAFBOzAYAAAAAAAAAAEA5MRsAAAAAAAAAAADlxGwAAAAAAAAAAACUE7MBAAAAAAAAAABQTswGAAAAAAAAAABAOTEbAAAAAAAAAAAA5cRsAAAAAAAAAAAAlBOzAQAAAAAAAAAAUE7MBgAAAAAAAAAAQDkxGwAAAAAAAAAAAOXEbAAAAAAAAAAAAJQTswEAAAAAAAAAAFBOzAYAAAAAAAAAAEA5MRsAAAAAAAAAAADlxGwAAAAAAAAAAACUE7MBAAAAAAAAAABQTswGAAAAAAAAAABAOTEbAAAAAAAAAAAA5cRsAAAAAAAAAAAAlBOzAQAAAAAAAAAAUE7MBgAAAAAAAAAAQDkxGwAAAAAAAAAAAOXEbAAAAAAAAAAAAJQTswEAAAAAAAAAAFBOzAYAAAAAAAAAAEA5MRsAAAAAAAAAAADlxGwAAAAAAAAAAACUE7MBAAAAAAAAAABQTswGAAAAAAAAAABAOTEbAAAAAAAAAAAA5cRsAAAAAAAAAAAAlBOzAQAAAAAAAAAAUO676gUAAAAAMF2ttV69hgX7ofe+rl4EAAAAAByKyWwAAAAAAAAAAACUE7MBAAAAAAAAAABQTswGAAAAAAAAAABAOTEbAAAAAAAAAAAA5cRsAAAAAAAAAAAAlBOzAQAAAAAAAAAAUE7MBgAAAAAAAAAAQLnvqhcAQL3WWq9eA+/90HtfVy8CAAAAAAAAAA7NZDYAAAAAAAAAAADKidkAAAAAAAAAAAAoJ2YDAAAAAAAAAACgnJgNAAAAAAAAAACAcmI2AAAAAAAAAAAAyonZAAAAAAAAAAAAKCdmAwAAAAAAAAAAoJyYDQAAAAAAAAAAgHJiNgAAAAAAAAAAAMqJ2QAAAAAAAAAAACgnZgMAAAAAAAAAAKCcmA0AAAAAAAAAAIByYjYAAAAAAAAAAADKidkAAAAAAAAAAAAoJ2YDAAAAAAAAAACgnJgNAAAAAAAAAACAcmI2AAAAAAAAAAAAyonZAAAAAAAAAAAAKCdmAwAAAAAAAAAAoJyYDQAAAAAAAAAAgHJiNgAAAAAAAAAAAMqJ2QAAAAAAAAAAACgnZgMAAAAAAAAAAKCcmA0AAAAAAAAAAIByYjYAAAAAAAAAAADKidkAAAAAAAAAAAAoJ2YDAAAAAAAAAACgnJgNAAAAAAAAAACAcmI2AAAAAAAAAAAAyonZAAAAAAAAAAAAKCdmAwAAAAAAAAAAoJyYDQAAAAAAAAAAgHJiNgAAAAAAAAAAAMqJ2QAAAAAAAAAAACgnZgMAAAAAAAAAAKCcmA0AAAAAAAAAAIByYjYAAAAAAAAAAADKidkAAAAAAAAAAAAoJ2YDAAAAAAAAAACgnJgNAAAAAAAAAACAcmI2AAAAAAAAAAAAyonZAAAAAAAAAAAAKCdmAwAAAAAAAAAAoJyYDQAAAAAAAAAAgHJiNgAAAAAAAAAAAMqJ2QAAAAAAAAAAACgnZgMAAAAAAAAAAKCcmA0AAAAAAAAAAIByYjYAAAAAAAAAAADKidkAAAAAAAAAAAAoJ2YDAAAAAAAAAACgnJgNAAAAAAAAAACAcmI2AAAAAAAAAAAAyonZAAAAAAAAAAAAKCdmAwAAAAAAAAAAoJyYDQAAAAAAAAAAgHJiNgAAAAAAAAAAAMqJ2QAAAAAAAAAAACgnZgMAAAAAAAAAAKCcmA0AAAAAAAAAAIByYjYAAAAAAAAAAADKidkAAAAAAAAAAAAoJ2YDAAAAAAAAAACgnJgNAAAAAAAAAACAcmI2AAAAAAAAAAAAyonZAAAAAAAAAAAAKCdmAwAAAAAAAAAAoJyYDQAAAAAAAAAAgHJiNgAAAAAAAAAAAMqJ2QAAAAAAAAAAACgnZgMAAAAAAAAAAKCcmA0AAAAAAAAAAIByYjYAAAAAAAAAAADKidkAAAAAAAAAAAAoJ2YDAAAAAAAAAACgnJgNAAAAAAAAAACAcmI2AAAAAAAAAAAAyonZAAAAAAAAAAAAKCdmAwAAAAAAAAAAoJyYDQAAAAAAAAAAgHJiNgAAAAAAAAAAAMqJ2QAAAAAAAAAAACgnZgMAAAAAAAAAAKCcmA0AAAAAAAAAAIByYjYAAAAAAAAAAADKidkAAAAAAAAAAAAoJ2YDAAAAAAAAAACgnJgNAAAAAAAAAACAcmI2AAAAAAAAAAAAyonZAAAAAAAAAAAAKCdmAwAAAAAAAAAAoJyYDQAAAAAAAAAAgHJiNgAAAAAAAAAAAMqJ2QAAAAAAAAAAACgnZgMAAAAAAAAAAKCcmA0AAAAAAAAAAIByYjYAAAAAAAAAAADKidkAAAAAAAAAAAAoJ2YDAAAAAAAAAACgnJgNAAAAAAAAAACAcmI2AAAAAAAAAAAAyonZAAAAAAAAAAAAKCdmAwAAAAAAAAAAoJyYDQAAAAAAAAAAgHJiNgAAAAAAAAAAAMqJ2QAAAAAAAAAAACgnZgMAAAAAAAAAAKCcmA0AAAAAAAAAAIByYjYAAAAAAAAAAADKidkAAAAAAAAAAAAoJ2YDAAAAAAAAAACgnJgNAAAAAAAAAACAcmI2AAAAAAAAAAAAyonZAAAAAAAAAAAAKCdmAwAAAAAAAAAAoJyYDQAAAAAAAAAAgHJiNgAAAAAAAAAAAMqJ2QAAAAAAAAAAACgnZgMAAAAAAAAAAKCcmA0AAAAAAAAAAIByYjYAAAAAAAAAAADKidkAAAAAAAAAAAAoJ2YDAAAAAAAAAACgnJgNAAAAAAAAAACAcmI2AAAAAAAAAAAAyonZAAAAAAAAAAAAKCdmAwAAAAAAAAAAoJyYDQAAAAAAAAAAgHJiNgAAAAAAAAAAAMqJ2QAAAAAAAAAAACgnZgMAAAAAAAAAAKCcmA0AAAAAAAAAAIByYjYAAAAAAAAAAADKidkAAAAAAAAAAAAoJ2YDAAAAAAAAAACgnJgNAAAAAAAAAACAcmI2AAAAAAAAAAAAyonZAAAAAAAAAAAAKCdmAwAAAAAAAAAAoJyYDQAAAAAAAAAAgHLfVS8AAAAAAOAYtNbuJzm94bfe9t4vD70egClorZ0kORl/erbzW6dJ7l/7+b07/r9/de3nm/G1td7+oPe+DgAAUE7MBgAAAAAwaq1t44rdMO0kVyFGkjz6iv/dT/3WuyS7odsmV6HFZZK3EcMBE7bzvrn9ejb+1he/V+7B9TVc//kv2x/svE+/yfA+/DZX78/rRPAGAACHIGYDAADgi1ybrLD74+Tj6QrbX7vrCQu7todNu3YPnj76uUMogGUbw4uTDM+ok50f7/N59Sn38mFccWP8sRNZbKcMrXP1fLvsvb/d0/oAknz03rn98cPCJe3Lg/GVJI/Hr78k79+LtxHyZnytk2x675vDLREAAI6XmA0AAIAkH12NdjZ+3Z1OM9WDqt3Dpl2Pb/i1JB9Nx9lGAZtcm8AgegOYt51n21mOJ7x4dO1rkqS1to0rtoHFpecY8LXGcG33NYUpa1OxjZC3f092Q7dX+TByExsDAMAXErMBAAAsyM6h/sn4Oht/a8mHUzdGAYkpOABz01o7y4fx2k2x87G6Hldsn2OvcxW5rV1XClw3fkY4y9X755I/G3yrmyK3N9l5H47PEQAA8FliNgAAgCO0E61dvwqo4vq0Y/CpKTiJ6QsAZcZ4bfsSX9zs4fh6knzw7FpniNvWVQsDauzEa9vX3CdWTt12kvTjXAVu29B4neG9eFO1OAAAmJqWpFcvgqT33v75r+KutdbW8R86p+DX3vuz6kUsWWvNs2A6fnCQAMCXuuEKtaVNopmi7VVv61xNcdtULgi+ls8LpXw+uKa1dpLkPMMz75PXSfPFXiW5iMltcLTGa0PPx5d4bXreZAzbIm4DAGDhTGYDAACYmfEg6izLvEJtLm666m03cDMJB+CWxufe0wwBhmfefrx/Zo3X4a1zFbeZNgozNH7Dyzb+PY8JzVP3IMMEze0UTe/FAAAslslsE2EyWw2T2SbDZLZiJi1MiskLAHzEFWpH7XU+nMDgkIrJ8Xmh1GI/HwjYJuVlhpjiwnMKpm0nYDuP6ZXH5nWSVUzQBABgAUxmAwAAmJidK4DOIl47dg/H109J0lrbxm0XSw1YgOUarxD9OQK2qXk8vl601oRtMDECtsV4mOS35P3Utu3EtovSVQEAwB6YzDYRJrPVMJltMkxmK2bSwqQsdvICwJK5AojPeJmruG1TuxSWyueFUkf/+WDnGfhzhoN65uNlkpWQAmq01s4zTLAUsC3bu1xFxt6PAQA4CiazAQAAFBinr51lOIByeM+nbKfh/LYztW3laiFg7sbn4M9JnlSvha/2OMnj1tq7DFffPRdew37tTLB8Gt8Aw+Behmfpk/H9WNgGAMDs/at6AQAAAEvRWjttrT1vrW2S/JXhmhghG7e1vY70r9baZvyzdFq9KIAv0Vp72lq7zPAcFLIdh3sZnk9/t9bWrbWnxeuBozO+d66T/J3h3zchGzfZhm1/+LwAAMCcidkAAAD26IaA7ackD2pXxRF4kA/DtmfjpA6AyWmt3R/fp94meREh9zF7lORFa+2tZxN8m9baybX3zkfVa2JWdj8vXLbWfh6v9gYAgMkTswEAANyx8eDpZwEbB/IgyS8ZJuJcjpM7HFQB5cbn4SrJJsP7lElCy3EvV8+mlclAcHuttbPxvfPveO/kbjzMMBX8/8b35LPi9QAAwGeJ2QAAAO7Itet/fouAjcN7mGFyh4MqoMxOxPZ3huvOhBjL9iTDZKC15xJ8WmvtfPws8Wdcw8z+PEny5zjd2bQ2AAAmScwGAADwDcZrRFeu/2GCdg+qTGsD9u6GiA12PcrwXFq31p5WLwamYtynbZL8EZ8lOJwH+XBamwmaAABMhpgNAADgK+xMYfsrps4wbQ8yhJab1trz1tpJ7XKAY9Nau99aex4RG7fzKMmLbWxdvRioshOxvYiJztTanaB5Xr0YAAAQswEAANzSOHHmmSlszNS9JD8l+dsVpMBdaa09S7LJ8P4CX+JBhqjN9aMsioiNCXuU5A+xMQAA1cRsAAAA/+DatWm/xBQ25m97BamAAPgqrbXzMcbwXORb7V4/ela9GNiX1tqZiI2Z2MbGb8dv5rpfvSAAAJZFzAYAAPAJ44HTOq5N43gJCIAv0lo7HZ+Nf0SMwd3aPpNWrsTmmOx8pvgz3jeZl3sZovWNqA0AgEMSswEAAFxz7cDJVaIsgagN+KzW2v3xStG/4tnIfj3JcCW2cIJZ25nu7DMFcydqAwDgoMRsAAAAIxEbfBC1nRSvBZiIMXK9zHCQDYfyS5LL1tp59ULgS43x72VMd+a4iNoAADgIMRsAALB4Ijb4yKMMU3FWDqlgucZpbBdxNR51HiT5Q2TNXIyfKzYZgp97xcuBfRG1AQCwV2I2AABgsURs8I+eZDykql4IcFjjNKxNksfFS4HkKrJ+Vr0QuIn4l4XaRm2XrbWnxWsBAOCIiNkAAIDFaa2dtNZWEbHBbdxL8ktrbTNeNQgcsTHIWCX5I6YKMT2eR0xOa+3niH9ZtgdJXnh/BgDgrojZAACAxRgP6J8l+TvDxCng9h4k+bO1duEqIThOrbXTJJfxjGTats+j555HVBq/QWad5LeIfyG5en92NTQAAN9EzAYAACzCeO3JJsM1KMDXe5zh6tGn1QsB7s4Ye/8V1+MxHz9luNrutHohLM84je0ypjzDTbZXQ4uOAQD4KmI2AADgqLXWTseJCS9iYgLclXsZrhIydQFmbpxauo7Ym3l6kOSvMcaEvRvfMy9iGhvcxk/xTTAAAHwFMRsAAHCUxoOm5xmmzJiYAPvxKMNUnPPqhQBfbpxotYnnJPP3S2vtUmDNPo37nU2GKbXA7ex+E4xJmgAA3IqYDQAAODqttbMM1/78VLwUWIJ7Sf5orV24RgjmY7wi76+YLMT/s3e3V22dWRuA9541/2EqsFIBTAVWKjBTAUoFIRWYVBCmAssVBFcwcgUDFQyu4DUVPO+Pc4jxBzYfQvt8XNdaWkk8TuZOAElHz332no6DULDmmfQ3yfwZnjPhsV5GP0nTNQMAAD+izAYAAEzGrbU//4lu7RSwO6+iKxGYuAADl5nr6FbkwdTcFKzXyhJsQ2YuMtNNMrA9r6O7ZlhWBwEAYLiU2QAAgEmw9gcG4UV0ExdOqoMAX+tL3xcRcVydBZ7ZcURsrB3lKfrri4vopv4B2/MiIv6jeAwAwF2U2QAAgFHrD+at/YFh+cPaURiWfmqiUgZzYu0oj5aZp+H6Ap7bcURceZ4GAOBLymwAAMBo3TqYt/YHhudVdFNxrB2FYv3P4Sas4GZ+btaOnlYHYRz6G2XOo1uFCDy/m+dpN8IAAPAXZTYAAGCU+kPJ/4aDeRiyg+gKbaYtQJHMXEX3emm6EHP22jo7fqRfS7uJrpAP7Nar6KZpLquDAABQT5kNAAAYlX5awiZMS4CxuJm2sKoOAnPT/9y9qc4BA3EcXcFaoY2vWMUMg/AiIv6TmWfVQQAAqKXMBgAAjEZ/yHQVES+LowAP9yYz11O+CcQAACAASURBVNUhYC76CaaKbPC5g4i4sgKb2/ri7yZMsISh+DUzLzxXAwDMlzIbAAAwCpl5EtakwdgdK7TB8+t/zkwwhW/bi25C27I6CPVuTbB0jQHDchDdc/WqOggAALunzAYAAAxav1Z0HRF/VGcBtuK4n7RgzRs8g/4187g6BwzcXnSr7FbVQajTrzI0wRKGay/66c6uHQAA5kWZDQAAGKz+A+tNOJSHqbmZtOBQCrZIkQ0e7I1C2zz1z5e/VucA7uU4umsHa0cBAGZCmQ0AABik/oPqq+hKL8D0KLTBFimywaO9sQJ7XjxfwihZOwoAMCPKbAAAwOD0H1BvolsrAkyXQhtsgWIGPNmxQts8eL6EUftr7Wh1EAAAnpcyGwAAMCh9ke1NKLLBXCi0wRNk5kkoZsA2KLRNnCIbTMZxZl64fgAAmC5lNgAAYDAy8yy6IhswLwpt8Ah9AfyP6hwwIQptE6XIBpNzEBFXmXlYHQQAgO1TZgMAAAahP2D6tToHUEahDR7g1iRTYLsU2iZGkQ0may8i/tu/JwIAYEKU2QAAgHIOmIDeQUSsq0PA0PVTSM6qc8CEKbRNhOsMmIU3/ZR3AAAmQpkNAAAok5n7mXkeDpiAT14pEMDd+iLbJrppJMDzUWgbucw8CdcZMBe/ZubalGcAgGlQZgMAAEr0HzJvIuJVcRRgeI4z87Q6BAxN/9q5DkU22BWFtpHq1w7+UZ0D2KnjiNgotAEAjJ8yGwAAsHO3imwHxVGA4XrdH0QDn5yH107YtWPr68YlM5cR8aY6B1DiILpC22F1EAAAHk+ZDQAAqLAJh/HAj505iIJOPx3qZXUOmKlfFazHoX/fcF6dAyil0AYAMHLKbAAAwE71h/GKbMB97IVVQXCzLu+4OgfM3BuFtmHr3y+ch1XMwKfriKPqIAAAPJwyGwAAsDN9kc1hPPAQe9FNc4RZ6qeKWHEIw/DGpJ9B20TEi+oQwGDsRcSfisgAAOOjzAYAAOyEIhvwBAeZqczDHJkyBMNjdd0Amf4MfIfJmgAAI6PMBgAAPLvMPA1FNuBpfrUmiBk6C1OGYGj2IuLcCuzhsIoZuAeFNgCAEVFmAwAAnlX/gfHr6hzAJKwzc1EdAnZIkQ2G6UVYgT0IVjEDD/Cmn+IIAMDAKbMBAADPJjOXEfGmOgcwGXsRsa4OAQDRrcBeV4eYs3463jqsYgbu79hzNwDA8CmzAQAAz6KfknBenQOYnJf96mIAqHacmSfVIWbsLCIOqkMAo6PQBgAwcMpsAADA1pmSADyz131hFgCq/dFPI2aHMvMoIo6rcwCjpdAGADBgymwAAMBzOA9TEoDnta4OAAC988xcVIeYi/6/9bo2BTABCm0AAAOlzAYAAGxVZp5FxMvqHMDkHVg3CsBA7EV3Mwe7sQ4ToIHtUGgDABggZTYAAGBr+nU/v1bnAGbjtUk4AAzEQX9TB88oM0/CjTPAdh33zy0AAAyEMhsAALAV1v0ARdbVAQCg92t/cwfPoL/eOK1NAUzUH5m5qg4BAEBHmQ0AANiW87DuB9i9l4oDAAzI2tTQZ3MWrjeA5/NGoQ0AYBiU2QAAgCfrVyodVOcAZussM/erQwBAdGWr8+oQU9MX119V5wAmT6ENAGAAlNkAAIAnycxlRPxanQOYtRcRcVIdAgB6B5l5Wh1iKvrC+ll1DmA2zjLzsDoEAMCcKbMBAACP1h8smTwBDMFra90AGJDX/U0fPN1JdMV1gF3Yi4iNQhsAQB1lNgAA4CnW0X3QCzAEp9UBAOCWtTXYT9MX1V8XxwDmZy8izj2HAwDUUGYDAAAeJTOPIuJVdQ6AW45NwQFgQF6EovVTWS8KVHkR3YQ2hTYAgB1TZgMAAB6s/zB3XZ0D4BtOqwMAwC2/Klo/Tv/fzc0zQKWD8NkHAMDOKbMBAACPsQ7rRYFheqk0AMDAWDf6OKfVAQAi4lVmrqtDAADMiTIbAADwINaLAiNwWh0AAG6xbvSB+mL6y+ocAL3jzFxVhwAAmAtlNgAA4N76iRJn1TkAfsB0NgCGxrrRh1lXBwD4whvP4wAAu6HMBgAAPMRJdJMlAIbutDoAAHzBTSH30E8/cs0BDNF5Zi6qQwAATJ0yGwAAcC/9B7avi2MA3JfpbAAMzUFmnlaHGIGT6gAAd9iLrtC2Xx0EAGDKlNkAAID7WlcHAHigVXUAAPjCiak+d+uL6AfVORi097cel8VZmKeD8PkIAMCz+nt1AAAAYPj6Q6WX1TkAHug4M09ba1fVQQCgtxfdutGj6iADdVodgJ163/9x0//xIiI+3vx5a+3jV3/HPX0xoffmzxe3HlbZ8hSvMvOktWZ9NADAM1BmAwAA7mNdHYDJu4xPB1cREYfRHfbCU52EdWUADMurzFy21jbVQYYkMw/DDTRT9SG6otpFdMW1q+e+2eCLn6/Nt35PPyVxEV3ZbRHdNYjJgNzXH5l54bkcAGD7lNkAAIDvysxVuGud+7mOT9MULvpfuz1dYSuHVpm5H91B043DiNjv/3x569eU4YiIWPXT2R492QMAnsE6uvIMnyifT8dldAWyTURshvo+rL82uYovym59sXIZ3TXFMlwPc7fzzFwM9XscAGCslNkAAIA79aUhazP40mV0hz430xWuWmsX3/07tqg/KNjc+qXNt3/nXwdR+/Fp2sIiTPyYm73oVrmti3MAwG0vrKj7pL/uOK7OwZO8i4jz6MprV8VZnqS/tvnr+qb//lxG955yGcptfLIX3fXo4Q9+HwAAD6DMBgAAfM9JmG41d9fRfTh/Ed3B1KY0zQPdKtltbv96v1Lo9sQFBbdpOw1lNpiiH00E/XLN3DfdKj7fMPGTXTnNzLWJPhERsaoOwKPcFNjOp/x93P+7nfePm2uJo/7hOoKDzDxrrZkuCQCwJcpsAADAN/V3n/swdp7exaeVQDubuLZLt1YKnd/8WmYuoystLMOh1NS8yMzDqX4/wwzclNY20T13X22zXP2N54Y7/9n9a8XNuuubhwk9PNZedIVr77n9NxiT6+imd6/HPoHtsfp/77OIOOuvm2+Kba8qc1Fq/8e/BQCA+1JmAwAA7mIq23xcx6dJA5spT1X4nr4YsYn4apXQUfhZmIKTMPUFxuJD9KXqiLgYUhH1Vonudhn6pty2DIVoHu7XfqLPVXWQKn1JVCl0+D5ExGlrbV0dZEj6a6d1RKz714NV/zioS8UOvY3u5+KqOggAwJRkRLTqEES01rI6wxxl5iZ8wDgEv7fWTqtDzFlmei0Yjp/Htr4NmKb+Q/irUOCZurfRrQQ6/+HvnLnMvCm1KbaN13VELOZa1nwK1wvsyM1U0PMpHAjfmvZ5FAoN/Njb1tqqOkSVzFxHxHF1Du6kxPYI/QrrVf9w/TA976P7udhUBwEAmKK/VQcAAAAGyVS26foQEb9FxD9aaytFtvtprZ33h8yLiPglusMLxmUvulIJMBzvontO/Udr7ai1NpnpVK21TWvttLV2GBE/Rffv+a44FsN13BcgZ+fWikaG5zoifmutLRTZHq61dtFaO4lP1w8fahOxJe+juxl5qcgGAPB8lNkAAIBvOakOwNbdfOi+6MsCplM9QmvtY2tt3VpbRsQ/o5tux3g4LId6l/GpVH3UP6dO+jWptXbV/3seRcQ/ois1XBbHYnhOqwMUMfV2mN5FN9H2rDrI2N26flhExM/hppix+hARvyixAQDshjIbAADwmcxchQOlKXkbET/50H37+mkLq+gm7vw7uukVDNurzFxUh4CZehsR/2ytHc65VH2r1HAzsc3rBzdeznQ6m6L5sFxHxL/6svEsn6efUz+1cxlKbWNyU2IzoRAAYIeU2QAAgC+dVgdgK95HV2JbTWVl21D1E3duVgiZ1DZ8Ds1hd64j4vf4tNr6ojrQkHzx+mEFHREzex/erxh9VZ2Dv7yPbhrbeXWQqVNqG4Wb9zCHSmwAALunzAYAAPwlM48i4kV1Dp7kMrp1oksltt3qp+2sopu041BquFbVAWAGbg6AF621U9N9vu+LFXT/Cq8hcza36WwK5sPxe3/94Pl6h5TaBsl7GACAAVBmAwAAbjupDsCjXUfEb/36tk11mDnrJ+0soyskWB03PAdWjcKzcQD8RK21c8WG2TutDrBDy+oARES3QvG0OsSc3Sq1mdJZ6214DwMAMAjKbAAAQERE9OWOl8UxeJx30X3oflYdhE/6FU2L6L4+DItJMLB9/w4HwFtzq9jwr1BsmJs5TWfzelzrOiL+ZYXicPRfi8PoiuHsztuI+Klfie49DADAACizAQAAN0xlG5+bA6gjH7oPU7867ii6KQumtA3HsjoATMj76A6AT7wWbV8/qW0REb+F15E5Oa0O8Nz6wt5edY6ZO+pvvmBA+uuH04j4KUzofG7vI+KffYntqjoMAACfKLMBAAA3VtUBeJDLiDh0ADUO/ZSFZXRfN+q9ysz96hAwcjeF6qUD4OfXT19dhGmfc/FyBiuxl9UBZu6X1tqmOgR3a61d9RM6lZm3731E/Ny/h7moDgMAwNeU2QAAgMjMVZiMMCZvW2uHygPj0h+ULEOhbSiW1QFgxG7WWytU79CtaZ8/h9Wjc3BaHeCZWTFa5zerRcejLzMfhilt2/AhPhXxN9VhAAC4mzIbAAAQYSrbmPzSWltVh+Bx+iLCYUS8rc6CQ3R4BOutB6A/gPdaMn3HU53O1k9HPajOMVPv+nIUI2JK25N9iO46WhEfAGAklNkAAGDm+kOyl8Ux+LHr6FahrKuD8HR9IVEJodayOgCMzPswjW0w+nL0KiL+FYoNU3ZSHeCZHFYHmKkP4SamUeuLiMsw6fm+riPi977Etq4OAwDA/SmzAQAAq+oA/NB1RFiFMjEKbeVeZKbDdLif3/uVXKaxDUxfLjwMxYapWvVTzKZmWR1gplaex8evtXYR3c+Q64i7XUfE79GV8E+LswAA8AjKbAAAwKo6AN91U2S7qA7C9vWFNgWEOsvqADBwN2tFT6uDcLd+/Zy1o9O0F9Nci72sDjBD79wYMx23pnP+Up1lgN5GX2JT3gQAGC9lNgAAmLF+KtGL6hzcSZFtHpbRrX1i95bVAWDALqN7DbJWdCQUGybrtDrAMzAZdfemurJ21vrVmf8M66YjuhLbT601EwgBACZAmQ0AAOZtVR2AOymyzUR/2HIUDqEqLKsDwEDdFNm8Bo1MX2z4ObymTMmLzFxWh9iW/maaveocM/O2tXZVHYLn0b9WL2K+057fR8Q/+xLbVXUYAAC2Q5kNAADmbYpri6biSIlgPvqv9Wl1jhna6w/VgU/ettYOTTUZr36V4DIU2qZkSlO1FtUBZui0OgDPq3/NXsa81k2/j4ifW2vK9wAAE6TMBgAAM2XF6KD90h9EMyOttbPoDmXYrWV1ABiQt/2qSkauP9hfxnwn9UzNq8xcVIfYEiXy3XpnWtU8tNY+9q/hUy+0fYhPJbZNdRgAAJ6HMhsAAMyXqWzD9O9+RRjztKoOMEMO1aGjyDYxCm2Ts6oOsCXL6gAzs64OwG71r+W/Ved4Bh+iu+lrocQGADB9ymwAADBfymzDc9lam9IaKR6on5zxe3WOmVlWB4ABUGSbqFur5xTaxm9VHWBL9qsDzMh1a+28OgS71098/qU6x5ZcR8RvfYltXR0GAIDdUGYDAIAZ6tcUHRTH4HPXoWBI5yy67wd240VmOlhnzhTZJk6hbTJeZOYU3iu6BtmdTXUA6vTFrzEX2q6ju8ln0ZfzAACYEWU2AACYp2V1AL6y6qdyMXN96cCBzW5ZNcpcKbLNRP/asgpl6bEbdZktM73e7tamOgC1Rlxo+3d0JbbT/vULAICZUWYDAIB5GvVB2AS9swKILyiz7dayOgAUUGSbmdbaRXTPdwpt43U88mmiY84+RhfVAag3skLb24j4qbV2osQGADBvymwAADBPy+oA/OU6Ik6qQzAs/eHN2+ocM2JSDHNzqcg2T32hzU0N4zbmr5/X2x1qrW2qMzAMIyi0vY+uxGZaOQAAEaHMBgAAs9Ov99mrzsFfznxgzx1M69sdh+vMyWUotc9aX3AZcqmB7xvzTRAms+3Oh+oADEtfaPutOscX3kfEz621pWtiAABuU2YDAID5WVYH4C8fWmun1SEYpn71rFVwu/Fi5Gvb4L6uI2JldRd9qcEE0HE6yMxFdYhH8lq7O1fVARie1tpZDOO5/0N8KrFtqsMAADA8ymwAADA/y+oA/OW0OgCDZzrb7pjOxhwc9WsmIfpVs5fVOXiUsa4a9VoLxfrn/qpC24eI+KW1tlBiAwDge5TZAABgfpbVAYiIiMt+Kgp8z6Y6wIw4YGfqfnNwzDcchSmgYzTmVaPshuIy33MSuy0zX8enEtt6h/+/AACMlDIbAADMSGYeRsRedQ4iIuKsOgCjsKkOMCOL6gDwjN71q8XgM621q4hYFcfg4V707+vHxprR3bFOmjv168aX0U1Ke07XEfF7RCixAQDwIMpsAAAwL8vqAERExAcf5nMffcnAxJzdGGMpAO7jQygr8R2ttfOI+Hd1Dh5sVR3gEQ6qAwCdvtD2nNM5b0psp/3/FwAA3JsyGwAAzIuyxjCcVgdgVKyJ2g3Pj0zVyiEy93Aazz+hh+06qg7AoHlfww+11i5i+2uL30bET0psAAA8hTIbAADMi0ONetcRcV4dglFRZtsNK5iZot9ba5vqEAxfXzhYVefgQV5k5qI6BINlpSv30k8M38Z0znfRldhW/XRpAAB4NGU2AACYF6t96q3doc4D+X7ZkcxcVmeALbpsrZ1Wh2A8+uKjdaPjYjob8GSttZOIuHzk3/4+In5urR0psQEAsC3KbAAAMBNKGoOxrg4AwCysqgMwSqdh3eiYrKoDMFgmcvNQR9FNEb+vy+hKbEtTYAEA2DZlNgAAmA8HGvUuW2tWRvJQm+oAM7KsDgBb8rvXGx6jnx57Up2DezuwapQ77GWmVaPcWz9VbXWP3/ohIn5prR0qsQEA8FyU2QAAYD6U2eqtqwMAMHkfrBflKVpr59GtjWMcltUBGCzXfzxI//x/17rp6+hKbIvW2np3qQAAmCNlNgAAmI9FdQBM2IKBW1YHgC1YVQdgElbVAbi3o+oADNayOgCjdBqfr5u+jojfI0KJDQCAnVFmAwCA+XhZHWDmPlj5BsAze2flF9vQr5t7W52De1lWB2CwFB15sH7d9Kr/y5sS22n/6wAAsBPKbAAAMAOZuV+dgTivDgD8kNIvY3dSHYBJOYluIg/DtpeZy+oQDNJBZi6qQzA+rbVNay2V2AAAqKLMBgAA83BYHQArRgF4Vr/307RgK/oCw1l1Du7FBC7usqoOAAAA8FDKbAAAMA/KbPU21QEYLT+/O2SCCSN1HUpHPI+zMJ1tDJbVARisE1O6AQCAsVFmAwCAeXCAUevSehaeQJlttxbVAeARrAHjWZjONhoHCkvcYS+soAYAAEZGmQ0AAOZhWR1g5i6qAzBqy+oAwKB9aK0pG/GcTGcbB6tGuYvpbAAAwKgoswEAADw/ZTYeJTMPI+JFdY6ZMQmPsTmtDsC0mc42GsvqAPfwvjrATO1FxLo6BAAAwH0pswEAwDy8rA4wc8psPJa1ULtncglj8qG1tq4OwSysqwPwQ8vqAAzaq8z0vhIAABgFZTYAAIDnp8zGg2XmIiKOi2MAw3ZaHYB5aK1dRcTb6hx814v+vQPc5Y/MXFWHAAAA+BFlNgAAmDiHWuWu+/Vc8FBWutUwmY2xuI6I8+oQzIrXpeFbVgf4ATd41Huj0AYAAAydMhsAAEzfojrAzDm048H6Q8ZX1Tlm6rA6ANzTmbI0u9Rau4iIy+ocfNeyOsAPeM4aBoU2AABg0JTZAAAAnpdDOx4kMw/D9BvgxzxPUMH33bANvZDtffFwvMlMP88AAMAgKbMBAMD0LasDzJzJbNxbX2TbRMRecRRg2N6aykaR8+hW3DJMB5k55HXZ3hcPy6+ZeZGZi+ogAAAAtymzAQAAwAAosgEPYJoOJfoS5Xl1Dr5ryNPZlHCH5yAiLjLztDoIAADADWU2AACA53VVHYDhy8xVKLINxZBLABAR8b61ZroRlZQph21ZHeAunrsGay8iXmfmVWYeVYcBAABQZgMAgOlTzKh1VR2A4crM/cw8i4g3ocg2FL4ODN26OgDz1heSPlTn4E7L6gA/4HtnuF5ExJ+ZucnMZXUYAABgvpTZAABg+varAwBf6ydfXETEr9VZgNG4bq2tq0NAWDU6ZEO/keWqOgA/9DIi/tNPaltVhwEAAOZHmQ0AAAB2KDMPM3MTEX9GNwED4L4UiBiKdXUA7rSXmYvqEN9h1eh4vIiIN5n5MTNPB/59BQAATIgyGwAAAOxAX2JbR8R/o5t4AfBQZ9UBIMKq0REY8nS2q+oAPNheRLyOiP/1K0hXmWn6NwAA8GyU2QAAAOAZZeZRP4ntvxFxXBwHGK8PfYEIhsKkwOEacpnN89i4vYyINxHxf5l5rtgGAAA8h79XBwAAAJ5Xa21ZnQHmpl/DtOofVokC26A4xNCsI+LX6hB807I6wF1aa5vMrI7BdrzqH28y8110r1Ob1tpVaSoAAGD0lNkAAABgC/qpFEfRFdisEQW2bV0dAG5rrV1k5odQ2h6iIU9mi4i4jIiD6hBs1U2xLTLzMiI2EXHeWtsUZgIAAEbKmlEAAAB4pMzc79crnUfE/0W3dkmRDdg2K0YZqk11AL5pb+CrHz2fTdtBdFMb/5OZrV9HepKZQy9ZAgAAA2EyGwAAADxAfxB31D9MFQF2wYpRhuo8Io6rQ/BNhzHcsuEmfN/Mye2pbdfRff030a0kVWwEAAC+oswGAAAA35GZi4hY9o+jiNirSwPM1Lo6ANxhUx2AOy1juF+fTXUAyuzF1+W2i/hUbtuUJQMAAAZDmQ0AAABu+aK8toyIF2VhAKwYZcBaax8z8zJMKh2iRXWAu7TWrjLzQ3iPRVdue9k/XmdmRMRldOW2i+gKbldV4QAAgBrKbAAAAMxavzZ0Gd06rmU4WAWGZVMdAH5gE8psQ7SoDvADm7BqlG87iFvPKV9Ob4uIi9bax5JkAADATiizAQAAMBuZuR+fF9deVuYBuIfz6gDwA5uI+LU6BF8Z+nucTSizcT+fTW+LiOgn+90U3C6sJwUAgGlRZgMAAGCyMnMZn8prh2HqGjA+m+oA8AOb6gB8W2buD3iC1XlEvKkOwWi96B+vIiJurSe9uHkouAEAwHgpswEAADAJfXHt8NbDyjNg7N4PuIgCERHRWvuYmZfhdXeIDmOgZcP+++Z9DH+CHONxs570OELBDQAAxkyZDQAAgFHpV4XerAldhOIaMF2b6gBwT5vwWjxEgy2z9c5DmY3npeAGAAAjpMwGAADAYGXmIrrC2jKsCgXmZ1MdAO7pojoA37RfHeAHziPij+oQzM5dBber6J7LNtGV3ExGBQCAIspsAAAADEJm3pTVFvGpvLZXGAmglGkxjIgy2zAtqwN8T2vtyopaBuKm4PYqIl5HRGTmh/g0wW0TCm4AALAzymwAAADsXGYu49OktUVYMQXwpffVAeC+WmsX/XQjeKh1mM7GML3oH18W3K6iL7dFV3C7qokHAADTpcwGAADAs7EmFODRTLpibN6HcvrQjOHrsQ5lNsbjpuD2189WZl7HreltoeAGAABPpswGAADAVlgTCrBVm+oA8EAXMY7yFAPSWvuYme+im34FY7QX3XPflwW3TVhRCgAAj6LMBgAAwINZEwrw7ExmY2yuqgPwtcxcttY21Tl+YB3KbEzLXnTf07dXlF7G5+U2r/MAAHAHZTYAAADulJn70RXWlvGpuHZQGAlgDj5YUcYIKWbwKK2188z8EFbRM20H/eM44uvpbSMonQIAwM4oswEAABAREZm5iE/T1pbRFdccKgLs3lV1AHgEZbZhWsY41hafRcQf1SFghz6b3paZERHvo/t5VW4DAGDWlNkAAABmqJ+4tozPp67tFUYC4JNNdQB4qNbax37SkPcTPMY6Ik7D9w/z9rJ/KLcBADBrymwAAAAzkJnL+Ly4ZuIawHCZcMVYXURXxGA4DqsD3EdfhjyPfgUjEBHfLredR1du814BAIDJUmYDAACYmFvrQpf9Hx0qA4yLA2rG6iq87xia/eoAD3AaymzwPTfltugnYZ5HN7ntvLX2sTAXAABslTIbAADAyGXmTXFtGaauAYxea+2qOgM80lV1AL4ymjJba+0qM9+GQhvcx150PyvHEfEmMy+jK7edm9oGAMDYKbMBAACMSGbux6epa8sw/QRgat5XB4AnUKAYnoPqAA90Gsps8BgH/eP1raltNytJTW0DAGBUlNkAAAAGrC+vLW89xnYgCcDDOHBmzHz/8iSms8FW3J7aFpn5Lj5NbfM8DQDA4CmzAQAADEhmLuLz8pqVoQDzYrIVY+b7d4AyczGy9cWnEXEUXSEHeLpX/eONYhsAAGPwt+oAAAAAc5aZi8xcZeY6M68i4n8R8Sa6u+gV2QDmRxmI0VKMGKxFdYCH6It3Z9U5YKJeRXe9+X+Zed5fi+5XhwIAgNuU2QAAAHZIeQ2AH1AGYuw+VAdgEs7C9xI8t6+KbcV5AAAgIpTZAAAAnlVm7mfmUWaeZeZFKK8B8H0mszF2V9UB+Mropi71U/5Oq3PAjNysIf3Y33i1rA4EAMB8KbMBAABsWWYeZuZpZm4i4v8i4s+I+DUiDkqDATB41jQCz+CwOsBjtNbWEfG+OgfMzF50N179JzOv+uvaRW0kAADmRpkNAADgifrpazerQz9GxH8j4nVEvCyOBsC4XFYHgC3YVAdgUlbVAWDGXkR3Xfu/fg3pUXUgAADm4e/VAQAAAMYoMw8j4qh/mLgGwDaYygZwS2vtKjN/j65QA9R5FRGvMvNDRKwjYt1auypNBADAZJnMBgAAcE+ZefSN6WuKfE5v1gAAIABJREFUbABsy1V1AGCSFtUBnqK1dhomV8JQ3J7Wts7MZXEeAAAmSJkNAADgDrfWh55nZouIPyPiOCL2iqMBME1X1QFgCy6qA/CVRXWALVhFxHV1COAzxxHxn8y8yMxVdRgAAKZDmQ0AAOCWzFzcFNgi4v8i4k10K1UAAPgx63LZutbaRUScVucAvukgIt5k5sfMPM3M/epAAACMmzIbAAAwe7cmsF1ExP9CgQ2AGpvqAABD1Vo7i4h31TmAO+1Ft4L0KjPPMnNRGwcAgLFSZgMAAGbp9grR+DSB7aA4FgAAcLdVRHyoDgF8115E/BoR/8vMtVIbAAAPpcwGAADMSmYeZeY6rBAFAHgOF9UB+MqiOsC2tNY+RsRRdQ7g3o5DqQ0AgAdSZgMAACYvMw/7NScfI+LP6D5QB4ChUQJi9PqyEcPyojrANrXWLiLil+ocwIMotQEAcG/KbAAAwCTdWiN6ERH/jW7NyV5xLAC4kxIQwP201tYR8bY6B/BgN6W208zcrw4DAMAwKbMBAACT0k9hW0fEVXRrRA9KAwEAAFvXWltFxLvqHMCjvI6Iq8w8rQ4CAMDwKLMBAACT8MUUtuMwhQ0AAKZuFRGX1SGAR9mLiNeZeZWZR9VhAAAYDmU2AABgtDJz0a8n+RimsAEwbh+qAwCMTb+eeRmeQ2HMXkTEn5m5yczD6jAAANRTZgMAAEbn1irR/0W3nsQUNgDG7qo6AMAY9YW2o4i4rs4CPMnLiPhvZp5l5n51GAAA6iizAQAAo5GZy8zcxKdVogAAwMy11i6im9Cm0Abj92tEWD0KADBjymwAAMDg3Sqx/Se6u7UBABiu99UBmB+FNpiUvehWj55n5qI4CwAAO6bMBgAADJYSGwAAcF8KbTA5ryLiIjNPqoMAALA7ymwAAMDgKLEBAACPodAGk7MXEX9k5saUNgCAeVBmAwAABkOJDQAAeCqFNpikl9FNaTuqDgIAwPNSZgMAAMpl5iIz16HEBgAAbEFfaFtExGVxFGB79iLiz8xcZ+Z+dRgAAJ6HMhsAAFAmM/cz8zQiLiLiuDgOAAAwIa21j9FNaFNog2k5johNZh5WBwEAYPuU2QAAgBL9apCLiHgd3d3VAAAAW9Va+9haO4yIt9VZgK06iK7QtqoOAgDAdimzAQAAO9WvFN1ExJ8R8aI4DgAAMAOttVVE/FadA9iqvYh4k5nr6iAAAGyPMhsAALAzt1aKviyOAmNxHRHvqkMAAExBa+0sIv4V3XssYDqOM/MiM/ergwAA8HTKbAAAwLPLzMPMtFIUHuZtRBxGxFl1EACAqWitnUfEMiIui6MA23UQEVeZeVgdBACAp1FmAwAAnlU/je2/0X2wDPzY24j4qbW2aq1dVYcBAJia1tpFdIW2t8VRgO3ai4hNZq6qgwAA8HjKbAAAwLPIzEVmbqKbxgb8mBIbAFNhpTyD11r72FpbRcQvYe0oTMleRLxRaAMAGC9lNgAAYOsy8ygiLsJBJtyHEhsAQJHW2jq61e7WjsK0vMnMdXUIAAAeTpkNAADYmszc7z8s/jO6u6GBb7uOiN8j4h9KbAAAtVprV621w+jenwHTcazQBgAwPspsAADAVmTmIiI2EXFcGgSG7X1E/NJa22+tnbbWPlYHAgCg01o7jYh/hiltMCUKbQAAI6PMBgAAPFlmLqNbK3pQHAWG6Doi/h3dKtFlv8oKAIABaq1dmNIGk6PQBgAwIspsAADAk2TmKiL+E9aKwpfeRcS/+ilsJ1aJAgCMhyltMDkKbQAAI6HMBgAAPFr/QfCb6hwwIJcR8UtE/KO1dtRaO68OBADMnjLWI92a0vZbdNN2gXFTaAMAGAFlNgAA4MEyc7//APi4OgsMwGV0B5w/tdYOW2vr1trH6lAAUCEz96sz8BXvS56otXYWEYuIeFscBXg6hTYAgIH7e3UAAABgXPoDyk1EHBRHgUrvovs5OLc+FAA+c1gdAJ5Df7PCqi/BnEbEy9JAwFMcZ+bH1tpJdRAAAL6mzAYAANybIhszdh19eS26ApsJJ8C2mWYFMAKttU1ELDNzFV2p7UVlHuDRfs3Mi9baujoIAACfs2YUAAC4F0U2ZuhDRPw7In5ure231o6sEAWekddXgBHp3xcuols3f10cB3icN5l5VB0CAIDPKbMBAAA/pMjGTFxHtz70t4j4qbW2aK2d9NM3AID7MWVweK6qA0xZa+0sIhYR8XsotcEYrTPTimwAgAFRZgMAAL5LkY2Ju4zu4PH29LWz1tpVcS4AGCuFgOG5qg4wda21j62101BqgzHai67QpowNADAQymwAAMCdFNmYoMvoVof+KyL+0Vo7bK2dmr4GAMBTKbXBaB1ExLo6BAAAHWU2AADgezahyMa4fYiItxHxS3SrQw/71aHnrbWPxdkAPmPFFRNhsg2zp9QGo/QqM0+rQwAAoMwGAADcITPXocjG+HxZXlu01lattbXVocAIKAExBUqZw3NRHWCubkptrbX96N6ffqjOBHzX68xcVocAAJi7v1cHAAAAhqe/G/m4Ogfcw2V0EwQ3EXGhsAYA8BXTaAegtbaOiHVmHkXESUS8rE0E3GGdmYcmeQMA1FFmAwAAPpOZq4h4XZ0D7nC7vLZxwABMzKI6AGyByWzwHa2184g4z8xFRJxGxFFE7BVGAj73IiLW0f1sAgBQQJkNAAD4S2YeRsRZdQ645X18Kq5taqMAPLtFdQDYAqWc4bmqDsDX+onCq8zcj640cxpdiQao9yozj/ryKQAAO6bMBgAAREREf4hyHg4gqXMdn68M3VSGAQAepp80xcBYwz5s/aThdXSrDZcRsQrT2mAI1pm5MA0cAGD3lNkAAIAb6zAJgN36EBEX8Wny2kVtHIByy+oA8ESL6gAwZv3NHJtb09pOIuKgNBTM1150k+tXxTkAAGZHmQ0AAIjMPImIV9U5mLwP8Wny2saUEACYnEV1AL5yWR2Ah/tiWtsiulLbUbj5CHbtODPXpoYDAOyWMhsAAMxcZh5GxGl1DiZJeQ3gYQ6rA8ATLaoD8BXr8Uaufw99EhEn1pBCiXV4fQMA2CllNgAAYB0OQtgO5TWAp/F6zNgpZA6PMtuE3KwhjYjIzKPoSm2KbfC8XmTmSWvtrDoIAMBcKLMBAMCMZeZpRBxU52C0lNcAtiwzD1trF9U54JH2qwPwFc8nE9VaO4+I8wjFNtiB037dqIIwAMAOKLMBAMBMZeYiunU1cF/X8Xl5zeEowPYpAzFmL6sDwBx9o9i2jK7Y9qIwFkzJXnSfn5wW5wAAmIW/VQcAAADKrMNd+/zYZUT8OyJ+bq3tt9aOWmtnimwAz8aaRkapv1GC4fGebWZaa+ettZPW2iIi/hkRv0f3nh54mtde6wAAdsNkNgAAmKH+bn2TM7jLu+gmO1gdCrB7i+oA8EiL6gB8k5V4M9bfgHIR3YrE/eimtS3DOlJ4rNOIWBVnAACYPGU2AACYmf4Q46w6B4NyHV157bxfUQRAHZPZGKtldQC+yWQ2IiKitfYxuunc64iIzDyMrtR2FBEHZcFgXI4z89RNXwAAz0uZDQAA5uckIl5Uh6CcAtt47FcHAHZqUR0AHmlRHYCv9QUm+Mo3prYtbz2U2+Bup2E6GwDAs1JmAwCAGekPKU6qc1DqbSiwjY0pTTAvCueMlder4bmsDsA49KXH8/4RmbmIz8ttXpvgk6PM3FcWBgB4Pn+rDgAAAOzUWUTsVYdg595HxC8R8Y/W2kqRDWDYMnNZnQEewSSn4VG04FFaa1ettXV/7bCIiJ+iu574dyhJwl64SRAA4FmZzAYAADPR311/XByD3bmOiHVEnLXWrmqjAPBAhxGxqQ4B96WAOVgX1QGYhv56Yn3z17fWkh72f3xZEAsqraJbNwoAwDNQZgMAgPk4rQ7ATryPiHVrbV0dBIBHs66RsfE9O0wms/EsvlxLGvFXqfUwPhXcrCZlyl5k5sp1NwDA81BmAwCAGTCVbRbeRldi21QHYeuW1QGAnVMMYmx8zw7TpjoA89Ffh2xu/vob09sOo1vPCFOxilsTCwEA2B5lNgAAmIdVdQCezduIOLVKFGBSDqoDwAMtqwPwTSazUeaO6W2L+FRsOwzrSRm3l5m5cC0OALB9ymwAADBx/R3xJ9U52DoltvnYrw4A7F5mLk3bZAz695rWCQ5Qa+2iOgPc1l+7rG//mvWkjNwqIk6LMwAATI4yGwAATN9RWOcyJUps82NCE8zTYVgRyDgsqwPwTZfVAeA+7lhPens16TJczzJcq1BmAwDYOmU2AACYvtPqAGzF+4g4MWEDYDaWEXFWHQLuYVkdgG+6qg4Aj9GvJ93E5wW3RXw+ve0wFNwYhheZeeg6HQBgu5TZAABgwvqVLda0jNuH6Eps59VB2L3MPKzOAJRZVgeAe1pWB+CbFCuYjH4q9VVE/HVN1BfclvGp5PZy58Ggs4qIk+oQAABToswGAADTtqoOwJP8O7qVoh+rg1BmvzoAUGYvMxfWSjNk/TpA67CHSZmNSetfH9e3f62/EeT29DbPT+zCUSizAQBslTIbAABMVH+4eFSdg0f5EBGr1tqmOgjlTGaDeVvGFwf1MDDeaw7XVXUA2LV+1eNF3Hrt7KeV3y64mVzOtr1wAwIAwHb9rToAAADwbI4iYq86BA/2NiIOFdnomcwG86YoxNAtqwPwbX2pB2avtbZprZ211o5aa4uI+EdE/Csifo+I96XhmBLv2QAAtshkNgAAmC4fpo7LdUSctNbW1UEYlGV1AKDUsjoA/ID3m8N0WR0Ahqq19jEizvtHRHy1nnQZprfxcEcRcVYdAgBgKpTZAABggvoVo6+qc3BvHyLiyAQNvmFRHQAotZeZh14fGKK+/GEK8DB5zoAH+HI9aX89vYxPq0lfFkVjPHyPAABskTIbAABMkykZ43EZEct+QgB8yVQI4CgUUximVXUA7nRVHQDG7I7pbcv4VHBTXOIrmblsrW2qcwAATMHfqgMAAADPQpltHN6GIht36A/MALymM1S+N4drUx0Apqa1tmmtnbbWlq21jIifI+L3iHhfHI3hWFYHAACYCpPZAABgmqwYHb63rbVVdQgGbVEdABiEg8xctNauqoPAjcxchOmhQ2aaIzyzfgLX5uavM/MoujLTUXh+nKtldQAAgKkwmQ0AACam/xCdYVNk4z4OqwMAg7GsDgBf8H5zuD6Y+gu711o7b62dtNYWEfFTRPwWEe9qU7Fjrt8AALZEmQ0AAKZnWR2A73qvyMY9OQwBbigOMTQn1QG406Y6AMxda+2qtXbWWjuKiH9ExL8i4m1EXNcm45ntZaZrOACALVBmAwCA6XHgPVyX4evD/b2sDgAMxqvM3K8OARER/UG9FXrDZcUoDEhr7WM/tW3VWtsPxbapW1QHAACYAmU2AACYkMxchMPFobqOiCNrn7iPzFxWZwAGRxmaoVhVB+C7lNlgwL4otv0SVpFOjclsAABboMwGAADTsqwOwJ2OWmtX1SEYjWV1AGBwrHVkKFbVAbhba21TnQG4n9baul9F+lNE/B4RH4oj8XTL6gAAAFOgzAYAANPiLuBh+t3BIg/kZxn40kE/gRXKZOZRROxV5+BO76sDAA/XWrtqrZ221hbRrSH1szxei+oAAABToMwGAADTsqwOwFcuW2un1SEYnWV1AGCQVtUBmL1VdQC+y4pRGLl+DekyIn6OiLfFcXi4F9UBAACmQJkNAACm5aA6AF9ZVQdgXDJzGabeAN+2qg7AfPWTAV8Vx+D7NtUBgO1orW1aa6voVpCa1DYimWnKNgDAEymzAQDARPQFGIblbWvNhAwealkdABisF/2aR6iwqg7AD22qAwDb1a8gXUY3qe2yOA73s18dAABg7JTZAABgOtz9OyzXEXFSHYJRUlQBvmdVHYDZ8r5m2C5bax+rQwDPo5/UdhgRv0V3rclw+WwGAOCJlNkAAGA6fGA6LGcOFHmofoWbdcHA97zqnytgZzJzFVZgD92mOgDw/FprZ9Fd+1s9OlwmswEAPJEyGwAATMeiOgB/uY6Is+oQjNKyOgAwCiZksWun1QH4oU11AGA3bq0e/b06C9+0qA4AADB2ymwAADAdL6sD8JdzU9l4JCtGgftYZaapH+xEZh5FxIvqHPzQpjoAsFuttdOI+FdYOzo0i+oAAABjp8wGAAATYN3Y4JxWB2B8+mLKq+ocwCjshels7I7vteG7dCMFzFNr7Ty66c4KbQAATIYyGwAATMOiOgB/uWytXVWHYJRMZQMeQsGIZ5eZyzD9dww21QGAOq21i1BoGxLTcwEAnkiZDQAApuGwOgB/WVcHYLQUU4CH2MvMVXUIJu+0OgD3cl4dAKil0DYoB9UBAADGTpkNAACmwZ2/w+EwkQfrVwU79AAe6rQ6ANNlKtt4tNY21RmAen2hzQ0yAACMnjIbAABMg8lsw2DFKI/l0Al4jBeZ6fmD53JWHYB7eVcdABiO1to6It5W5wAAgKdQZgMAgGkwmW0YNtUBGK1VdQBgtE4z0/sAtqpfYWti6DhsqgMAg3MS1o0CADBiymwAADANJrMNw6Y6AOPTFwb2qnMAo7UXpjuyRX058rQ6B/dmxT3wmdbax/DeAACAEVNmAwCAaVCEGYZNdQBGaVUdABi9k8xcVIdgMk4i4kV1CO7Finvgm/p1ox+qcwAAwGMoswEAAGzHh/4OeLi3zFxGxMvqHMDo7YVJWmxBX4o0zWc8NtUBgEFbVwcAAIDHUGYDAICR68sw1LuqDsAoKQwA23LsPQFbcBYm/o7JujoA25OZh5m5ycyL6ixMxro6AAAAPIYyGwAAwHZsqgMwLv30m1fFMYBpOasOwHhl5lF4XRqTD601pacJyMz9zFxHxH+jm9h7kJmez3myfg3xZXUOAAB4KGU2AAAAqHFaHQCYnIPMPK0Owfhk5n6Y4DM2m+oAPF3/nH0VEcdf/E+/9gVTeKpNdQAAAHgoZTYAABi/w+oARIRDAh6gn8r25aElwDac9M8x8BDrsF50bM6rA/B4mXmUmVcR8Tru/tlbez5nC0xwBABgdJTZAABg/ParAwAPZnUU8Fz2woQtHsB60VG6bq0ps41QZh5m5iYi/oyIFz/47XsRcd5PToTHuqoOAAAAD6XMBgAAADuUmctQGgCe10vrRrkP60VHS5FtZDJzPzPPIuK/EfHyAX/rQbgJAgAAmBllNgAAANit0+oAwCy8zkyryPmR87BedIyU2UYkM0+im4716yP/Ecf9PwMerLW2qc4AAAAPpcwGAACwHRfVARi+zFzFw6ZxADzF2no67tJP7/OaND4frBgdh8xcZuZVRPwRTy+N/tGvBAaG77I6AADA2CmzAQAAbEFr7WN1BoatL5RYEwXskvV0fFO/8vp1dQ4eRZFt4DJzkZmbiPhPRLz4//bu9ziqa0vj8Lun5jtMBMgRgCOwHIHlCJAjsByBRQSWI7gighERWIrgShFcEcGgCPZ8OLuNwPwR0NI6fc7zVKnwZWZurRqsPmr2r9fe4n/1qY2bfKnW2l71DCvk7wYAAL6RmA0AAHbffvUAJA6WuIPjuMoNeHiup+MdI64WRO2u0+oB+LDW2uPW2kmS/+R+th4+SnIuTuIL7VUPAAAAX0rMBgAAsB2uceOjxgacX6vnAFbrD9E1yd8h23nE1bvqde/d1fYzNKLh69z/z3uPkpy5Qhpm7bp6AACAXSdmAwAAgPvnmj+gmm0+JNPz6Gn1EHw1P0/MTGttv7V2neSPPFwk+jTTa7qgjbvw78nDu64eAABg14nZAAAA4B6N66aEA0A123xWbjyPnlfPwTdxPexMtNb2WmvnSf5K8qRgBEEbd2Uz68N7Uz0AAMCuE7MBAABsh0MC/sH1osDMPM10xSQr01o7jOfRrnvVe7+uHmLtWmuPRxj6nyQ/FI8jaOMu9qoHWCHXQQMAfCMxGwAAwHY4ROId42DRBhVgbp621k6rh+DhjJDtX9Vz8M1OqwdYu9baUabrA+cUhgra+BwfugIAYOeI2QAAALZjv3oAZucs07V+AHPzXNC2DkK2xbjpvQvki7TW9ltr10n+yDx/thO08UHj34mn1XOsTe/9vHoGAIBdJ2YDAIDdd109AElc38ItrbXj1F89BfApgraFE7Itykn1AGvUWttrrZ0l+SvJk+p5PkPQxofsVw+wQjfVAwAALIGYDQAAdt919QAkSZ44PCJJWmsHSX6vngPgDgRtCyVkW5zT6gHWpLX2eHww4T9Jfioe50s8TXLZWnOtJBv71QOs0GX1AAAASyBmAwAA2J796gGoNQ4PT6vnAPgCgraFEbItzqve+3X1EGsxvn+us7sfTHiSaUOboI0kOageYIXEbAAAWyBmAwAA2J796gGoMzbznSV5VD0LwBd63lo7s2F097XWjiJkW5rT6gHWoLW231q7zPT9s+s/yz3KFLQdVg9CndbafuZ/Pe4SXVcPAACwBGI2AACA7fHJ95UaAch5HBgBu+unTPGDoG1HjQ17f1TPwVa97r2fVQ+xZK21vdbaWZK/Ml3TuRSPkvxrXJfKOh1WD7BSNrMBAGyBmA0AAHbfm+oB+NsTV/qsz62QbUkHoMA6PU1y7Vm2W1prj1tr50meV8/C1p1UD7BU4/vmOMl/MsW8S/W7zZvrM/68PRMK9N7Pq2cAAFgCMRsAAOw+n/ydl8PqAXhwpxGyAcvherodMsLD8yQ/FI/C9t3EFaP3Yry+XSf5vXaSB7PZvClUXo+j6gFW6qp6AACApRCzAQAAbJerRldkXOm25G0ewDptrqezFWrGRpBzHkH1Up323m1g3qLW2n5r7TLJvzK9zq3J0wiVV2FsZROz1fBBQwCALRGzAQDA7nPINS9PWmuCtoUbV1OdxvU9wLL92lq7bK3tVQ/CW7eeQWsMctZETLolrbW91tpZkr+y7vhzEyqfunZ00U7i2VDlvHoAAICl+O/qAQCAdzxrrVXPAHzam977rD5t23u/9NoxO0dJzqqH4H6Mw7/zrPswFFiPp0kuW2vHvXdxTbFxTeBpPIOW7mXv/bp6iF13a0PVWq4TvavnSfZba4e99/PqYdie8YzwYZs659UDAAAsRUvSq4cg6b07fSzQWjtP8kP1HORF7/24eog1a615FgDc3UXvfb96iPd5LZ+lHx0OLY+QbR28R3+XZwy3XCQ5FNnUaK0dR5SzFt/5Pvs24zpNG6o+z9/LLsi4Rtf7lBo3vXcbDwEAtsQ1owAAsAwX1QPwD8fVA7BdY9OBAyJgzX7ItKXtqHqQNWmt7bfWriNkW4tXQravN75fzuMa3rv6fVwn/ax6EL5Na+0k3qdUspkdAGCLxGwAAAD344fW2kH1EGxHa20/00a2J7WTAJR7lOSPET/sVw+zZK21x6210yR/xfNnTVzn+xVaa3u3vl/cxPFlnib5d2vtZGwhZseM952/Vs+xcufVAwAALImYDQAAluG8egA+yIHQAowNRH/Fdg+A254m+au1dtZa2yueZVFGxHac5DrJ89ppeGAXrqn/Mre+Xy7j++Vb/Zpp+6YP5OyQsVXvtHoO/J0MAMA2idkAAGAZ3lQPwAc9ietGd9Y4HD1L8kf1LAAz9lOS/7TWTkVt3661dpgpyvk9Iuo1Oq4eYJf4frkXT5L8b2vt3NWj8zf+jM7j3/9qV66HBgDYLjEbAAAsw2X1AHzUr7Yb7J5xMHSZKdIA4POeR9T21Vprh6216yT/iitF18pWtjtqre231s7j++U+/ZDp6tFTm6bnScg2K+fVAwAALI2YDQAAlkHMNm8O9nfIuKrq33E4CvA1bkdttvp8wtgAeiRiYziuHmDuWmt7rbXTTNe//1A8zlo8T3LdWjsWtc2HkG12TqsHAABYGjEbAAAsQO/9TZKb6jn4qEdJzhwAzds4ID3PdFUVAN/meaatPpdj65hn4HAryLnOdJW1iA1b2T5hhJ/HmT7A87x4nDV6lOnnY1HbDLTW9iNkm5PXvXcfLgQA2DIxGwAALIe/QJ23p/GJ7dm6dUBqywfAdj3NtHXses3b2kaMc9hau0zyn0xBjhCBjcPqAeaqtXaY6We03+N7ppqorVhr7SjTZkLfC/NxVj0AAMASidkAAGA5zqsH4LN+GptYmInW2v4ICxyQAtyvR3m7re26tXay9LDtVsB2luT/MkV9T4vHYn5e9t6vq4eYm/Ez2nlcwTtH70dte7XjLN94npxl2ubJvJxWDwAAsERiNgAAWA6b2XbDc0FbvVtXvP0VYQHAQ3uS5NdMYdubsbFtEVeRjufL0XsB20/FYzFvx9UDzMl7P6PZmDtvm6jtP+N1fL94nkVqrR1kupbas2R+XDEKAHBP/rt6AAAAYGv8JerueN5aS5Kj3vub6mHWZIQSR+PLJjaAepuNbc+T/Ku1dpVp2+xlkvO5b6wa2+WeJdkfXzZI8SVezP3f8YfiZ7Sd9zzTe5yrJCdJzrzP+TZj491pRJ1z5opRAIB70pL06iFIeu+teoY1GqvqvRms96L3flw9xJq11jwLAO7uove+Xz3Ex7TWruMQdZdcJdl30PMwWmtHmbafOCDlk7xHf5f3CxS7yRS2bb6uk1xWPDvH1qG9TPHas/g7Jb7NTZI9Pwf+vXnqJN7HLMlNptDntPd+XjzLThlh53GmDabM23eCZACA+2EzGwAALMt5pk/FsxueJrlurR045Lkf4zDoINOBkANSgN3zKFM09k44NjacXoz/eD5+fZP3NtV+7vk6nhPPbv3W3vjK+P3N/1wIzbYdrz1kG5sNTyIMXaK/t2621l7nbdhmm/hHjE1sh7GdcFdcCdkAAO6PmA0AAJblMmK2XfMoyV+tNdtqt8hVVQCr8MN7v/7DiN5gbl733k+qh6gyfk47ifcta/Ek05axX4Vt/zSizqP4ftg1q30NBwB4CP9VPQAAALBVZ9UD8NV+b617blkuAAAbT0lEQVRdjsMMvlJrba+1dprpGrrfI2QDAObnsHqAKq2140w/pwl31mkTtv27tXbdWjttrR2MwHE1WmuPW2tHrbXLJP+O74dds7lGFwCAe2IzGwAALEjv/Xp82t11irvpaaaDnT/j6qk7u3WV6GFcUwUAzNurNV4v31o7yLTJyPsUNp5kXEWaJK21q0zXRp8nOV/ae6FxjehBkv0kP1XOwjc7Xdq/nwAAcyNmAwCA5TmPT3bvul+THLbWTpKc+IvyD2ut7WcK2A5iAxsAMH83ma4TXI2xdfgkPnDA5z0dX78mf8dtl5ne317u2rWk4wM3+7e+nhaOw3a5YhQA4J6J2QAAYHnOImZbgkeZrsk8ErW9NQ5EDzMFbDZ7AAC75KT3fl09xAN7k+RZ9RDspE3cttncliSbwO06U+T2Zg6R2wjXnmWK1vbGr96rLNPLFb6OAwA8uJakVw9B0ntv1TOsUWvtPD4VOAcveu/H1UOsWWvNswDg7i567/vVQ3zK+Iv0/6ueg627yRQqnszhwOah3NpocBAb2Hgg3qO/y/sFgK246r2vMuoaV4z+b/UcLNrrTIHbm0yxW8avmw8DXX9LgDQ2Qm9s/vlZksdxvrA2P67xqmgAgIdmMxsAACxM7/1Na+1Vkp+qZ2GrHmXaSvB8XLlzmuRsiZ8KH4dFmy+HQwDAEqzqetHbeu9nrbU/M66PhHvwJG83oX3wffDY7PYhV5mit8dxFSifdiFkAwB4GGI2AABYprOI2ZbsaZI/kvwxwrazTGHbzm1sa63tZdpqsLmWR7wGACzNn2sPIHrvR+O6eD/rMTcCNu7quHoAAIC1ELMBAMAynSX5V/UQPIin4+v31tpNkvNMV+qcz+3QdGxc2xtf+5kCNteGAgBL9joCiI2DTFdB+vkP2DW2sgEAPCAxGwAALJCrRlfrUaY/858yxW3JdIB6nSlyux5fb7a9xa219jhTnJbx6+O8DddEawDAWh323t9UDzEH4z3KfpJ/V88C8IWOqwcAAFgTMRsAACyXq0ZJkifj650rnUboliRXST50wHo5fn9vfH3I3vjvBgDgn1Z/vej7eu+XrbVfYos0sDtsZQMAeGBiNgAAWKje+2lr7SQ2YvFpTz/y+z985PcBAPg814t+xHif8izJr9WzANzBcfUAAABr81/VAwAAAPfqrHoAAABYIdeLfkLv/SjJq+o5AD7jla1sAAAPT8wGAADLdlI9AAAArIzrRe/mMNOV9wBzdVQ9AADAGonZAABgwXrvl0kuqucAAICVuBpbx/iMsbluP8lN8SgAH/Ki935dPQQAwBqJ2QAAYPlOqwcAAIAVuMm0bYw7ErQBM3UTm+4BAMqI2QAAYOF676dJXlfPAQAAC3c0NiPzBcb/zw6q5wC45XDEtgAAFBCzAQDAOpxWDwAAAAv2cnyIhK/Qez9P8kv1HABJLnrvZ9VDAACsmZgNAADW4SSu7gEAgPtwleSoeohdN2JAQRtQyXXRAAAzIGYDAIAVGNdjnFTPAQAAC3MT19FtzQja/qyeA1itk977dfUQAABrJ2YDAID1sJ0NAAC266j3flk9xJL03o+SvKyeA1idq977cfUQAACI2QAAYDVsZ4OddFE9AADwUX+OTWJsWe/9MII24OG4XhQAYEbEbAAAsC62s8HucKACAPN1MTaIcU8EbcADOrZlEwBgPsRsAACwIrazwU457r1fVw8BlBGfw3xdJTmoHmINBG3AA7jovft7EgCAGRGzAQDAyvTej5O8rp4D+CQHKsBppmAGmJebJIfjQyI8AEEbcI9uIk4GAJgdMRsAAKyTK5FgvlwvCiTJm0yvBTa0wbwcuIru4QnagHtyIE4GAJgfMRsAAKxQ7/0syUX1HMAHuV4USJKMYOaweg7gb7/03s+rh1grQRuwZS+8pgMAzJOYDQAA1st2NpifV64XBW4bAfqf1XMA+bP3flo9xNoJ2oAtuei9H1cPAQDAh4nZAABgpca2lxfVcwB/c70o8EG996PYqAqVXo7vQ2ZA0AZ8o9dJDqqHAADg48RsAACwbieZ/iIXqHfQe39TPQQwWwfxzIYKr0Y8xYyMP5PfqucAds5NvO8CAJg9MRsAAKzY+Avcw+o5gLzovZ9XDwHM13hmH2Q6hAUexlX8rDxb42r2X6rnAHbK4dhSDwDAjInZAABg5UZA82f1HLBiF7334+ohgPkbh6+H1XPASlwl2be9Z95676eZgjahL/A5v/Xez6qHAADg88RsAABAkhxnOrADHtbrTJuWAO5kHMLaRAT3S8i2Q0bQth9BG/BxL8c2RwAAdoCYDQAAcN0o1LhJcuCgHPhSI9x4WT0HLJSQbQeNzZX78QEd4J9e9t4Pq4cAAODuxGwAAECSvw+AfqueA1bkaHzfAXyxcSgraIPtErLtMEEb8AFXSY6qhwAA4MuI2QAAgL+NazdeVc8BK/BibFYC+GojaBNtwHYI2Rag9/6m9/4sYl/A6zoAwM4SswEAAO87jINxuE8ve+/H1UMAi7Efz234VoKHhRmxr63TsF5e1wEAdpiYDQAAeMf4y97DJDfFo8ASXYzDVYCtGM/t/Qja4GsJHhZqbJ3+Md7XwNp4XQcA2HFiNgAA4B9675eZgjZge66SHFQPASyPoA2+muBh4Xrv5/H6CGvidR0AYAHEbAAAwAf13s+S/FI9ByyEQxXgXgna4ItdxLN5FcYHdfaTvCweBbhf3nMBACyEmA0AAPio3vtpHPrAt3KoAjwIQRvc2cveu2fzivTe34yr3n+rngW4F95zAQAsiJgNAAD4pHHoI2iDr3MThyrAAxK0wWf9OX6+ZYV67ydJvk/yunoWYGuEbAAACyNmAwAAPmsc+DkUhy8jZANKCNrgo37pvR9VD0Gtce3osySvqmcBvtmreM8FALA4YjYAAOCu9uNQHO7qKsneOCwFeHCCNnjHTZIfe++n1YMwD+Pa0YNM147eVM8DfJWXvfcDIRsAwPKI2QAAgDtxKA535pobYBZGrPEsrgtn3TbP5fPqQZifce3ofrzHgV3zwpXRAADLJWYDAADuTNAGnyVkA2ZnHPYK2liji0zPZZtS+aje++UIf/+sngW4k19678fVQwAAcH/EbAAAwBcRtMFHbQ7MhWzA7Iyg7bfqOeAB/dl791zmznrvR0l+TPK6ehbgg26SfO/KaACA5ROzAQAAX+xW0HZRPArMxUsH5sDcjev0fs50GAxLdZPk5xEmwRcZ19Ha0gbzc5Vkz6ZNAIB1ELMBAABfpff+pve+H9eWwYux8Qhg9nrvZ5mCdJuHWKLNdd9n1YOwu8b7HFvaYD5e9t6f+eAQAMB6iNkAAIBvMiIemwtYo5skv/Tej6sHAfgSY6vJs9iwyrK8zBSy2drDVtjSBuU277cOqwcBAOBhidkAAIBvNjYX/FI9Bzyg15kOzE+rBwH4Grc2rIo02HWba0UPbe1h225tafs+0+Y/4GFsNm2eVg8CAMDDE7MBAABbMf6S+cdMB4qwZBdJntn8AizBiDR+juc3u2nzTHatKPeq937Ze3+W5Ld4vYT7ZtMmAMDKidkAAICtuXUVj60FLNWL3vu+zS/AkowQyPObXfPbeCZfVw/CevTeT5LsZYptgO2yaRMAgCRiNgAAYMvGgeJ+HPCwLDdJfuy9H1cPAnAfeu/XY+uQa0eZu6sk34+oCB7cuHr0MNNWahEwbIdNmwAA/E3MBgAAbN2tA55f4hoedt9Fkr2xeRBg0ca1o64NZ65e9N5d9c0s9N7PRwTsPQ98vZvYtAkAwHvEbAAAwL3pvZ9m2tJmYwG76PbBimtugNUY8e5ekle1k8DfLpJ8Z0MqczTe8+wleVE7CeyczTY2mzYBAHiHmA0AALhXY3PGflxbxm65ioMVYMXGltWDJD/HxiHq3CT5xcYe5m68Zh4n+S7Jy+JxYO5sYwMA4JPEbAAAwL0bhzuba8teV88Dn7A5WHnmYAUg6b2fxZY2avyZ6Zrv0+pB4K5679e998Mk32faOgW862Wm13YfGgIA4KPEbAAAwIMZ15Y9iy1tzJNrbgA+4NaWNlE6D+Eiyfe99yPXfLOreu+Xvff9TK+bojaYNl//2Hs/9NoOAMDniNkAAIAH9d6WtqvqeSDTNrafXXMD8Gm3ovQXxaOwTK/z9krRy+phYBt67+eiNlbu9ubr8+phAADYDWI2AACgxDjY2RyI31TPw2q9yHTNzVn1IAC7YETpx0m+i6tH2Y6bJC96764UZbFEbazU5rpom68BAPgiYjYAAKDUOBB/luRl8Sisy6sk3/Xej11zA/Dleu/Xt64etWmVr3GTt1H5cfEs8CBEbazE5r2W66IBAPgqYjYAAKDcOBA/jEMd7t9Fkh977weuFAX4drc2rf6S6ZpIuIuXGRGb0IE1uhW1fRcf6mE5vNcCAGArxGwAAMBsvLepwIE42/Q6yS+99/3e+3n1MABL03s/7b3vJfktrg/nw24yRTvf9d4PRWzwzod6vsu0qdDrJ7toE7F5rwUAwFaI2QAAgNkZUdtebHnh220itr3e+2n1MABL13s/SbIXUQZv3b5O9NC2HvinEbUdZ3r99B6IXSFiAwDgXojZAACA2bq15cWBDl/qKiI2gBK99ze3oozf4hm+Vq8z/fm7ThTuaLx+bt4D/RhXkDJPryJiAwDgHonZAACA2bt1oPNzpk9/w8dstgM8E7EB1BpRxokwfXUu8jYoPxGxwdcZ26oP8/YKUq+hVNtcFX0gYgMA4D6J2QAAgJ3Rez/rve/HlgL+6WWS720HAJin9zYNCdOX5ybvPotPi+eBxdhcQWpbG0VeZ4op/8dV0QAAPBQxGwAAsHM+sKXgpnYiimyuL9scrFxWDwTAp41n+H6mZ/if8QzfdVeZtu7teRbD/bv1Puh/Mn3vXdVOxILd3rLpqmgAAB6UmA0AANhZt7YUPM50mPOqeiYexMtMV4m6vgxgR41n+NGtZ7htbbvjdaYQ8bvNtd6exfCwxjXOp733Z5ni4N/iGlK+3U3evr7bsgkAQBkxGwAAsAjjMOcgDnOWarP5ZbOF7bx4HgC2ZDzD9/N246pn+PxsrhH9ecTkR66ag3kYcfDJuIb0+0wxktdRvsSrTFvYHnt9BwBgDlrvvXoGAIq11varZwDYIW9cn7Q7WmvPkhwmOUjypHYavsJVktMkZ2s+UPGz2sMTS0I9z/BZuElyluk5fFY9DPBlxuvofqbX0qelwzBH3msBADBbYjYAAGAVHIrvDIcqALzDM/xBXSU5T3LqAxywHK21vUyvoftJfqqchVLeawEAsBPEbAAAwOo4zJmVm0yH5pvNL29qxwFgzjzDt+72c/hc3ADr0FrbvI6KhJdPwAYAwM4RswEAAKt36zBnP67geQgXGQfntr4A8C3GVcyb57hn+Odt4rXzTPGa5zCs3IiE9/P2tfRR3TRsgQ8LAQCw88RsAAAAt7TWHudt2PYsyQ+V8yzATZLLvD00Py+dBoBFG3Hb5utZRBmba0Mvk1yK14DPGVc77+ft66jNbfN3lbcbNs+LZwEAgG8mZgMAAPiMcTD+7NaXzS8fd5FxYB6H5gAUGxuHNs/v/Sw3cNvE45uva0EDsA23NrdtXke9F6q3CZXPMwVstq8BALAoYjYAAICvMAK3vfG1+ec1bS24SnKddw/NhWsAzN7Ywvos7z7Hk93YxnqR5E3Gs3d8XQoZgIfkwz4PanNt6GVsXgMAYCXEbAAAAFs0ruXZXFW6OSxPduOA/LbNhpdkOjzZHJy/Ea0BsGQj0kimZ/jj8c/7t/5X9rK9gP328zZ5G6hl/P6bePYCO8CHfbbidaZnwHnebrq+LpwHAABKiNkAAAAe0K3YLXn3YPz27yfbP/y5ynQgvrGJ097/52sHJgDwdcZ1fHvv/bZnK7Ba70Vum/c8u/ZBn23bRGuXt361ZRMAAAYxGwAAAAAAAA/q1ibMza+b2O1xdv/q0ovx6/ntX10TCgAAnydmAwAAAAAAYHbe22y9l3e3X+5/4P/kPra+Xbz3n6/z9kpoW64BAGDLxGwAAAAAAAAAAACU+6/qAQAAAAAAAAAAAEDMBgAAAAAAAAAAQDkxGwAAAAAAAAAAAOXEbAAAAAAAAAAAAJQTswEAAAAAAAAAAFBOzAYAAAAAAAAAAEA5MRsAAAAAAAAAAADlxGwAAAAAAAAAAACUE7MBAAAAAAAAAABQTswGAAAAAAAAAABAOTEbAAAAAAAAAAAA5cRsAAAAAAAAAAAAlBOzAQAAAAAAAAAAUE7MBgAAAAAAAAAAQDkxGwAAAAAAAAAAAOXEbAAAAAAAAAAAAJQTswEAAAAAAAAAAFBOzAYAAAAAAAAAAEA5MRsAAAAAAAAAAADlxGwAAAAAAAAAAACUE7MBAAAAAAAAAABQTswGAAAAAAAAAABAOTEbAAAAAAAAAAAA5cRsAAAAAAAAAAAAlBOzAQAAAAAAAAAAUE7MBgAAAAAAAAAAQDkxGwAAAAAAAAAAAOXEbAAAAAAAAAAAAJQTswEAAAAAAAAAAFBOzAYAAAAAAAAAAEA5MRsAAAAAAAAAAADlxGwAAAAAAAAAAACUE7MBAAAAAAAAAABQTswGAAAAAAAAAABAOTEbAAAAAAAAAAAA5cRsAAAAAAAAAAAAlBOzAQAAAAAAAAAAUE7MBgAAAAAAAAAAQDkxGwAAAAAAAAAAAOXEbAAAAAAAAAAAAJQTswEAAAAAAAAAAFBOzAYAAAAAAAAAAEA5MRsAAAAAAAAAAADlxGwAAAAAAAAAAACUE7MBAAAAAAAAAABQTswGAAAAAAAAAABAOTEbAAAAAAAAAAAA5cRsAAAAAAAAAAAAlBOzAQAAAAAAAAAAUE7MBgAAAAAAAAAAQDkxGwAAAAAAAAAAAOXEbAAAAAAAAAAAAJQTswEAAAAAAAAAAFBOzAYAAAAAAAAAAEA5MRsAAAAAAAAAAADlxGwAAAAAAAAAAACUE7MBAAAAAAAAAABQTswGAAAAAAAAAABAOTEbAAAAAAAAAAAA5cRsAAAAAAAAAAAAlBOzAQAAAAAAAAAAUE7MBgAAAAAAAAAAQDkxGwAAAAAAAAAAAOXEbAAAAAAAAAAAAJQTswEAAAAAAAAAAFBOzAYAAAAAAAAAAEA5MRsAAAAAAAAAAADlxGwAAAAAAAAAAACUE7MBAAAAAAAAAABQTswGAAAAAAAAAABAOTEbAAAAAAAAAAAA5cRsAAAAAAAAAAAAlBOzAQAAAAAAAAAAUE7MBgAAAAAAAAAAQDkxGwAAAAAAAAAAAOXEbAAAAAAAAAAAAJQTswEAAAAAAAAAAFBOzAYAAAAAAAAAAEA5MRsAAAAAAAAAAADlxGwAAAAAAAAAAACUE7MBAAAAAAAAAABQTswGAAAAAAAAAABAOTEbAAAAAAAAAAAA5cRsAAAAAAAAAAAAlBOzAQAAAAAAAAAAUE7MBgAAAAAAAAAAQDkxGwAAAAAAAAAAAOXEbAAAAAAAAAAAAJQTswEAAAAAAAAAAFBOzAYAAAAAAAAAAEA5MRsAAAAAAAAAAADlxGwAAAAAAAAAAACUE7MBAAAAAAAAAABQTswGAAAAAAAAAABAOTEbAAAAAAAAAAAA5cRsAAAAAAAAAAAAlBOzAQAAAAAAAAAAUE7MBgAAAAAAAAAAQDkxGwAAAAAAAAAAAOXEbAAAAAAAAAAAAJQTswEAAAAAAAAAAFBOzAYAAAAAAAAAAEA5MRsAAAAAAAAAAADlxGwAAAAAAAAAAACUE7MBAAAAAAAAAABQTswGAAAAAAAAAABAOTEbAAAAAAAAAAAA5cRsAAAAAAAAAAAAlBOzAQAAAAAAAAAAUE7MBgAAAAAAAAAAQDkxGwAAAAAAAAAAAOXEbAAAAAAAAAAAAJQTswEAAAAAAAAAAFBOzAYAAAAAAAAAAEA5MRsAAAAAAAAAAADlxGwAAAAAAAAAAACUE7MBAAAAAAAAAABQTswGAAAAAAAAAABAOTEbAAAAAAAAAAAA5cRsAAAAAAAAAAAAlBOzAQAAAAAAAAAAUE7MBgAAAAAAAAAAQDkxGwAAAAAAAAAAAOXEbAAAAAAAAAAAAJQTswEAAAAAAAAAAFBOzAYAAAAAAAAAAEA5MRsAAAAAAAAAAADlxGwAAAAAAAAAAACUE7MBAAAAAAAAAABQTswGAAAAAAAAAABAOTEbAAAAAAAAAAAA5cRsAAAAAAAAAAAAlBOzAQAAAAAAAAAAUE7MBgAAAAAAAAAAQDkxGwAAAAAAAAAAAOXEbAAAAAAAAAAAAJQTswEAAAAAAAAAAFBOzAYAAAAAAAAAAEA5MRsAAAAAAAAAAADlxGwAAAAAAAAAAACUE7MBAAAAAAAAAABQTswGAAAAAAAAAABAOTEbAAAAAAAAAAAA5cRsAAAAAAAAAAAAlBOzAQAAAAAAAAAAUE7MBgAAAAAAAAAAQDkxGwAAAAAAAAAAAOXEbAAAAAAAAAAAAJQTswEAAAAAAAAAAFBOzAYAAAAAAAAAAEA5MRsAAAAAAAAAAADlxGwAAAAAAAAAAACUE7MBAAAAAAAAAABQTswGAAAAAAAAAABAOTEbAAAAAAAAAAAA5cRsAAAAAAAAAAAAlBOzAQAAAAAAAAAAUE7MBgAAAAAAAAAAQDkxGwAAAAAAAAAAAOXEbAAAAAAAAAAAAJQTswEAAAAAAAAAAFBOzAYAAAAAAAAAAEA5MRsAAAAAAAAAAADlxGwAAAAAAAAAAACUE7MBAAAAAAAAAABQTswGAAAAAAAAAABAOTEbAAAAAAAAAAAA5cRsAAAAAAAAAAAAlBOzAQAAAAAAAAAAUE7MBgAAAAAAAAAAQDkxGwAAAAAAAAAAAOXEbAAAAAAAAAAAAJQTswEAAAAAAAAAAFBOzAYAAAAAAAAAAEA5MRsAAAAAAAAAAADlxGwAAAAAAAAAAACUE7MBAAAAAAAAAABQTswGAAAAAAAAAABAOTEbAAAAAAAAAAAA5cRsAAAAAAAAAAAAlBOzAQAAAAAAAAAAUE7MBgAAAAAAAAAAQDkxGwAAAAAAAAAAAOXEbAAAAAAAAAAAAJQTswEAAAAAAAAAAFBOzAYAAAAAAAAAAEA5MRsAAAAAAAAAAADlxGwAAAAAAAAAAACUE7MBAAAAAAAAAABQTswGAAAAAAAAAABAOTEbAAAAAAAAAAAA5cRsAAAAAAAAAAAAlBOzAQAAAAAAAAAAUE7MBgAAAAAAAAAAQDkxGwAAAAAAAAAAAOXEbAAAAAAAAAAAAJQTswEAAAAAAAAAAFBOzAYAAAAAAAAAAEA5MRsAAAAAAAAAAADlxGwAAAAAAAAAAACU+39OHQ3T1mC5LAAAAABJRU5ErkJggg==;" parent="1" vertex="1">
                    <mxGeometry x="890" y="270" width="72.05" height="45" as="geometry"/>
                </mxCell>
            </root>
        </mxGraphModel>
    </diagram>
</mxfile>